<?xml version="1.0" encoding="utf-8"?>
<!-- Generator: Adobe Illustrator 24.3.0, SVG Export Plug-In . SVG Version: 6.00 Build 0)  -->
<svg version="1.1" id="Layer_1" xmlns="http://www.w3.org/2000/svg" xmlns:xlink="http://www.w3.org/1999/xlink" x="0px" y="0px"
	 viewBox="0 0 792 612" style="enable-background:new 0 0 792 612;" xml:space="preserve">
<style type="text/css">
	.st0{fill:#046666;}
	.st1{opacity:0.8;}
	.st2{opacity:0.6;}
</style>
<g>
	<g>
		<path class="st0" d="M79.65,265.31c-1.36,0-2.49,0.92-2.83,2.17l-51.55-24.02l11.92-3.78l-13.68,1.58L60.26,193l-40.84,45.46
			l-0.83-13l-2.39,11.5l-34.29-45.36c1.07-0.44,1.83-1.49,1.83-2.72c0-1.63-1.32-2.95-2.95-2.95c-1.63,0-2.95,1.32-2.95,2.95
			c0,1.63,1.32,2.95,2.95,2.95c0.34,0,0.65-0.07,0.95-0.17l32.25,49.89l-12.65-2.4c0-0.26-0.05-0.53-0.15-0.8
			c-0.4-1.03-1.45-1.59-2.35-1.25c-0.91,0.35-1.32,1.46-0.92,2.5c0.4,1.04,1.45,1.59,2.35,1.25c0.5-0.19,0.84-0.62,0.99-1.14
			l8.66,4.21l-57.07,20.7l59.94-16.62L6.02,261.2l9.09-10.73l0.35,63.62l4.46-63.49l8.51,9.98c-0.56,0.41-0.8,1.16-0.54,1.83
			c0.31,0.82,1.23,1.23,2.05,0.92c0.82-0.31,1.23-1.23,0.92-2.05c-0.31-0.82-1.23-1.23-2.05-0.92c-0.04,0.02-0.08,0.04-0.12,0.06
			l-7.53-13.34l55.59,20.82c-0.01,0.12-0.04,0.23-0.04,0.35c0,1.63,1.32,2.95,2.95,2.95c1.63,0,2.95-1.32,2.95-2.95
			S81.27,265.31,79.65,265.31z"/>
	</g>
</g>
<g class="st1">
	<g>
		<path class="st0" d="M31.92,98.53c-0.05,0-0.09,0.01-0.14,0.03L31,96.38l8.91,1.96l-8.15-3.2l2.11-1.18l-2.44,0.84l2.27-8.16
			c0.02,0,0.04,0.01,0.06,0.01c0.29,0,0.53-0.27,0.53-0.61c0-0.33-0.24-0.61-0.53-0.61c-0.29,0-0.53,0.27-0.53,0.61
			c0,0.27,0.16,0.5,0.38,0.57l-3.57,7.7l-0.97-1.96c0.13-0.07,0.23-0.2,0.23-0.36c0-0.22-0.18-0.4-0.4-0.4c-0.22,0-0.4,0.18-0.4,0.4
			c0,0.22,0.18,0.4,0.4,0.4c0.03,0,0.06-0.01,0.09-0.02l0.46,1.87l-7.82-2.09l7.55,3.41l-2.23,1.38l2.41-0.87l-1.39,6.94
			c-0.02,0-0.04-0.02-0.07-0.02c-0.29,0-0.53,0.27-0.53,0.61c0,0.27,0.15,0.49,0.36,0.57l-0.04,0.18l0.06-0.17
			c0.05,0.02,0.09,0.03,0.14,0.03c0.29,0,0.53-0.27,0.53-0.61c0-0.23-0.11-0.42-0.28-0.52l2.37-6.71l1.21,2.16
			c-0.12,0.07-0.21,0.2-0.21,0.35c0,0.22,0.18,0.4,0.4,0.4c0.22,0,0.4-0.18,0.4-0.4C32.33,98.71,32.15,98.53,31.92,98.53z"/>
	</g>
</g>
<g class="st2">
	<g>
		<path class="st0" d="M-11.82,207.96l-0.57,0.27c-0.08-0.15-0.17-0.3-0.3-0.43c-0.74-0.74-2.02-0.64-2.87,0.21
			c-0.58,0.58-0.8,1.37-0.65,2.04l-23,10.99l2.42-8.54c0.49,0.14,1.03,0.04,1.42-0.35c0.57-0.57,0.57-1.48,0-2.05
			c-0.57-0.57-1.48-0.57-2.05,0c-0.57,0.57-0.57,1.48,0,2.05c0.12,0.12,0.27,0.21,0.41,0.27l-3.53,7.51l-17.62-27.55l12.56,28.78
			l-8.33-2.36l8.31,4.04l-26.42,14.91c-0.05-0.06-0.09-0.13-0.14-0.18c-0.74-0.74-2.02-0.64-2.87,0.21
			c-0.85,0.85-0.94,2.13-0.21,2.87c0.74,0.74,2.02,0.64,2.87-0.21c0.69-0.69,0.87-1.67,0.52-2.41l28.56-10.48l-2.49,7.42
			c-0.5-0.17-1.08-0.07-1.48,0.33c-0.57,0.57-0.57,1.48,0,2.05c0.57,0.57,1.48,0.57,2.05,0c0.57-0.57,0.57-1.48,0-2.05
			c-0.09-0.09-0.19-0.13-0.29-0.19l3.58-5.92l14.53,25.1l-10.49-27.79l9.17,2.16l-8.3-3.9l21.1-14.07c0.05,0.07,0.09,0.13,0.15,0.19
			c0.74,0.74,2.02,0.64,2.87-0.21c0.68-0.68,0.86-1.63,0.54-2.36L-11.82,207.96z"/>
	</g>
</g>
</svg>
