<svg id="Layer_1" data-name="Layer 1" xmlns="http://www.w3.org/2000/svg" viewBox="0 0 1920 500"><defs><style>.cls-1{fill:#00626b;}.cls-2{fill:none;stroke:#bce2e2;stroke-miterlimit:10;opacity:0.2;isolation:isolate;}</style></defs><g id="Layer_2" data-name="Layer 2"><rect class="cls-1" y="-1" width="1920" height="502"/></g><g id="Layer_1-2" data-name="Layer 1"><polygon class="cls-2" points="856.48 1.63 894.95 -20.38 875.02 79.5 856.48 1.63"/><polygon class="cls-2" points="856.48 1.63 894.95 -20.38 797.25 -42.9 856.48 1.63"/><polygon class="cls-2" points="949.03 68.81 972.8 103.51 993.33 2.56 949.03 68.81"/><polygon class="cls-2" points="922.1 17.02 895.63 -19.94 874.96 79.78 922.1 17.02"/><polygon class="cls-2" points="922.1 17.02 895.63 -19.94 993.33 2.56 922.1 17.02"/><polygon class="cls-2" points="949.03 68.81 972.8 103.51 874.96 79.78 949.03 68.81"/><polygon class="cls-2" points="928.6 169.18 952.37 203.88 972.91 102.94 928.6 169.18"/><polygon class="cls-2" points="901.67 117.4 875.2 80.42 972.91 102.94 901.67 117.4"/><polygon class="cls-2" points="928.6 169.18 952.37 203.88 854.54 180.16 928.6 169.18"/><polygon class="cls-2" points="977.48 -79.14 1012.61 -100.27 992.06 0.68 977.48 -79.14"/><polygon class="cls-2" points="932.83 -43.83 894.36 -21.82 992.06 0.68 932.83 -43.83"/><polygon class="cls-2" points="1009.78 81.41 974.64 102.55 995.18 1.6 1009.78 81.41"/><polygon class="cls-2" points="1054.41 46.11 1092.89 24.1 1072.95 124 1054.41 46.11"/><polygon class="cls-2" points="1054.41 46.11 1092.89 24.1 995.18 1.6 1054.41 46.11"/><polygon class="cls-2" points="1009.78 81.41 974.64 102.55 1072.95 124 1009.78 81.41"/><polygon class="cls-2" points="989.35 181.81 954.21 202.92 974.76 101.98 989.35 181.81"/><polygon class="cls-2" points="1033.99 146.49 1072.46 124.48 1052.52 224.38 1033.99 146.49"/><polygon class="cls-2" points="1033.99 146.49 1072.46 124.48 974.76 101.98 1033.99 146.49"/><polygon class="cls-2" points="989.35 181.81 954.21 202.92 1052.52 224.38 989.35 181.81"/><polygon class="cls-2" points="1146.94 113.3 1170.72 148.01 1191.26 47.06 1146.94 113.3"/><polygon class="cls-2" points="1120.03 61.52 1093.56 24.57 1072.88 124.3 1120.03 61.52"/><polygon class="cls-2" points="1120.03 61.52 1093.56 24.57 1191.26 47.06 1120.03 61.52"/><polygon class="cls-2" points="1146.94 113.3 1170.72 148.01 1072.88 124.3 1146.94 113.3"/><polygon class="cls-2" points="1126.52 213.68 1150.29 248.4 1170.84 147.45 1126.52 213.68"/><polygon class="cls-2" points="1099.6 161.9 1073.14 124.95 1052.46 224.66 1099.6 161.9"/><polygon class="cls-2" points="1099.6 161.9 1073.14 124.95 1170.84 147.45 1099.6 161.9"/><polygon class="cls-2" points="1126.52 213.68 1150.29 248.4 1052.46 224.66 1126.52 213.68"/><polygon class="cls-2" points="1037.9 -64.87 1014.13 -99.57 993.57 1.38 1037.9 -64.87"/><polygon class="cls-2" points="1064.8 -13.09 1091.27 23.87 1111.95 -75.86 1064.8 -13.09"/><polygon class="cls-2" points="1064.8 -13.09 1091.27 23.87 993.57 1.38 1064.8 -13.09"/><polygon class="cls-2" points="1175.16 -33.55 1210.32 -54.69 1189.77 46.26 1175.16 -33.55"/><polygon class="cls-2" points="1130.54 1.74 1092.07 23.75 1112.02 -76.14 1130.54 1.74"/><polygon class="cls-2" points="1130.54 1.74 1092.07 23.75 1189.77 46.26 1130.54 1.74"/><polygon class="cls-2" points="914.77 222.99 949.9 201.85 929.37 302.79 914.77 222.99"/><polygon class="cls-2" points="914.77 222.99 949.9 201.85 851.6 180.4 914.77 222.99"/><polygon class="cls-2" points="975.19 237.26 951.42 202.55 930.88 303.5 975.19 237.26"/><polygon class="cls-2" points="1002.1 289.03 1028.58 326 1049.26 226.28 1002.1 289.03"/><polygon class="cls-2" points="1002.1 289.03 1028.58 326 930.88 303.5 1002.1 289.03"/><polygon class="cls-2" points="975.19 237.26 951.42 202.55 1049.26 226.28 975.19 237.26"/><polygon class="cls-2" points="1112.47 268.58 1147.62 247.44 1127.06 348.38 1112.47 268.58"/><polygon class="cls-2" points="1067.85 303.87 1029.37 325.89 1049.31 225.98 1067.85 303.87"/><polygon class="cls-2" points="1067.85 303.87 1029.37 325.89 1127.06 348.38 1067.85 303.87"/><polygon class="cls-2" points="1112.47 268.58 1147.62 247.44 1049.31 225.98 1112.47 268.58"/><polygon class="cls-2" points="990.5 347.96 1028.98 325.95 931.27 303.44 990.5 347.96"/><polygon class="cls-2" points="1056.12 363.37 1029.65 326.41 1127.35 348.92 1056.12 363.37"/><polygon class="cls-2" points="1405.55 171.63 1370.41 192.76 1390.95 91.81 1405.55 171.63"/><polygon class="cls-2" points="1450.18 136.32 1488.66 114.31 1468.71 214.21 1450.18 136.32"/><polygon class="cls-2" points="1450.18 136.32 1488.66 114.31 1390.95 91.81 1450.18 136.32"/><polygon class="cls-2" points="1405.55 171.63 1370.41 192.76 1468.71 214.21 1405.55 171.63"/><polygon class="cls-2" points="1385.14 271.99 1349.98 293.13 1370.53 192.18 1385.14 271.99"/><polygon class="cls-2" points="1429.76 236.7 1468.23 214.69 1448.28 314.58 1429.76 236.7"/><polygon class="cls-2" points="1429.76 236.7 1468.23 214.69 1370.53 192.18 1429.76 236.7"/><polygon class="cls-2" points="1385.14 271.99 1349.98 293.13 1448.28 314.58 1385.14 271.99"/><polygon class="cls-2" points="1542.71 203.51 1566.48 238.22 1587.02 137.27 1542.71 203.51"/><polygon class="cls-2" points="1515.8 151.73 1489.33 114.75 1468.64 214.49 1515.8 151.73"/><polygon class="cls-2" points="1515.8 151.73 1489.33 114.75 1587.02 137.27 1515.8 151.73"/><polygon class="cls-2" points="1542.71 203.51 1566.48 238.22 1468.64 214.49 1542.71 203.51"/><polygon class="cls-2" points="1522.28 303.88 1546.05 338.59 1566.61 237.64 1522.28 303.88"/><polygon class="cls-2" points="1495.37 252.11 1468.91 215.13 1448.22 314.87 1495.37 252.11"/><polygon class="cls-2" points="1495.37 252.11 1468.91 215.13 1566.61 237.64 1495.37 252.11"/><polygon class="cls-2" points="1522.28 303.88 1546.05 338.59 1448.22 314.87 1522.28 303.88"/><polygon class="cls-2" points="1601.58 217.33 1566.43 238.47 1586.98 137.53 1601.58 217.33"/><polygon class="cls-2" points="1646.2 182.04 1684.67 160.03 1664.74 259.93 1646.2 182.04"/><polygon class="cls-2" points="1646.2 182.04 1684.67 160.03 1586.98 137.53 1646.2 182.04"/><polygon class="cls-2" points="1601.58 217.33 1566.43 238.47 1664.74 259.93 1601.58 217.33"/><polygon class="cls-2" points="1581.15 317.71 1546.01 338.85 1566.55 237.9 1581.15 317.71"/><polygon class="cls-2" points="1625.77 282.42 1664.25 260.41 1644.31 360.3 1625.77 282.42"/><polygon class="cls-2" points="1625.77 282.42 1664.25 260.41 1566.55 237.9 1625.77 282.42"/><polygon class="cls-2" points="1581.15 317.71 1546.01 338.85 1644.31 360.3 1581.15 317.71"/><polygon class="cls-2" points="1738.72 249.23 1762.5 283.92 1783.05 182.99 1738.72 249.23"/><polygon class="cls-2" points="1711.83 197.45 1685.36 160.47 1664.67 260.2 1711.83 197.45"/><polygon class="cls-2" points="1711.83 197.45 1685.36 160.47 1783.05 182.99 1711.83 197.45"/><polygon class="cls-2" points="1738.72 249.23 1762.5 283.92 1664.67 260.2 1738.72 249.23"/><polygon class="cls-2" points="1718.31 349.6 1742.08 384.3 1762.62 283.35 1718.31 349.6"/><polygon class="cls-2" points="1691.4 297.83 1664.92 260.85 1644.24 360.58 1691.4 297.83"/><polygon class="cls-2" points="1691.4 297.83 1664.92 260.85 1762.62 283.35 1691.4 297.83"/><polygon class="cls-2" points="1718.31 349.6 1742.08 384.3 1644.24 360.58 1718.31 349.6"/><polygon class="cls-2" points="1489.71 -66.06 1528.19 -88.07 1508.24 11.82 1489.71 -66.06"/><polygon class="cls-2" points="1445.08 -30.77 1409.94 -9.63 1508.24 11.82 1445.08 -30.77"/><polygon class="cls-2" points="1433.66 25.32 1409.89 -9.37 1389.34 91.57 1433.66 25.32"/><polygon class="cls-2" points="1460.56 77.1 1487.03 114.08 1507.72 14.35 1460.56 77.1"/><polygon class="cls-2" points="1460.56 77.1 1487.03 114.08 1389.34 91.57 1460.56 77.1"/><polygon class="cls-2" points="1433.66 25.32 1409.89 -9.37 1507.72 14.35 1433.66 25.32"/><polygon class="cls-2" points="1582.24 1.12 1606.01 35.83 1626.55 -65.13 1582.24 1.12"/><polygon class="cls-2" points="1555.33 -50.66 1528.86 -87.61 1508.17 12.09 1555.33 -50.66"/><polygon class="cls-2" points="1582.24 1.12 1606.01 35.83 1508.17 12.09 1582.24 1.12"/><polygon class="cls-2" points="1570.93 56.65 1606.09 35.51 1585.54 136.45 1570.93 56.65"/><polygon class="cls-2" points="1526.31 91.94 1487.84 113.96 1507.78 14.08 1526.31 91.94"/><polygon class="cls-2" points="1526.31 91.94 1487.84 113.96 1585.54 136.45 1526.31 91.94"/><polygon class="cls-2" points="1570.93 56.65 1606.09 35.51 1507.78 14.08 1570.93 56.65"/><polygon class="cls-2" points="1641.1 14.95 1605.96 36.09 1626.51 -64.87 1641.1 14.95"/><polygon class="cls-2" points="1685.73 -20.36 1724.2 -42.37 1704.27 57.53 1685.73 -20.36"/><polygon class="cls-2" points="1641.1 14.95 1605.96 36.09 1704.27 57.53 1641.1 14.95"/><polygon class="cls-2" points="1629.91 69.97 1606.14 35.25 1585.58 136.19 1629.91 69.97"/><polygon class="cls-2" points="1656.82 121.74 1683.28 158.71 1703.97 58.98 1656.82 121.74"/><polygon class="cls-2" points="1656.82 121.74 1683.28 158.71 1585.58 136.19 1656.82 121.74"/><polygon class="cls-2" points="1629.91 69.97 1606.14 35.25 1703.97 58.98 1629.91 69.97"/><polygon class="cls-2" points="1778.26 46.84 1802.04 81.54 1822.58 -19.41 1778.26 46.84"/><polygon class="cls-2" points="1751.36 -4.95 1724.88 -41.9 1704.2 57.81 1751.36 -4.95"/><polygon class="cls-2" points="1778.26 46.84 1802.04 81.54 1704.2 57.81 1778.26 46.84"/><polygon class="cls-2" points="1767.17 101.28 1802.31 80.15 1781.78 181.1 1767.17 101.28"/><polygon class="cls-2" points="1722.55 136.58 1684.09 158.59 1704.03 58.7 1722.55 136.58"/><polygon class="cls-2" points="1722.55 136.58 1684.09 158.59 1781.78 181.1 1722.55 136.58"/><polygon class="cls-2" points="1767.17 101.28 1802.31 80.15 1704.03 58.7 1767.17 101.28"/><polygon class="cls-2" points="1207.54 127.53 1172.4 148.67 1192.93 47.72 1207.54 127.53"/><polygon class="cls-2" points="1252.17 92.24 1290.63 70.23 1270.7 170.12 1252.17 92.24"/><polygon class="cls-2" points="1252.17 92.24 1290.63 70.23 1192.93 47.72 1252.17 92.24"/><polygon class="cls-2" points="1207.54 127.53 1172.4 148.67 1270.7 170.12 1207.54 127.53"/><polygon class="cls-2" points="1187.11 227.9 1151.97 249.05 1172.5 148.1 1187.11 227.9"/><polygon class="cls-2" points="1231.75 192.61 1270.21 170.6 1250.27 270.5 1231.75 192.61"/><polygon class="cls-2" points="1231.75 192.61 1270.21 170.6 1172.5 148.1 1231.75 192.61"/><polygon class="cls-2" points="1187.11 227.9 1151.97 249.05 1250.27 270.5 1187.11 227.9"/><polygon class="cls-2" points="1344.71 159.42 1368.48 194.13 1389.02 93.18 1344.71 159.42"/><polygon class="cls-2" points="1317.78 107.65 1291.32 70.67 1270.64 170.41 1317.78 107.65"/><polygon class="cls-2" points="1317.78 107.65 1291.32 70.67 1389.02 93.18 1317.78 107.65"/><polygon class="cls-2" points="1344.71 159.42 1368.48 194.13 1270.64 170.41 1344.71 159.42"/><polygon class="cls-2" points="1324.28 259.8 1348.05 294.49 1368.6 193.56 1324.28 259.8"/><polygon class="cls-2" points="1297.35 208.02 1270.91 171.04 1250.22 270.77 1297.35 208.02"/><polygon class="cls-2" points="1297.35 208.02 1270.91 171.04 1368.6 193.56 1297.35 208.02"/><polygon class="cls-2" points="1324.28 259.8 1348.05 294.49 1250.22 270.77 1324.28 259.8"/><polygon class="cls-2" points="1235.66 -18.76 1211.88 -53.47 1191.33 47.48 1235.66 -18.76"/><polygon class="cls-2" points="1262.56 33.01 1289.03 69.99 1309.7 -29.74 1262.56 33.01"/><polygon class="cls-2" points="1262.56 33.01 1289.03 69.99 1191.33 47.48 1262.56 33.01"/><polygon class="cls-2" points="1372.92 12.56 1408.06 -8.58 1387.53 92.37 1372.92 12.56"/><polygon class="cls-2" points="1328.29 47.87 1289.84 69.88 1309.78 -30.02 1328.29 47.87"/><polygon class="cls-2" points="1328.29 47.87 1289.84 69.88 1387.53 92.37 1328.29 47.87"/><polygon class="cls-2" points="1372.92 12.56 1408.06 -8.58 1309.78 -30.02 1372.92 12.56"/><polygon class="cls-2" points="1799.5 261.82 1764.37 282.96 1784.91 182.03 1799.5 261.82"/><polygon class="cls-2" points="1844.13 226.53 1882.59 204.53 1862.65 304.43 1844.13 226.53"/><polygon class="cls-2" points="1844.13 226.53 1882.59 204.53 1784.91 182.03 1844.13 226.53"/><polygon class="cls-2" points="1799.5 261.82 1764.37 282.96 1862.65 304.43 1799.5 261.82"/><polygon class="cls-2" points="1779.07 362.2 1743.94 383.34 1764.49 282.39 1779.07 362.2"/><polygon class="cls-2" points="1823.72 326.91 1862.17 304.91 1842.23 404.79 1823.72 326.91"/><polygon class="cls-2" points="1823.72 326.91 1862.17 304.91 1764.49 282.39 1823.72 326.91"/><polygon class="cls-2" points="1779.07 362.2 1743.94 383.34 1842.23 404.79 1779.07 362.2"/><polygon class="cls-2" points="1909.75 265.64 1883.29 228.68 1862.6 328.39 1909.75 265.64"/><polygon class="cls-2" points="1909.75 265.64 1883.29 228.68 1980.98 251.16 1909.75 265.64"/><polygon class="cls-2" points="1936.66 317.41 1960.44 352.12 1862.6 328.39 1936.66 317.41"/><polygon class="cls-2" points="1916.24 417.79 1940.01 452.48 1960.57 351.55 1916.24 417.79"/><polygon class="cls-2" points="1889.32 342.33 1862.86 305.36 1842.17 405.09 1889.32 342.33"/><polygon class="cls-2" points="1889.32 366.01 1862.86 329.06 1960.57 351.55 1889.32 366.01"/><polygon class="cls-2" points="1916.24 394.09 1940.01 428.8 1842.17 405.09 1916.24 394.09"/><polygon class="cls-2" points="1839.03 59.46 1803.9 80.59 1824.42 -20.36 1839.03 59.46"/><polygon class="cls-2" points="1883.65 47.84 1922.12 25.83 1902.18 125.71 1883.65 47.84"/><polygon class="cls-2" points="1883.65 24.14 1922.12 2.13 1824.42 -20.36 1883.65 24.14"/><polygon class="cls-2" points="1839.03 59.46 1803.9 80.59 1902.18 102.03 1839.03 59.46"/><polygon class="cls-2" points="1827.62 115.56 1803.85 80.84 1783.3 181.78 1827.62 115.56"/><polygon class="cls-2" points="1854.52 191.02 1880.99 227.98 1901.67 128.25 1854.52 191.02"/><polygon class="cls-2" points="1854.52 167.33 1880.99 204.29 1783.3 181.78 1854.52 167.33"/><polygon class="cls-2" points="1827.62 115.56 1803.85 80.84 1901.67 104.56 1827.62 115.56"/><polygon class="cls-2" points="1949.28 63.25 1922.8 26.28 1902.13 126.01 1949.28 63.25"/><polygon class="cls-2" points="1976.2 115.02 1999.97 149.73 1902.13 126.01 1976.2 115.02"/><polygon class="cls-2" points="1920.25 205.86 1881.8 227.87 1901.73 127.97 1920.25 205.86"/><polygon class="cls-2" points="1920.25 205.86 1881.8 227.87 1979.49 250.37 1920.25 205.86"/><polygon class="cls-2" points="1964.88 170.56 2000.02 149.42 1901.73 127.97 1964.88 170.56"/><polygon class="cls-2" points="1370.96 327.46 1347.18 292.77 1326.63 393.7 1370.96 327.46"/><polygon class="cls-2" points="1397.87 379.24 1424.34 416.19 1445.03 316.48 1397.87 379.24"/><polygon class="cls-2" points="1397.87 379.24 1424.34 416.19 1326.63 393.7 1397.87 379.24"/><polygon class="cls-2" points="1370.96 327.46 1347.18 292.77 1445.03 316.48 1370.96 327.46"/><polygon class="cls-2" points="1508.23 358.79 1543.38 337.65 1522.83 438.59 1508.23 358.79"/><polygon class="cls-2" points="1463.6 394.08 1425.13 416.09 1445.08 316.19 1463.6 394.08"/><polygon class="cls-2" points="1463.6 394.08 1425.13 416.09 1522.83 438.59 1463.6 394.08"/><polygon class="cls-2" points="1508.23 358.79 1543.38 337.65 1445.08 316.19 1508.23 358.79"/><polygon class="cls-2" points="1567.22 372.09 1543.43 337.39 1522.89 438.33 1567.22 372.09"/><polygon class="cls-2" points="1594.12 423.87 1620.59 460.85 1641.27 361.11 1594.12 423.87"/><polygon class="cls-2" points="1594.12 423.87 1620.59 460.85 1522.89 438.33 1594.12 423.87"/><polygon class="cls-2" points="1567.22 372.09 1543.43 337.39 1641.27 361.11 1567.22 372.09"/><polygon class="cls-2" points="1704.48 403.42 1739.62 382.26 1719.09 483.22 1704.48 403.42"/><polygon class="cls-2" points="1659.86 438.71 1621.38 460.71 1641.32 360.82 1659.86 438.71"/><polygon class="cls-2" points="1659.86 438.71 1621.38 460.71 1719.09 483.22 1659.86 438.71"/><polygon class="cls-2" points="1704.48 403.42 1739.62 382.26 1641.32 360.82 1704.48 403.42"/><polygon class="cls-2" points="1172.95 283.38 1149.18 248.67 1128.64 349.62 1172.95 283.38"/><polygon class="cls-2" points="1199.86 335.15 1226.34 372.11 1247 272.39 1199.86 335.15"/><polygon class="cls-2" points="1199.86 335.15 1226.34 372.11 1128.64 349.62 1199.86 335.15"/><polygon class="cls-2" points="1172.95 283.38 1149.18 248.67 1247 272.39 1172.95 283.38"/><polygon class="cls-2" points="1310.23 314.7 1345.37 293.56 1324.83 394.51 1310.23 314.7"/><polygon class="cls-2" points="1265.58 349.99 1227.13 372 1247.07 272.11 1265.58 349.99"/><polygon class="cls-2" points="1265.58 349.99 1227.13 372 1324.83 394.51 1265.58 349.99"/><polygon class="cls-2" points="1310.23 314.7 1345.37 293.56 1247.07 272.11 1310.23 314.7"/><polygon class="cls-2" points="1764.92 417.67 1741.14 382.98 1720.59 483.92 1764.92 417.67"/><polygon class="cls-2" points="1791.83 469.45 1818.3 506.43 1838.96 406.7 1791.83 469.45"/><polygon class="cls-2" points="1791.83 469.45 1818.3 506.43 1720.59 483.92 1791.83 469.45"/><polygon class="cls-2" points="1764.92 417.67 1741.14 382.98 1838.96 406.7 1764.92 417.67"/><polygon class="cls-2" points="1902.18 472.69 1937.33 451.55 1916.79 552.5 1902.18 472.69"/><polygon class="cls-2" points="1857.55 484.29 1819.09 506.3 1839.03 406.4 1857.55 484.29"/><polygon class="cls-2" points="1857.55 484.29 1819.09 506.3 1916.79 528.8 1857.55 484.29"/><polygon class="cls-2" points="1902.18 448.99 1937.33 427.85 1839.03 406.4 1902.18 448.99"/><polygon class="cls-2" points="1341.64 473.46 1306.49 494.6 1327.03 393.65 1341.64 473.46"/><polygon class="cls-2" points="1386.26 438.16 1424.73 416.17 1404.8 516.05 1386.26 438.16"/><polygon class="cls-2" points="1386.26 438.16 1424.73 416.17 1327.03 393.65 1386.26 438.16"/><polygon class="cls-2" points="1341.64 473.46 1306.49 494.6 1404.8 516.05 1341.64 473.46"/><polygon class="cls-2" points="1478.81 505.35 1502.58 540.06 1523.11 439.11 1478.81 505.35"/><polygon class="cls-2" points="1451.88 453.57 1425.41 416.61 1404.74 516.33 1451.88 453.57"/><polygon class="cls-2" points="1451.88 453.57 1425.41 416.61 1523.11 439.11 1451.88 453.57"/><polygon class="cls-2" points="1537.67 519.18 1502.53 540.32 1523.06 439.37 1537.67 519.18"/><polygon class="cls-2" points="1582.29 483.88 1620.76 461.87 1600.82 561.77 1582.29 483.88"/><polygon class="cls-2" points="1582.29 483.88 1620.76 461.87 1523.06 439.37 1582.29 483.88"/><polygon class="cls-2" points="1674.82 551.07 1698.61 585.78 1719.14 484.83 1674.82 551.07"/><polygon class="cls-2" points="1647.91 499.29 1621.44 462.32 1600.77 562.04 1647.91 499.29"/><polygon class="cls-2" points="1647.91 499.29 1621.44 462.32 1719.14 484.83 1647.91 499.29"/><polygon class="cls-2" points="1143.63 429.37 1108.49 450.51 1129.03 349.56 1143.63 429.37"/><polygon class="cls-2" points="1188.26 394.08 1226.74 372.07 1206.8 471.96 1188.26 394.08"/><polygon class="cls-2" points="1188.26 394.08 1226.74 372.07 1129.03 349.56 1188.26 394.08"/><polygon class="cls-2" points="1143.63 429.37 1108.49 450.51 1206.8 471.96 1143.63 429.37"/><polygon class="cls-2" points="1280.78 461.26 1304.57 495.97 1325.11 395.02 1280.78 461.26"/><polygon class="cls-2" points="1253.88 409.49 1227.41 372.51 1206.72 472.25 1253.88 409.49"/><polygon class="cls-2" points="1253.88 409.49 1227.41 372.51 1325.11 395.02 1253.88 409.49"/><polygon class="cls-2" points="1280.78 461.26 1304.57 495.97 1206.72 472.25 1280.78 461.26"/><polygon class="cls-2" points="1735.59 563.68 1700.45 584.82 1720.99 483.87 1735.59 563.68"/><polygon class="cls-2" points="1780.22 528.38 1818.69 506.37 1720.99 483.87 1780.22 528.38"/><polygon class="cls-2" points="1327.47 528.93 1303.7 494.23 1283.16 595.18 1327.47 528.93"/><polygon class="cls-2" points="1327.47 528.93 1303.7 494.23 1401.53 517.94 1327.47 528.93"/><polygon class="cls-2" points="1156.37 536.62 1182.84 573.57 1203.53 473.87 1156.37 536.62"/><polygon class="cls-2" points="1129.47 484.84 1105.69 450.15 1203.53 473.87 1129.47 484.84"/><polygon class="cls-2" points="1266.73 516.17 1301.87 495.03 1281.34 595.97 1266.73 516.17"/><polygon class="cls-2" points="1222.11 551.46 1183.64 573.47 1203.57 473.57 1222.11 551.46"/><polygon class="cls-2" points="1266.73 516.17 1301.87 495.03 1203.57 473.57 1266.73 516.17"/><polygon class="cls-2" points="856.48 1.63 894.95 -20.38 875.02 79.5 856.48 1.63"/><polygon class="cls-2" points="856.48 1.63 894.95 -20.38 797.25 -42.9 856.48 1.63"/><polygon class="cls-2" points="949.03 68.81 972.8 103.51 993.33 2.56 949.03 68.81"/><polygon class="cls-2" points="922.1 17.02 895.63 -19.94 874.96 79.78 922.1 17.02"/><polygon class="cls-2" points="922.1 17.02 895.63 -19.94 993.33 2.56 922.1 17.02"/><polygon class="cls-2" points="949.03 68.81 972.8 103.51 874.96 79.78 949.03 68.81"/><polygon class="cls-2" points="928.6 169.18 952.37 203.88 972.91 102.94 928.6 169.18"/><polygon class="cls-2" points="901.67 117.4 875.2 80.42 972.91 102.94 901.67 117.4"/><polygon class="cls-2" points="928.6 169.18 952.37 203.88 854.54 180.16 928.6 169.18"/><polygon class="cls-2" points="977.48 -79.14 1012.61 -100.27 992.06 0.68 977.48 -79.14"/><polygon class="cls-2" points="932.83 -43.83 894.36 -21.82 992.06 0.68 932.83 -43.83"/><polygon class="cls-2" points="1009.78 81.41 974.64 102.55 995.18 1.6 1009.78 81.41"/><polygon class="cls-2" points="1054.41 46.11 1092.89 24.1 1072.95 124 1054.41 46.11"/><polygon class="cls-2" points="1054.41 46.11 1092.89 24.1 995.18 1.6 1054.41 46.11"/><polygon class="cls-2" points="1009.78 81.41 974.64 102.55 1072.95 124 1009.78 81.41"/><polygon class="cls-2" points="989.35 181.81 954.21 202.92 974.76 101.98 989.35 181.81"/><polygon class="cls-2" points="1033.99 146.49 1072.46 124.48 1052.52 224.38 1033.99 146.49"/><polygon class="cls-2" points="1033.99 146.49 1072.46 124.48 974.76 101.98 1033.99 146.49"/><polygon class="cls-2" points="989.35 181.81 954.21 202.92 1052.52 224.38 989.35 181.81"/><polygon class="cls-2" points="1146.94 113.3 1170.72 148.01 1191.26 47.06 1146.94 113.3"/><polygon class="cls-2" points="1120.03 61.52 1093.56 24.57 1072.88 124.3 1120.03 61.52"/><polygon class="cls-2" points="1120.03 61.52 1093.56 24.57 1191.26 47.06 1120.03 61.52"/><polygon class="cls-2" points="1146.94 113.3 1170.72 148.01 1072.88 124.3 1146.94 113.3"/><polygon class="cls-2" points="1126.52 213.68 1150.29 248.4 1170.84 147.45 1126.52 213.68"/><polygon class="cls-2" points="1099.6 161.9 1073.14 124.95 1052.46 224.66 1099.6 161.9"/><polygon class="cls-2" points="1099.6 161.9 1073.14 124.95 1170.84 147.45 1099.6 161.9"/><polygon class="cls-2" points="1126.52 213.68 1150.29 248.4 1052.46 224.66 1126.52 213.68"/><polygon class="cls-2" points="1037.9 -64.87 1014.13 -99.57 993.57 1.38 1037.9 -64.87"/><polygon class="cls-2" points="1064.8 -13.09 1091.27 23.87 1111.95 -75.86 1064.8 -13.09"/><polygon class="cls-2" points="1064.8 -13.09 1091.27 23.87 993.57 1.38 1064.8 -13.09"/><polygon class="cls-2" points="1175.16 -33.55 1210.32 -54.69 1189.77 46.26 1175.16 -33.55"/><polygon class="cls-2" points="1130.54 1.74 1092.07 23.75 1112.02 -76.14 1130.54 1.74"/><polygon class="cls-2" points="1130.54 1.74 1092.07 23.75 1189.77 46.26 1130.54 1.74"/><polygon class="cls-2" points="914.77 222.99 949.9 201.85 929.37 302.79 914.77 222.99"/><polygon class="cls-2" points="914.77 222.99 949.9 201.85 851.6 180.4 914.77 222.99"/><polygon class="cls-2" points="975.19 237.26 951.42 202.55 930.88 303.5 975.19 237.26"/><polygon class="cls-2" points="1002.1 289.03 1028.58 326 1049.26 226.28 1002.1 289.03"/><polygon class="cls-2" points="1002.1 289.03 1028.58 326 930.88 303.5 1002.1 289.03"/><polygon class="cls-2" points="975.19 237.26 951.42 202.55 1049.26 226.28 975.19 237.26"/><polygon class="cls-2" points="1112.47 268.58 1147.62 247.44 1127.06 348.38 1112.47 268.58"/><polygon class="cls-2" points="1067.85 303.87 1029.37 325.89 1049.31 225.98 1067.85 303.87"/><polygon class="cls-2" points="1067.85 303.87 1029.37 325.89 1127.06 348.38 1067.85 303.87"/><polygon class="cls-2" points="1112.47 268.58 1147.62 247.44 1049.31 225.98 1112.47 268.58"/><polygon class="cls-2" points="990.5 347.96 1028.98 325.95 931.27 303.44 990.5 347.96"/><polygon class="cls-2" points="1056.12 363.37 1029.65 326.41 1127.35 348.92 1056.12 363.37"/><polygon class="cls-2" points="1405.55 171.63 1370.41 192.76 1390.95 91.81 1405.55 171.63"/><polygon class="cls-2" points="1450.18 136.32 1488.66 114.31 1468.71 214.21 1450.18 136.32"/><polygon class="cls-2" points="1450.18 136.32 1488.66 114.31 1390.95 91.81 1450.18 136.32"/><polygon class="cls-2" points="1405.55 171.63 1370.41 192.76 1468.71 214.21 1405.55 171.63"/><polygon class="cls-2" points="1385.14 271.99 1349.98 293.13 1370.53 192.18 1385.14 271.99"/><polygon class="cls-2" points="1429.76 236.7 1468.23 214.69 1448.28 314.58 1429.76 236.7"/><polygon class="cls-2" points="1429.76 236.7 1468.23 214.69 1370.53 192.18 1429.76 236.7"/><polygon class="cls-2" points="1385.14 271.99 1349.98 293.13 1448.28 314.58 1385.14 271.99"/><polygon class="cls-2" points="1542.71 203.51 1566.48 238.22 1587.02 137.27 1542.71 203.51"/><polygon class="cls-2" points="1515.8 151.73 1489.33 114.75 1468.64 214.49 1515.8 151.73"/><polygon class="cls-2" points="1515.8 151.73 1489.33 114.75 1587.02 137.27 1515.8 151.73"/><polygon class="cls-2" points="1542.71 203.51 1566.48 238.22 1468.64 214.49 1542.71 203.51"/><polygon class="cls-2" points="1522.28 303.88 1546.05 338.59 1566.61 237.64 1522.28 303.88"/><polygon class="cls-2" points="1495.37 252.11 1468.91 215.13 1448.22 314.87 1495.37 252.11"/><polygon class="cls-2" points="1495.37 252.11 1468.91 215.13 1566.61 237.64 1495.37 252.11"/><polygon class="cls-2" points="1522.28 303.88 1546.05 338.59 1448.22 314.87 1522.28 303.88"/><polygon class="cls-2" points="1601.58 217.33 1566.43 238.47 1586.98 137.53 1601.58 217.33"/><polygon class="cls-2" points="1646.2 182.04 1684.67 160.03 1664.74 259.93 1646.2 182.04"/><polygon class="cls-2" points="1646.2 182.04 1684.67 160.03 1586.98 137.53 1646.2 182.04"/><polygon class="cls-2" points="1601.58 217.33 1566.43 238.47 1664.74 259.93 1601.58 217.33"/><polygon class="cls-2" points="1581.15 317.71 1546.01 338.85 1566.55 237.9 1581.15 317.71"/><polygon class="cls-2" points="1625.77 282.42 1664.25 260.41 1644.31 360.3 1625.77 282.42"/><polygon class="cls-2" points="1625.77 282.42 1664.25 260.41 1566.55 237.9 1625.77 282.42"/><polygon class="cls-2" points="1581.15 317.71 1546.01 338.85 1644.31 360.3 1581.15 317.71"/><polygon class="cls-2" points="1738.72 249.23 1762.5 283.92 1783.05 182.99 1738.72 249.23"/><polygon class="cls-2" points="1711.83 197.45 1685.36 160.47 1664.67 260.2 1711.83 197.45"/><polygon class="cls-2" points="1711.83 197.45 1685.36 160.47 1783.05 182.99 1711.83 197.45"/><polygon class="cls-2" points="1738.72 249.23 1762.5 283.92 1664.67 260.2 1738.72 249.23"/><polygon class="cls-2" points="1718.31 349.6 1742.08 384.3 1762.62 283.35 1718.31 349.6"/><polygon class="cls-2" points="1691.4 297.83 1664.92 260.85 1644.24 360.58 1691.4 297.83"/><polygon class="cls-2" points="1691.4 297.83 1664.92 260.85 1762.62 283.35 1691.4 297.83"/><polygon class="cls-2" points="1718.31 349.6 1742.08 384.3 1644.24 360.58 1718.31 349.6"/><polygon class="cls-2" points="1489.71 -66.06 1528.19 -88.07 1508.24 11.82 1489.71 -66.06"/><polygon class="cls-2" points="1445.08 -30.77 1409.94 -9.63 1508.24 11.82 1445.08 -30.77"/><polygon class="cls-2" points="1433.66 25.32 1409.89 -9.37 1389.34 91.57 1433.66 25.32"/><polygon class="cls-2" points="1460.56 77.1 1487.03 114.08 1507.72 14.35 1460.56 77.1"/><polygon class="cls-2" points="1460.56 77.1 1487.03 114.08 1389.34 91.57 1460.56 77.1"/><polygon class="cls-2" points="1433.66 25.32 1409.89 -9.37 1507.72 14.35 1433.66 25.32"/><polygon class="cls-2" points="1582.24 1.12 1606.01 35.83 1626.55 -65.13 1582.24 1.12"/><polygon class="cls-2" points="1555.33 -50.66 1528.86 -87.61 1508.17 12.09 1555.33 -50.66"/><polygon class="cls-2" points="1582.24 1.12 1606.01 35.83 1508.17 12.09 1582.24 1.12"/><polygon class="cls-2" points="1570.93 56.65 1606.09 35.51 1585.54 136.45 1570.93 56.65"/><polygon class="cls-2" points="1526.31 91.94 1487.84 113.96 1507.78 14.08 1526.31 91.94"/><polygon class="cls-2" points="1526.31 91.94 1487.84 113.96 1585.54 136.45 1526.31 91.94"/><polygon class="cls-2" points="1570.93 56.65 1606.09 35.51 1507.78 14.08 1570.93 56.65"/><polygon class="cls-2" points="1641.1 14.95 1605.96 36.09 1626.51 -64.87 1641.1 14.95"/><polygon class="cls-2" points="1685.73 -20.36 1724.2 -42.37 1704.27 57.53 1685.73 -20.36"/><polygon class="cls-2" points="1641.1 14.95 1605.96 36.09 1704.27 57.53 1641.1 14.95"/><polygon class="cls-2" points="1629.91 69.97 1606.14 35.25 1585.58 136.19 1629.91 69.97"/><polygon class="cls-2" points="1656.82 121.74 1683.28 158.71 1703.97 58.98 1656.82 121.74"/><polygon class="cls-2" points="1656.82 121.74 1683.28 158.71 1585.58 136.19 1656.82 121.74"/><polygon class="cls-2" points="1629.91 69.97 1606.14 35.25 1703.97 58.98 1629.91 69.97"/><polygon class="cls-2" points="1778.26 46.84 1802.04 81.54 1822.58 -19.41 1778.26 46.84"/><polygon class="cls-2" points="1751.36 -4.95 1724.88 -41.9 1704.2 57.81 1751.36 -4.95"/><polygon class="cls-2" points="1778.26 46.84 1802.04 81.54 1704.2 57.81 1778.26 46.84"/><polygon class="cls-2" points="1767.17 101.28 1802.31 80.15 1781.78 181.1 1767.17 101.28"/><polygon class="cls-2" points="1722.55 136.58 1684.09 158.59 1704.03 58.7 1722.55 136.58"/><polygon class="cls-2" points="1722.55 136.58 1684.09 158.59 1781.78 181.1 1722.55 136.58"/><polygon class="cls-2" points="1767.17 101.28 1802.31 80.15 1704.03 58.7 1767.17 101.28"/><polygon class="cls-2" points="1207.54 127.53 1172.4 148.67 1192.93 47.72 1207.54 127.53"/><polygon class="cls-2" points="1252.17 92.24 1290.63 70.23 1270.7 170.12 1252.17 92.24"/><polygon class="cls-2" points="1252.17 92.24 1290.63 70.23 1192.93 47.72 1252.17 92.24"/><polygon class="cls-2" points="1207.54 127.53 1172.4 148.67 1270.7 170.12 1207.54 127.53"/><polygon class="cls-2" points="1187.11 227.9 1151.97 249.05 1172.5 148.1 1187.11 227.9"/><polygon class="cls-2" points="1231.75 192.61 1270.21 170.6 1250.27 270.5 1231.75 192.61"/><polygon class="cls-2" points="1231.75 192.61 1270.21 170.6 1172.5 148.1 1231.75 192.61"/><polygon class="cls-2" points="1187.11 227.9 1151.97 249.05 1250.27 270.5 1187.11 227.9"/><polygon class="cls-2" points="1344.71 159.42 1368.48 194.13 1389.02 93.18 1344.71 159.42"/><polygon class="cls-2" points="1317.78 107.65 1291.32 70.67 1270.64 170.41 1317.78 107.65"/><polygon class="cls-2" points="1317.78 107.65 1291.32 70.67 1389.02 93.18 1317.78 107.65"/><polygon class="cls-2" points="1344.71 159.42 1368.48 194.13 1270.64 170.41 1344.71 159.42"/><polygon class="cls-2" points="1324.28 259.8 1348.05 294.49 1368.6 193.56 1324.28 259.8"/><polygon class="cls-2" points="1297.35 208.02 1270.91 171.04 1250.22 270.77 1297.35 208.02"/><polygon class="cls-2" points="1297.35 208.02 1270.91 171.04 1368.6 193.56 1297.35 208.02"/><polygon class="cls-2" points="1324.28 259.8 1348.05 294.49 1250.22 270.77 1324.28 259.8"/><polygon class="cls-2" points="1235.66 -18.76 1211.88 -53.47 1191.33 47.48 1235.66 -18.76"/><polygon class="cls-2" points="1262.56 33.01 1289.03 69.99 1309.7 -29.74 1262.56 33.01"/><polygon class="cls-2" points="1262.56 33.01 1289.03 69.99 1191.33 47.48 1262.56 33.01"/><polygon class="cls-2" points="1372.92 12.56 1408.06 -8.58 1387.53 92.37 1372.92 12.56"/><polygon class="cls-2" points="1328.29 47.87 1289.84 69.88 1309.78 -30.02 1328.29 47.87"/><polygon class="cls-2" points="1328.29 47.87 1289.84 69.88 1387.53 92.37 1328.29 47.87"/><polygon class="cls-2" points="1372.92 12.56 1408.06 -8.58 1309.78 -30.02 1372.92 12.56"/><polygon class="cls-2" points="1799.5 261.82 1764.37 282.96 1784.91 182.03 1799.5 261.82"/><polygon class="cls-2" points="1844.13 226.53 1882.59 204.53 1862.65 304.43 1844.13 226.53"/><polygon class="cls-2" points="1844.13 226.53 1882.59 204.53 1784.91 182.03 1844.13 226.53"/><polygon class="cls-2" points="1799.5 261.82 1764.37 282.96 1862.65 304.43 1799.5 261.82"/><polygon class="cls-2" points="1779.07 362.2 1743.94 383.34 1764.49 282.39 1779.07 362.2"/><polygon class="cls-2" points="1823.72 326.91 1862.17 304.91 1842.23 404.79 1823.72 326.91"/><polygon class="cls-2" points="1823.72 326.91 1862.17 304.91 1764.49 282.39 1823.72 326.91"/><polygon class="cls-2" points="1779.07 362.2 1743.94 383.34 1842.23 404.79 1779.07 362.2"/><polygon class="cls-2" points="1909.75 265.64 1883.29 228.68 1862.6 328.39 1909.75 265.64"/><polygon class="cls-2" points="1909.75 265.64 1883.29 228.68 1980.98 251.16 1909.75 265.64"/><polygon class="cls-2" points="1936.66 317.41 1960.44 352.12 1862.6 328.39 1936.66 317.41"/><polygon class="cls-2" points="1916.24 417.79 1940.01 452.48 1960.57 351.55 1916.24 417.79"/><polygon class="cls-2" points="1889.32 342.33 1862.86 305.36 1842.17 405.09 1889.32 342.33"/><polygon class="cls-2" points="1889.32 366.01 1862.86 329.06 1960.57 351.55 1889.32 366.01"/><polygon class="cls-2" points="1916.24 394.09 1940.01 428.8 1842.17 405.09 1916.24 394.09"/><polygon class="cls-2" points="1839.03 59.46 1803.9 80.59 1824.42 -20.36 1839.03 59.46"/><polygon class="cls-2" points="1883.65 47.84 1922.12 25.83 1902.18 125.71 1883.65 47.84"/><polygon class="cls-2" points="1883.65 24.14 1922.12 2.13 1824.42 -20.36 1883.65 24.14"/><polygon class="cls-2" points="1839.03 59.46 1803.9 80.59 1902.18 102.03 1839.03 59.46"/><polygon class="cls-2" points="1827.62 115.56 1803.85 80.84 1783.3 181.78 1827.62 115.56"/><polygon class="cls-2" points="1854.52 191.02 1880.99 227.98 1901.67 128.25 1854.52 191.02"/><polygon class="cls-2" points="1854.52 167.33 1880.99 204.29 1783.3 181.78 1854.52 167.33"/><polygon class="cls-2" points="1827.62 115.56 1803.85 80.84 1901.67 104.56 1827.62 115.56"/><polygon class="cls-2" points="1949.28 63.25 1922.8 26.28 1902.13 126.01 1949.28 63.25"/><polygon class="cls-2" points="1976.2 115.02 1999.97 149.73 1902.13 126.01 1976.2 115.02"/><polygon class="cls-2" points="1920.25 205.86 1881.8 227.87 1901.73 127.97 1920.25 205.86"/><polygon class="cls-2" points="1920.25 205.86 1881.8 227.87 1979.49 250.37 1920.25 205.86"/><polygon class="cls-2" points="1964.88 170.56 2000.02 149.42 1901.73 127.97 1964.88 170.56"/><polygon class="cls-2" points="1370.96 327.46 1347.18 292.77 1326.63 393.7 1370.96 327.46"/><polygon class="cls-2" points="1397.87 379.24 1424.34 416.19 1445.03 316.48 1397.87 379.24"/><polygon class="cls-2" points="1397.87 379.24 1424.34 416.19 1326.63 393.7 1397.87 379.24"/><polygon class="cls-2" points="1370.96 327.46 1347.18 292.77 1445.03 316.48 1370.96 327.46"/><polygon class="cls-2" points="1508.23 358.79 1543.38 337.65 1522.83 438.59 1508.23 358.79"/><polygon class="cls-2" points="1463.6 394.08 1425.13 416.09 1445.08 316.19 1463.6 394.08"/><polygon class="cls-2" points="1463.6 394.08 1425.13 416.09 1522.83 438.59 1463.6 394.08"/><polygon class="cls-2" points="1508.23 358.79 1543.38 337.65 1445.08 316.19 1508.23 358.79"/><polygon class="cls-2" points="1567.22 372.09 1543.43 337.39 1522.89 438.33 1567.22 372.09"/><polygon class="cls-2" points="1594.12 423.87 1620.59 460.85 1641.27 361.11 1594.12 423.87"/><polygon class="cls-2" points="1594.12 423.87 1620.59 460.85 1522.89 438.33 1594.12 423.87"/><polygon class="cls-2" points="1567.22 372.09 1543.43 337.39 1641.27 361.11 1567.22 372.09"/><polygon class="cls-2" points="1704.48 403.42 1739.62 382.26 1719.09 483.22 1704.48 403.42"/><polygon class="cls-2" points="1659.86 438.71 1621.38 460.71 1641.32 360.82 1659.86 438.71"/><polygon class="cls-2" points="1659.86 438.71 1621.38 460.71 1719.09 483.22 1659.86 438.71"/><polygon class="cls-2" points="1704.48 403.42 1739.62 382.26 1641.32 360.82 1704.48 403.42"/><polygon class="cls-2" points="1172.95 283.38 1149.18 248.67 1128.64 349.62 1172.95 283.38"/><polygon class="cls-2" points="1199.86 335.15 1226.34 372.11 1247 272.39 1199.86 335.15"/><polygon class="cls-2" points="1199.86 335.15 1226.34 372.11 1128.64 349.62 1199.86 335.15"/><polygon class="cls-2" points="1172.95 283.38 1149.18 248.67 1247 272.39 1172.95 283.38"/><polygon class="cls-2" points="1310.23 314.7 1345.37 293.56 1324.83 394.51 1310.23 314.7"/><polygon class="cls-2" points="1265.58 349.99 1227.13 372 1247.07 272.11 1265.58 349.99"/><polygon class="cls-2" points="1265.58 349.99 1227.13 372 1324.83 394.51 1265.58 349.99"/><polygon class="cls-2" points="1310.23 314.7 1345.37 293.56 1247.07 272.11 1310.23 314.7"/><polygon class="cls-2" points="1764.92 417.67 1741.14 382.98 1720.59 483.92 1764.92 417.67"/><polygon class="cls-2" points="1791.83 469.45 1818.3 506.43 1838.96 406.7 1791.83 469.45"/><polygon class="cls-2" points="1791.83 469.45 1818.3 506.43 1720.59 483.92 1791.83 469.45"/><polygon class="cls-2" points="1764.92 417.67 1741.14 382.98 1838.96 406.7 1764.92 417.67"/><polygon class="cls-2" points="1902.18 472.69 1937.33 451.55 1916.79 552.5 1902.18 472.69"/><polygon class="cls-2" points="1857.55 484.29 1819.09 506.3 1839.03 406.4 1857.55 484.29"/><polygon class="cls-2" points="1857.55 484.29 1819.09 506.3 1916.79 528.8 1857.55 484.29"/><polygon class="cls-2" points="1902.18 448.99 1937.33 427.85 1839.03 406.4 1902.18 448.99"/><polygon class="cls-2" points="1341.64 473.46 1306.49 494.6 1327.03 393.65 1341.64 473.46"/><polygon class="cls-2" points="1386.26 438.16 1424.73 416.17 1404.8 516.05 1386.26 438.16"/><polygon class="cls-2" points="1386.26 438.16 1424.73 416.17 1327.03 393.65 1386.26 438.16"/><polygon class="cls-2" points="1341.64 473.46 1306.49 494.6 1404.8 516.05 1341.64 473.46"/><polygon class="cls-2" points="1478.81 505.35 1502.58 540.06 1523.11 439.11 1478.81 505.35"/><polygon class="cls-2" points="1451.88 453.57 1425.41 416.61 1404.74 516.33 1451.88 453.57"/><polygon class="cls-2" points="1451.88 453.57 1425.41 416.61 1523.11 439.11 1451.88 453.57"/><polygon class="cls-2" points="1537.67 519.18 1502.53 540.32 1523.06 439.37 1537.67 519.18"/><polygon class="cls-2" points="1582.29 483.88 1620.76 461.87 1600.82 561.77 1582.29 483.88"/><polygon class="cls-2" points="1582.29 483.88 1620.76 461.87 1523.06 439.37 1582.29 483.88"/><polygon class="cls-2" points="1674.82 551.07 1698.61 585.78 1719.14 484.83 1674.82 551.07"/><polygon class="cls-2" points="1647.91 499.29 1621.44 462.32 1600.77 562.04 1647.91 499.29"/><polygon class="cls-2" points="1647.91 499.29 1621.44 462.32 1719.14 484.83 1647.91 499.29"/><polygon class="cls-2" points="1143.63 429.37 1108.49 450.51 1129.03 349.56 1143.63 429.37"/><polygon class="cls-2" points="1188.26 394.08 1226.74 372.07 1206.8 471.96 1188.26 394.08"/><polygon class="cls-2" points="1188.26 394.08 1226.74 372.07 1129.03 349.56 1188.26 394.08"/><polygon class="cls-2" points="1143.63 429.37 1108.49 450.51 1206.8 471.96 1143.63 429.37"/><polygon class="cls-2" points="1280.78 461.26 1304.57 495.97 1325.11 395.02 1280.78 461.26"/><polygon class="cls-2" points="1253.88 409.49 1227.41 372.51 1206.72 472.25 1253.88 409.49"/><polygon class="cls-2" points="1253.88 409.49 1227.41 372.51 1325.11 395.02 1253.88 409.49"/><polygon class="cls-2" points="1280.78 461.26 1304.57 495.97 1206.72 472.25 1280.78 461.26"/><polygon class="cls-2" points="1735.59 563.68 1700.45 584.82 1720.99 483.87 1735.59 563.68"/><polygon class="cls-2" points="1780.22 528.38 1818.69 506.37 1720.99 483.87 1780.22 528.38"/><polygon class="cls-2" points="1327.47 528.93 1303.7 494.23 1283.16 595.18 1327.47 528.93"/><polygon class="cls-2" points="1327.47 528.93 1303.7 494.23 1401.53 517.94 1327.47 528.93"/><polygon class="cls-2" points="1156.37 536.62 1182.84 573.57 1203.53 473.87 1156.37 536.62"/><polygon class="cls-2" points="1129.47 484.84 1105.69 450.15 1203.53 473.87 1129.47 484.84"/><polygon class="cls-2" points="1266.73 516.17 1301.87 495.03 1281.34 595.97 1266.73 516.17"/><polygon class="cls-2" points="1222.11 551.46 1183.64 573.47 1203.57 473.57 1222.11 551.46"/><polygon class="cls-2" points="1266.73 516.17 1301.87 495.03 1203.57 473.57 1266.73 516.17"/></g></svg>