<?xml version="1.0" encoding="utf-8"?>
<!-- Generator: Adobe Illustrator 24.3.0, SVG Export Plug-In . SVG Version: 6.00 Build 0)  -->
<svg version="1.1" id="Layer_1" xmlns="http://www.w3.org/2000/svg" xmlns:xlink="http://www.w3.org/1999/xlink" x="0px" y="0px"
	 viewBox="0 0 1920 500" style="enable-background:new 0 0 1920 500;" xml:space="preserve">
<style type="text/css">
	.st0{fill:#013E45;}
	.st1{opacity:0.2;fill:none;stroke:#BCE2E2;stroke-miterlimit:10;enable-background:new    ;}
</style>
<g id="Layer_2_1_">
	<rect y="-1" class="st0" width="1920" height="502"/>
</g>
<g id="Layer_1_1_">
	<polygon class="st1" points="856.5,1.6 895,-20.4 875,79.5 	"/>
	<polygon class="st1" points="856.5,1.6 895,-20.4 797.2,-42.9 	"/>
	<polygon class="st1" points="949,68.8 972.8,103.5 993.3,2.6 	"/>
	<polygon class="st1" points="922.1,17 895.6,-19.9 875,79.8 	"/>
	<polygon class="st1" points="922.1,17 895.6,-19.9 993.3,2.6 	"/>
	<polygon class="st1" points="949,68.8 972.8,103.5 875,79.8 	"/>
	<polygon class="st1" points="928.6,169.2 952.4,203.9 972.9,102.9 	"/>
	<polygon class="st1" points="901.7,117.4 875.2,80.4 972.9,102.9 	"/>
	<polygon class="st1" points="928.6,169.2 952.4,203.9 854.5,180.2 	"/>
	<polygon class="st1" points="700,-222.8 738.5,-244.8 718.5,-144.9 	"/>
	<polygon class="st1" points="700,-222.8 738.5,-244.8 640.8,-267.3 	"/>
	<polygon class="st1" points="670.9,-79.6 697.3,-42.7 718,-142.4 	"/>
	<polygon class="st1" points="792.5,-179.3 816.3,-144.6 836.8,-245.6 	"/>
	<polygon class="st1" points="765.6,-207.4 739.1,-244.3 718.5,-144.6 	"/>
	<polygon class="st1" points="765.6,-231.1 739.1,-268 836.8,-245.6 	"/>
	<polygon class="st1" points="792.5,-179.3 816.3,-144.6 718.5,-168.3 	"/>
	<polygon class="st1" points="781.2,-123.8 816.4,-144.9 795.8,-44 	"/>
	<polygon class="st1" points="736.6,-64.8 698.1,-42.8 718.1,-142.6 	"/>
	<polygon class="st1" points="781.2,-123.8 816.4,-144.9 718.1,-166.4 	"/>
	<polygon class="st1" points="851.4,-165.5 816.2,-144.3 836.8,-245.3 	"/>
	<polygon class="st1" points="896,-200.8 934.5,-222.8 914.5,-122.9 	"/>
	<polygon class="st1" points="896,-200.8 934.5,-222.8 836.8,-245.3 	"/>
	<polygon class="st1" points="851.4,-165.5 816.2,-144.3 914.5,-122.9 	"/>
	<polygon class="st1" points="840.2,-110.4 816.4,-145.2 795.9,-44.2 	"/>
	<polygon class="st1" points="867.1,-58.7 893.6,-21.7 914.3,-121.4 	"/>
	<polygon class="st1" points="867.1,-58.7 893.6,-21.7 795.9,-44.2 	"/>
	<polygon class="st1" points="840.2,-110.4 816.4,-145.2 914.3,-121.4 	"/>
	<polygon class="st1" points="988.5,-133.6 1012.3,-98.9 1032.9,-199.8 	"/>
	<polygon class="st1" points="961.6,-185.4 935.2,-222.3 914.5,-122.6 	"/>
	<polygon class="st1" points="961.6,-185.4 935.2,-222.3 1032.9,-199.8 	"/>
	<polygon class="st1" points="988.5,-133.6 1012.3,-98.9 914.5,-122.6 	"/>
	<polygon class="st1" points="977.5,-79.1 1012.6,-100.3 992.1,0.7 	"/>
	<polygon class="st1" points="932.8,-43.8 894.4,-21.8 914.3,-121.7 	"/>
	<polygon class="st1" points="932.8,-43.8 894.4,-21.8 992.1,0.7 	"/>
	<polygon class="st1" points="977.5,-79.1 1012.6,-100.3 914.3,-121.7 	"/>
	<polygon class="st1" points="1009.8,81.4 974.6,102.6 995.2,1.6 	"/>
	<polygon class="st1" points="1054.4,46.1 1092.9,24.1 1072.9,124 	"/>
	<polygon class="st1" points="1054.4,46.1 1092.9,24.1 995.2,1.6 	"/>
	<polygon class="st1" points="1009.8,81.4 974.6,102.6 1072.9,124 	"/>
	<polygon class="st1" points="989.3,181.8 954.2,202.9 974.8,102 	"/>
	<polygon class="st1" points="1034,146.5 1072.5,124.5 1052.5,224.4 	"/>
	<polygon class="st1" points="1034,146.5 1072.5,124.5 974.8,102 	"/>
	<polygon class="st1" points="989.3,181.8 954.2,202.9 1052.5,224.4 	"/>
	<polygon class="st1" points="1146.9,113.3 1170.7,148 1191.3,47.1 	"/>
	<polygon class="st1" points="1120,61.5 1093.6,24.6 1072.9,124.3 	"/>
	<polygon class="st1" points="1120,61.5 1093.6,24.6 1191.3,47.1 	"/>
	<polygon class="st1" points="1146.9,113.3 1170.7,148 1072.9,124.3 	"/>
	<polygon class="st1" points="1126.5,213.7 1150.3,248.4 1170.8,147.4 	"/>
	<polygon class="st1" points="1099.6,161.9 1073.2,124.9 1052.5,224.7 	"/>
	<polygon class="st1" points="1099.6,161.9 1073.2,124.9 1170.8,147.4 	"/>
	<polygon class="st1" points="1126.5,213.7 1150.3,248.4 1052.5,224.7 	"/>
	<polygon class="st1" points="1049.3,-121 1014.2,-99.8 1034.7,-200.8 	"/>
	<polygon class="st1" points="1093.9,-156.3 1132.4,-178.3 1112.5,-78.4 	"/>
	<polygon class="st1" points="1093.9,-156.3 1132.4,-178.3 1034.7,-200.8 	"/>
	<polygon class="st1" points="1049.3,-121 1014.2,-99.8 1112.5,-78.4 	"/>
	<polygon class="st1" points="1037.9,-64.9 1014.1,-99.6 993.6,1.4 	"/>
	<polygon class="st1" points="1064.8,-13.1 1091.3,23.9 1112,-75.9 	"/>
	<polygon class="st1" points="1064.8,-13.1 1091.3,23.9 993.6,1.4 	"/>
	<polygon class="st1" points="1037.9,-64.9 1014.1,-99.6 1112,-75.9 	"/>
	<polygon class="st1" points="1186.5,-89.1 1210.2,-54.4 1230.8,-155.3 	"/>
	<polygon class="st1" points="1159.6,-140.9 1133.1,-177.8 1112.4,-78.1 	"/>
	<polygon class="st1" points="1159.6,-140.9 1133.1,-177.8 1230.8,-155.3 	"/>
	<polygon class="st1" points="1186.5,-89.1 1210.2,-54.4 1112.4,-78.1 	"/>
	<polygon class="st1" points="1175.2,-33.5 1210.3,-54.7 1189.8,46.3 	"/>
	<polygon class="st1" points="1130.5,1.7 1092.1,23.8 1112,-76.1 	"/>
	<polygon class="st1" points="1130.5,1.7 1092.1,23.8 1189.8,46.3 	"/>
	<polygon class="st1" points="1175.2,-33.5 1210.3,-54.7 1112,-76.1 	"/>
	<polygon class="st1" points="914.8,223 949.9,201.9 929.4,302.8 	"/>
	<polygon class="st1" points="914.8,223 949.9,201.9 851.6,180.4 	"/>
	<polygon class="st1" points="975.2,237.3 951.4,202.6 930.9,303.5 	"/>
	<polygon class="st1" points="1002.1,289 1028.6,326 1049.3,226.3 	"/>
	<polygon class="st1" points="1002.1,289 1028.6,326 930.9,303.5 	"/>
	<polygon class="st1" points="975.2,237.3 951.4,202.6 1049.3,226.3 	"/>
	<polygon class="st1" points="1112.5,268.6 1147.6,247.4 1127.1,348.4 	"/>
	<polygon class="st1" points="1067.8,303.9 1029.4,325.9 1049.3,226 	"/>
	<polygon class="st1" points="1067.8,303.9 1029.4,325.9 1127.1,348.4 	"/>
	<polygon class="st1" points="1112.5,268.6 1147.6,247.4 1049.3,226 	"/>
	<polygon class="st1" points="990.5,348 1029,326 931.3,303.4 	"/>
	<polygon class="st1" points="1056.1,363.4 1029.7,326.4 1127.3,348.9 	"/>
	<polygon class="st1" points="1405.5,171.6 1370.4,192.8 1390.9,91.8 	"/>
	<polygon class="st1" points="1450.2,136.3 1488.7,114.3 1468.7,214.2 	"/>
	<polygon class="st1" points="1450.2,136.3 1488.7,114.3 1390.9,91.8 	"/>
	<polygon class="st1" points="1405.5,171.6 1370.4,192.8 1468.7,214.2 	"/>
	<polygon class="st1" points="1385.1,272 1350,293.1 1370.5,192.2 	"/>
	<polygon class="st1" points="1429.8,236.7 1468.2,214.7 1448.3,314.6 	"/>
	<polygon class="st1" points="1429.8,236.7 1468.2,214.7 1370.5,192.2 	"/>
	<polygon class="st1" points="1385.1,272 1350,293.1 1448.3,314.6 	"/>
	<polygon class="st1" points="1542.7,203.5 1566.5,238.2 1587,137.3 	"/>
	<polygon class="st1" points="1515.8,151.7 1489.3,114.8 1468.6,214.5 	"/>
	<polygon class="st1" points="1515.8,151.7 1489.3,114.8 1587,137.3 	"/>
	<polygon class="st1" points="1542.7,203.5 1566.5,238.2 1468.6,214.5 	"/>
	<polygon class="st1" points="1522.3,303.9 1546.1,338.6 1566.6,237.6 	"/>
	<polygon class="st1" points="1495.4,252.1 1468.9,215.1 1448.2,314.9 	"/>
	<polygon class="st1" points="1495.4,252.1 1468.9,215.1 1566.6,237.6 	"/>
	<polygon class="st1" points="1522.3,303.9 1546.1,338.6 1448.2,314.9 	"/>
	<polygon class="st1" points="1601.6,217.3 1566.4,238.5 1587,137.5 	"/>
	<polygon class="st1" points="1646.2,182 1684.7,160 1664.7,259.9 	"/>
	<polygon class="st1" points="1646.2,182 1684.7,160 1587,137.5 	"/>
	<polygon class="st1" points="1601.6,217.3 1566.4,238.5 1664.7,259.9 	"/>
	<polygon class="st1" points="1581.2,317.7 1546,338.9 1566.6,237.9 	"/>
	<polygon class="st1" points="1625.8,282.4 1664.2,260.4 1644.3,360.3 	"/>
	<polygon class="st1" points="1625.8,282.4 1664.2,260.4 1566.6,237.9 	"/>
	<polygon class="st1" points="1581.2,317.7 1546,338.9 1644.3,360.3 	"/>
	<polygon class="st1" points="1738.7,249.2 1762.5,283.9 1783.1,183 	"/>
	<polygon class="st1" points="1711.8,197.4 1685.4,160.5 1664.7,260.2 	"/>
	<polygon class="st1" points="1711.8,197.4 1685.4,160.5 1783.1,183 	"/>
	<polygon class="st1" points="1738.7,249.2 1762.5,283.9 1664.7,260.2 	"/>
	<polygon class="st1" points="1718.3,349.6 1742.1,384.3 1762.6,283.4 	"/>
	<polygon class="st1" points="1691.4,297.8 1664.9,260.9 1644.2,360.6 	"/>
	<polygon class="st1" points="1691.4,297.8 1664.9,260.9 1762.6,283.4 	"/>
	<polygon class="st1" points="1718.3,349.6 1742.1,384.3 1644.2,360.6 	"/>
	<polygon class="st1" points="1445.1,-30.8 1409.9,-9.6 1430.5,-110.6 	"/>
	<polygon class="st1" points="1489.7,-66.1 1528.2,-88.1 1508.2,11.8 	"/>
	<polygon class="st1" points="1489.7,-66.1 1528.2,-88.1 1430.5,-110.6 	"/>
	<polygon class="st1" points="1445.1,-30.8 1409.9,-9.6 1508.2,11.8 	"/>
	<polygon class="st1" points="1433.7,25.3 1409.9,-9.4 1389.3,91.6 	"/>
	<polygon class="st1" points="1460.6,77.1 1487,114.1 1507.7,14.4 	"/>
	<polygon class="st1" points="1460.6,77.1 1487,114.1 1389.3,91.6 	"/>
	<polygon class="st1" points="1433.7,25.3 1409.9,-9.4 1507.7,14.4 	"/>
	<polygon class="st1" points="1582.2,1.1 1606,35.8 1626.6,-65.1 	"/>
	<polygon class="st1" points="1555.3,-50.7 1528.9,-87.6 1508.2,12.1 	"/>
	<polygon class="st1" points="1555.3,-50.7 1528.9,-87.6 1626.6,-65.1 	"/>
	<polygon class="st1" points="1582.2,1.1 1606,35.8 1508.2,12.1 	"/>
	<polygon class="st1" points="1570.9,56.7 1606.1,35.5 1585.5,136.4 	"/>
	<polygon class="st1" points="1526.3,91.9 1487.8,114 1507.8,14.1 	"/>
	<polygon class="st1" points="1526.3,91.9 1487.8,114 1585.5,136.4 	"/>
	<polygon class="st1" points="1570.9,56.7 1606.1,35.5 1507.8,14.1 	"/>
	<polygon class="st1" points="1641.1,14.9 1606,36.1 1626.5,-64.9 	"/>
	<polygon class="st1" points="1685.7,-20.4 1724.2,-42.4 1704.3,57.5 	"/>
	<polygon class="st1" points="1685.7,-20.4 1724.2,-42.4 1626.5,-64.9 	"/>
	<polygon class="st1" points="1641.1,14.9 1606,36.1 1704.3,57.5 	"/>
	<polygon class="st1" points="1629.9,70 1606.1,35.2 1585.6,136.2 	"/>
	<polygon class="st1" points="1656.8,121.7 1683.3,158.7 1704,59 	"/>
	<polygon class="st1" points="1656.8,121.7 1683.3,158.7 1585.6,136.2 	"/>
	<polygon class="st1" points="1629.9,70 1606.1,35.2 1704,59 	"/>
	<polygon class="st1" points="1778.3,46.8 1802,81.5 1822.6,-19.4 	"/>
	<polygon class="st1" points="1751.4,-4.9 1724.9,-41.9 1704.2,57.8 	"/>
	<polygon class="st1" points="1751.4,-4.9 1724.9,-41.9 1822.6,-19.4 	"/>
	<polygon class="st1" points="1778.3,46.8 1802,81.5 1704.2,57.8 	"/>
	<polygon class="st1" points="1767.2,101.3 1802.3,80.2 1781.8,181.1 	"/>
	<polygon class="st1" points="1722.6,136.6 1684.1,158.6 1704,58.7 	"/>
	<polygon class="st1" points="1722.6,136.6 1684.1,158.6 1781.8,181.1 	"/>
	<polygon class="st1" points="1767.2,101.3 1802.3,80.2 1704,58.7 	"/>
	<polygon class="st1" points="1207.5,127.5 1172.4,148.7 1192.9,47.7 	"/>
	<polygon class="st1" points="1252.2,92.2 1290.6,70.2 1270.7,170.1 	"/>
	<polygon class="st1" points="1252.2,92.2 1290.6,70.2 1192.9,47.7 	"/>
	<polygon class="st1" points="1207.5,127.5 1172.4,148.7 1270.7,170.1 	"/>
	<polygon class="st1" points="1187.1,227.9 1152,249.1 1172.5,148.1 	"/>
	<polygon class="st1" points="1231.8,192.6 1270.2,170.6 1250.3,270.5 	"/>
	<polygon class="st1" points="1231.8,192.6 1270.2,170.6 1172.5,148.1 	"/>
	<polygon class="st1" points="1187.1,227.9 1152,249.1 1250.3,270.5 	"/>
	<polygon class="st1" points="1344.7,159.4 1368.5,194.1 1389,93.2 	"/>
	<polygon class="st1" points="1317.8,107.7 1291.3,70.7 1270.6,170.4 	"/>
	<polygon class="st1" points="1317.8,107.7 1291.3,70.7 1389,93.2 	"/>
	<polygon class="st1" points="1344.7,159.4 1368.5,194.1 1270.6,170.4 	"/>
	<polygon class="st1" points="1324.3,259.8 1348.1,294.5 1368.6,193.6 	"/>
	<polygon class="st1" points="1297.3,208 1270.9,171 1250.2,270.8 	"/>
	<polygon class="st1" points="1297.3,208 1270.9,171 1368.6,193.6 	"/>
	<polygon class="st1" points="1324.3,259.8 1348.1,294.5 1250.2,270.8 	"/>
	<polygon class="st1" points="1247.1,-74.9 1211.9,-53.7 1232.5,-154.7 	"/>
	<polygon class="st1" points="1291.7,-110.2 1330.2,-132.2 1310.2,-32.3 	"/>
	<polygon class="st1" points="1291.7,-110.2 1330.2,-132.2 1232.5,-154.7 	"/>
	<polygon class="st1" points="1247.1,-74.9 1211.9,-53.7 1310.2,-32.3 	"/>
	<polygon class="st1" points="1235.7,-18.8 1211.9,-53.5 1191.3,47.5 	"/>
	<polygon class="st1" points="1262.6,33 1289,70 1309.7,-29.7 	"/>
	<polygon class="st1" points="1262.6,33 1289,70 1191.3,47.5 	"/>
	<polygon class="st1" points="1235.7,-18.8 1211.9,-53.5 1309.7,-29.7 	"/>
	<polygon class="st1" points="1384.2,-43 1408,-8.3 1428.5,-109.2 	"/>
	<polygon class="st1" points="1357.3,-94.7 1330.8,-131.7 1310.2,-32 	"/>
	<polygon class="st1" points="1357.3,-94.7 1330.8,-131.7 1428.5,-109.2 	"/>
	<polygon class="st1" points="1384.2,-43 1408,-8.3 1310.2,-32 	"/>
	<polygon class="st1" points="1372.9,12.6 1408.1,-8.6 1387.5,92.4 	"/>
	<polygon class="st1" points="1328.3,47.9 1289.8,69.9 1309.8,-30 	"/>
	<polygon class="st1" points="1328.3,47.9 1289.8,69.9 1387.5,92.4 	"/>
	<polygon class="st1" points="1372.9,12.6 1408.1,-8.6 1309.8,-30 	"/>
	<polygon class="st1" points="1799.5,261.8 1764.4,283 1784.9,182 	"/>
	<polygon class="st1" points="1844.1,226.5 1882.6,204.5 1862.7,304.4 	"/>
	<polygon class="st1" points="1844.1,226.5 1882.6,204.5 1784.9,182 	"/>
	<polygon class="st1" points="1799.5,261.8 1764.4,283 1862.7,304.4 	"/>
	<polygon class="st1" points="1779.1,362.2 1743.9,383.3 1764.5,282.4 	"/>
	<polygon class="st1" points="1823.7,326.9 1862.2,304.9 1842.2,404.8 	"/>
	<polygon class="st1" points="1823.7,326.9 1862.2,304.9 1764.5,282.4 	"/>
	<polygon class="st1" points="1779.1,362.2 1743.9,383.3 1842.2,404.8 	"/>
	<polygon class="st1" points="1936.7,317.4 1960.4,352.1 1981,251.2 	"/>
	<polygon class="st1" points="1909.8,265.6 1883.3,228.7 1862.6,328.4 	"/>
	<polygon class="st1" points="1909.8,265.6 1883.3,228.7 1981,251.2 	"/>
	<polygon class="st1" points="1936.7,317.4 1960.4,352.1 1862.6,328.4 	"/>
	<polygon class="st1" points="1916.2,417.8 1940,452.5 1960.6,351.5 	"/>
	<polygon class="st1" points="1889.3,342.3 1862.9,305.4 1842.2,405.1 	"/>
	<polygon class="st1" points="1889.3,366 1862.9,329.1 1960.6,351.5 	"/>
	<polygon class="st1" points="1916.2,394.1 1940,428.8 1842.2,405.1 	"/>
	<polygon class="st1" points="1839,59.5 1803.9,80.6 1824.4,-20.4 	"/>
	<polygon class="st1" points="1883.7,47.8 1922.1,25.8 1902.2,125.7 	"/>
	<polygon class="st1" points="1883.7,24.1 1922.1,2.1 1824.4,-20.4 	"/>
	<polygon class="st1" points="1839,59.5 1803.9,80.6 1902.2,102 	"/>
	<polygon class="st1" points="1827.6,115.6 1803.8,80.8 1783.3,181.8 	"/>
	<polygon class="st1" points="1854.5,191 1881,228 1901.7,128.2 	"/>
	<polygon class="st1" points="1854.5,167.3 1881,204.3 1783.3,181.8 	"/>
	<polygon class="st1" points="1827.6,115.6 1803.8,80.8 1901.7,104.6 	"/>
	<polygon class="st1" points="1976.2,115 2000,149.7 2020.5,48.8 	"/>
	<polygon class="st1" points="1949.3,63.2 1922.8,26.3 1902.1,126 	"/>
	<polygon class="st1" points="1949.3,63.2 1922.8,26.3 2020.5,48.8 	"/>
	<polygon class="st1" points="1976.2,115 2000,149.7 1902.1,126 	"/>
	<polygon class="st1" points="1964.9,170.6 2000,149.4 1979.5,250.4 	"/>
	<polygon class="st1" points="1920.2,205.9 1881.8,227.9 1901.7,128 	"/>
	<polygon class="st1" points="1920.2,205.9 1881.8,227.9 1979.5,250.4 	"/>
	<polygon class="st1" points="1964.9,170.6 2000,149.4 1901.7,128 	"/>
	<polygon class="st1" points="1371,327.5 1347.2,292.8 1326.6,393.7 	"/>
	<polygon class="st1" points="1397.9,379.2 1424.3,416.2 1445,316.5 	"/>
	<polygon class="st1" points="1397.9,379.2 1424.3,416.2 1326.6,393.7 	"/>
	<polygon class="st1" points="1371,327.5 1347.2,292.8 1445,316.5 	"/>
	<polygon class="st1" points="1508.2,358.8 1543.4,337.6 1522.8,438.6 	"/>
	<polygon class="st1" points="1463.6,394.1 1425.1,416.1 1445.1,316.2 	"/>
	<polygon class="st1" points="1463.6,394.1 1425.1,416.1 1522.8,438.6 	"/>
	<polygon class="st1" points="1508.2,358.8 1543.4,337.6 1445.1,316.2 	"/>
	<polygon class="st1" points="1567.2,372.1 1543.4,337.4 1522.9,438.3 	"/>
	<polygon class="st1" points="1594.1,423.9 1620.6,460.8 1641.3,361.1 	"/>
	<polygon class="st1" points="1594.1,423.9 1620.6,460.8 1522.9,438.3 	"/>
	<polygon class="st1" points="1567.2,372.1 1543.4,337.4 1641.3,361.1 	"/>
	<polygon class="st1" points="1704.5,403.4 1739.6,382.3 1719.1,483.2 	"/>
	<polygon class="st1" points="1659.9,438.7 1621.4,460.7 1641.3,360.8 	"/>
	<polygon class="st1" points="1659.9,438.7 1621.4,460.7 1719.1,483.2 	"/>
	<polygon class="st1" points="1704.5,403.4 1739.6,382.3 1641.3,360.8 	"/>
	<polygon class="st1" points="1172.9,283.4 1149.2,248.7 1128.6,349.6 	"/>
	<polygon class="st1" points="1199.9,335.1 1226.3,372.1 1247,272.4 	"/>
	<polygon class="st1" points="1199.9,335.1 1226.3,372.1 1128.6,349.6 	"/>
	<polygon class="st1" points="1172.9,283.4 1149.2,248.7 1247,272.4 	"/>
	<polygon class="st1" points="1310.2,314.7 1345.4,293.6 1324.8,394.5 	"/>
	<polygon class="st1" points="1265.6,350 1227.1,372 1247.1,272.1 	"/>
	<polygon class="st1" points="1265.6,350 1227.1,372 1324.8,394.5 	"/>
	<polygon class="st1" points="1310.2,314.7 1345.4,293.6 1247.1,272.1 	"/>
	<polygon class="st1" points="1764.9,417.7 1741.1,383 1720.6,483.9 	"/>
	<polygon class="st1" points="1791.8,469.5 1818.3,506.4 1839,406.7 	"/>
	<polygon class="st1" points="1791.8,469.5 1818.3,506.4 1720.6,483.9 	"/>
	<polygon class="st1" points="1764.9,417.7 1741.1,383 1839,406.7 	"/>
	<polygon class="st1" points="1902.2,472.7 1937.3,451.5 1916.8,552.5 	"/>
	<polygon class="st1" points="1857.6,484.3 1819.1,506.3 1839,406.4 	"/>
	<polygon class="st1" points="1857.6,484.3 1819.1,506.3 1916.8,528.8 	"/>
	<polygon class="st1" points="1902.2,449 1937.3,427.9 1839,406.4 	"/>
	<polygon class="st1" points="1341.6,473.5 1306.5,494.6 1327,393.6 	"/>
	<polygon class="st1" points="1386.3,438.2 1424.7,416.2 1404.8,516 	"/>
	<polygon class="st1" points="1386.3,438.2 1424.7,416.2 1327,393.6 	"/>
	<polygon class="st1" points="1341.6,473.5 1306.5,494.6 1404.8,516 	"/>
	<polygon class="st1" points="1478.8,505.4 1502.6,540.1 1523.1,439.1 	"/>
	<polygon class="st1" points="1451.9,453.6 1425.4,416.6 1404.7,516.3 	"/>
	<polygon class="st1" points="1451.9,453.6 1425.4,416.6 1523.1,439.1 	"/>
	<polygon class="st1" points="1478.8,505.4 1502.6,540.1 1404.7,516.3 	"/>
	<polygon class="st1" points="1537.7,519.2 1502.5,540.3 1523.1,439.4 	"/>
	<polygon class="st1" points="1582.3,483.9 1620.8,461.9 1600.8,561.8 	"/>
	<polygon class="st1" points="1582.3,483.9 1620.8,461.9 1523.1,439.4 	"/>
	<polygon class="st1" points="1537.7,519.2 1502.5,540.3 1600.8,561.8 	"/>
	<polygon class="st1" points="1674.8,551.1 1698.6,585.8 1719.1,484.8 	"/>
	<polygon class="st1" points="1647.9,499.3 1621.4,462.3 1600.8,562 	"/>
	<polygon class="st1" points="1647.9,499.3 1621.4,462.3 1719.1,484.8 	"/>
	<polygon class="st1" points="1674.8,551.1 1698.6,585.8 1600.8,562 	"/>
	<polygon class="st1" points="1143.6,429.4 1108.5,450.5 1129,349.6 	"/>
	<polygon class="st1" points="1188.3,394.1 1226.7,372.1 1206.8,472 	"/>
	<polygon class="st1" points="1188.3,394.1 1226.7,372.1 1129,349.6 	"/>
	<polygon class="st1" points="1143.6,429.4 1108.5,450.5 1206.8,472 	"/>
	<polygon class="st1" points="1280.8,461.3 1304.6,496 1325.1,395 	"/>
	<polygon class="st1" points="1253.9,409.5 1227.4,372.5 1206.7,472.2 	"/>
	<polygon class="st1" points="1253.9,409.5 1227.4,372.5 1325.1,395 	"/>
	<polygon class="st1" points="1280.8,461.3 1304.6,496 1206.7,472.2 	"/>
	<polygon class="st1" points="1735.6,563.7 1700.4,584.8 1721,483.9 	"/>
	<polygon class="st1" points="1780.2,528.4 1818.7,506.4 1798.8,606.3 	"/>
	<polygon class="st1" points="1780.2,528.4 1818.7,506.4 1721,483.9 	"/>
	<polygon class="st1" points="1735.6,563.7 1700.4,584.8 1798.8,606.3 	"/>
	<polygon class="st1" points="1872.7,619.2 1896.5,654 1917.1,553 	"/>
	<polygon class="st1" points="1845.8,543.8 1819.4,506.8 1798.7,606.6 	"/>
	<polygon class="st1" points="1845.8,543.8 1819.4,506.8 1917.1,529.3 	"/>
	<polygon class="st1" points="1872.7,595.6 1896.5,630.3 1798.7,606.6 	"/>
	<polygon class="st1" points="1327.5,528.9 1303.7,494.2 1283.2,595.2 	"/>
	<polygon class="st1" points="1354.4,580.7 1380.8,617.7 1401.5,517.9 	"/>
	<polygon class="st1" points="1327.5,528.9 1303.7,494.2 1401.5,517.9 	"/>
	<polygon class="st1" points="1464.8,560.2 1499.9,539.1 1479.3,640.1 	"/>
	<polygon class="st1" points="1420.1,595.5 1381.7,617.5 1401.6,517.7 	"/>
	<polygon class="st1" points="1464.8,560.2 1499.9,539.1 1401.6,517.7 	"/>
	<polygon class="st1" points="1523.7,573.6 1499.9,538.8 1479.4,639.8 	"/>
	<polygon class="st1" points="1550.6,625.3 1577.1,662.3 1597.8,562.6 	"/>
	<polygon class="st1" points="1523.7,573.6 1499.9,538.8 1597.8,562.6 	"/>
	<polygon class="st1" points="1661,604.9 1696.1,583.7 1675.6,684.7 	"/>
	<polygon class="st1" points="1616.4,640.2 1577.9,662.2 1597.8,562.3 	"/>
	<polygon class="st1" points="1661,604.9 1696.1,583.7 1597.8,562.3 	"/>
	<polygon class="st1" points="1156.4,536.6 1182.8,573.6 1203.5,473.9 	"/>
	<polygon class="st1" points="1129.5,484.8 1105.7,450.1 1203.5,473.9 	"/>
	<polygon class="st1" points="1266.7,516.2 1301.9,495 1281.3,596 	"/>
	<polygon class="st1" points="1222.1,551.5 1183.6,573.5 1203.6,473.6 	"/>
	<polygon class="st1" points="1266.7,516.2 1301.9,495 1203.6,473.6 	"/>
	<polygon class="st1" points="1721.4,619.2 1697.7,584.4 1677.1,685.4 	"/>
	<polygon class="st1" points="1748.3,670.9 1774.8,707.9 1795.5,608.2 	"/>
	<polygon class="st1" points="1721.4,619.2 1697.7,584.4 1795.5,608.2 	"/>
	<polygon class="st1" points="1858.7,674.2 1893.8,653 1873.3,754 	"/>
	<polygon class="st1" points="1814.1,685.8 1775.6,707.8 1795.5,607.9 	"/>
	<polygon class="st1" points="1858.7,650.5 1893.8,629.3 1795.5,607.9 	"/>
	<polygon class="st1" points="856.5,1.6 895,-20.4 875,79.5 	"/>
	<polygon class="st1" points="856.5,1.6 895,-20.4 797.2,-42.9 	"/>
	<polygon class="st1" points="949,68.8 972.8,103.5 993.3,2.6 	"/>
	<polygon class="st1" points="922.1,17 895.6,-19.9 875,79.8 	"/>
	<polygon class="st1" points="922.1,17 895.6,-19.9 993.3,2.6 	"/>
	<polygon class="st1" points="949,68.8 972.8,103.5 875,79.8 	"/>
	<polygon class="st1" points="928.6,169.2 952.4,203.9 972.9,102.9 	"/>
	<polygon class="st1" points="901.7,117.4 875.2,80.4 972.9,102.9 	"/>
	<polygon class="st1" points="928.6,169.2 952.4,203.9 854.5,180.2 	"/>
	<polygon class="st1" points="700,-222.8 738.5,-244.8 718.5,-144.9 	"/>
	<polygon class="st1" points="700,-222.8 738.5,-244.8 640.8,-267.3 	"/>
	<polygon class="st1" points="670.9,-79.6 697.3,-42.7 718,-142.4 	"/>
	<polygon class="st1" points="792.5,-179.3 816.3,-144.6 836.8,-245.6 	"/>
	<polygon class="st1" points="765.6,-207.4 739.1,-244.3 718.5,-144.6 	"/>
	<polygon class="st1" points="765.6,-231.1 739.1,-268 836.8,-245.6 	"/>
	<polygon class="st1" points="792.5,-179.3 816.3,-144.6 718.5,-168.3 	"/>
	<polygon class="st1" points="781.2,-123.8 816.4,-144.9 795.8,-44 	"/>
	<polygon class="st1" points="736.6,-64.8 698.1,-42.8 718.1,-142.6 	"/>
	<polygon class="st1" points="781.2,-123.8 816.4,-144.9 718.1,-166.4 	"/>
	<polygon class="st1" points="851.4,-165.5 816.2,-144.3 836.8,-245.3 	"/>
	<polygon class="st1" points="896,-200.8 934.5,-222.8 914.5,-122.9 	"/>
	<polygon class="st1" points="896,-200.8 934.5,-222.8 836.8,-245.3 	"/>
	<polygon class="st1" points="851.4,-165.5 816.2,-144.3 914.5,-122.9 	"/>
	<polygon class="st1" points="840.2,-110.4 816.4,-145.2 795.9,-44.2 	"/>
	<polygon class="st1" points="867.1,-58.7 893.6,-21.7 914.3,-121.4 	"/>
	<polygon class="st1" points="867.1,-58.7 893.6,-21.7 795.9,-44.2 	"/>
	<polygon class="st1" points="840.2,-110.4 816.4,-145.2 914.3,-121.4 	"/>
	<polygon class="st1" points="988.5,-133.6 1012.3,-98.9 1032.9,-199.8 	"/>
	<polygon class="st1" points="961.6,-185.4 935.2,-222.3 914.5,-122.6 	"/>
	<polygon class="st1" points="961.6,-185.4 935.2,-222.3 1032.9,-199.8 	"/>
	<polygon class="st1" points="988.5,-133.6 1012.3,-98.9 914.5,-122.6 	"/>
	<polygon class="st1" points="977.5,-79.1 1012.6,-100.3 992.1,0.7 	"/>
	<polygon class="st1" points="932.8,-43.8 894.4,-21.8 914.3,-121.7 	"/>
	<polygon class="st1" points="932.8,-43.8 894.4,-21.8 992.1,0.7 	"/>
	<polygon class="st1" points="977.5,-79.1 1012.6,-100.3 914.3,-121.7 	"/>
	<polygon class="st1" points="1009.8,81.4 974.6,102.6 995.2,1.6 	"/>
	<polygon class="st1" points="1054.4,46.1 1092.9,24.1 1072.9,124 	"/>
	<polygon class="st1" points="1054.4,46.1 1092.9,24.1 995.2,1.6 	"/>
	<polygon class="st1" points="1009.8,81.4 974.6,102.6 1072.9,124 	"/>
	<polygon class="st1" points="989.3,181.8 954.2,202.9 974.8,102 	"/>
	<polygon class="st1" points="1034,146.5 1072.5,124.5 1052.5,224.4 	"/>
	<polygon class="st1" points="1034,146.5 1072.5,124.5 974.8,102 	"/>
	<polygon class="st1" points="989.3,181.8 954.2,202.9 1052.5,224.4 	"/>
	<polygon class="st1" points="1146.9,113.3 1170.7,148 1191.3,47.1 	"/>
	<polygon class="st1" points="1120,61.5 1093.6,24.6 1072.9,124.3 	"/>
	<polygon class="st1" points="1120,61.5 1093.6,24.6 1191.3,47.1 	"/>
	<polygon class="st1" points="1146.9,113.3 1170.7,148 1072.9,124.3 	"/>
	<polygon class="st1" points="1126.5,213.7 1150.3,248.4 1170.8,147.4 	"/>
	<polygon class="st1" points="1099.6,161.9 1073.2,124.9 1052.5,224.7 	"/>
	<polygon class="st1" points="1099.6,161.9 1073.2,124.9 1170.8,147.4 	"/>
	<polygon class="st1" points="1126.5,213.7 1150.3,248.4 1052.5,224.7 	"/>
	<polygon class="st1" points="1049.3,-121 1014.2,-99.8 1034.7,-200.8 	"/>
	<polygon class="st1" points="1093.9,-156.3 1132.4,-178.3 1112.5,-78.4 	"/>
	<polygon class="st1" points="1093.9,-156.3 1132.4,-178.3 1034.7,-200.8 	"/>
	<polygon class="st1" points="1049.3,-121 1014.2,-99.8 1112.5,-78.4 	"/>
	<polygon class="st1" points="1037.9,-64.9 1014.1,-99.6 993.6,1.4 	"/>
	<polygon class="st1" points="1064.8,-13.1 1091.3,23.9 1112,-75.9 	"/>
	<polygon class="st1" points="1064.8,-13.1 1091.3,23.9 993.6,1.4 	"/>
	<polygon class="st1" points="1037.9,-64.9 1014.1,-99.6 1112,-75.9 	"/>
	<polygon class="st1" points="1186.5,-89.1 1210.2,-54.4 1230.8,-155.3 	"/>
	<polygon class="st1" points="1159.6,-140.9 1133.1,-177.8 1112.4,-78.1 	"/>
	<polygon class="st1" points="1159.6,-140.9 1133.1,-177.8 1230.8,-155.3 	"/>
	<polygon class="st1" points="1186.5,-89.1 1210.2,-54.4 1112.4,-78.1 	"/>
	<polygon class="st1" points="1175.2,-33.5 1210.3,-54.7 1189.8,46.3 	"/>
	<polygon class="st1" points="1130.5,1.7 1092.1,23.8 1112,-76.1 	"/>
	<polygon class="st1" points="1130.5,1.7 1092.1,23.8 1189.8,46.3 	"/>
	<polygon class="st1" points="1175.2,-33.5 1210.3,-54.7 1112,-76.1 	"/>
	<polygon class="st1" points="914.8,223 949.9,201.9 929.4,302.8 	"/>
	<polygon class="st1" points="914.8,223 949.9,201.9 851.6,180.4 	"/>
	<polygon class="st1" points="975.2,237.3 951.4,202.6 930.9,303.5 	"/>
	<polygon class="st1" points="1002.1,289 1028.6,326 1049.3,226.3 	"/>
	<polygon class="st1" points="1002.1,289 1028.6,326 930.9,303.5 	"/>
	<polygon class="st1" points="975.2,237.3 951.4,202.6 1049.3,226.3 	"/>
	<polygon class="st1" points="1112.5,268.6 1147.6,247.4 1127.1,348.4 	"/>
	<polygon class="st1" points="1067.8,303.9 1029.4,325.9 1049.3,226 	"/>
	<polygon class="st1" points="1067.8,303.9 1029.4,325.9 1127.1,348.4 	"/>
	<polygon class="st1" points="1112.5,268.6 1147.6,247.4 1049.3,226 	"/>
	<polygon class="st1" points="990.5,348 1029,326 931.3,303.4 	"/>
	<polygon class="st1" points="1056.1,363.4 1029.7,326.4 1127.3,348.9 	"/>
	<polygon class="st1" points="1405.5,171.6 1370.4,192.8 1390.9,91.8 	"/>
	<polygon class="st1" points="1450.2,136.3 1488.7,114.3 1468.7,214.2 	"/>
	<polygon class="st1" points="1450.2,136.3 1488.7,114.3 1390.9,91.8 	"/>
	<polygon class="st1" points="1405.5,171.6 1370.4,192.8 1468.7,214.2 	"/>
	<polygon class="st1" points="1385.1,272 1350,293.1 1370.5,192.2 	"/>
	<polygon class="st1" points="1429.8,236.7 1468.2,214.7 1448.3,314.6 	"/>
	<polygon class="st1" points="1429.8,236.7 1468.2,214.7 1370.5,192.2 	"/>
	<polygon class="st1" points="1385.1,272 1350,293.1 1448.3,314.6 	"/>
	<polygon class="st1" points="1542.7,203.5 1566.5,238.2 1587,137.3 	"/>
	<polygon class="st1" points="1515.8,151.7 1489.3,114.8 1468.6,214.5 	"/>
	<polygon class="st1" points="1515.8,151.7 1489.3,114.8 1587,137.3 	"/>
	<polygon class="st1" points="1542.7,203.5 1566.5,238.2 1468.6,214.5 	"/>
	<polygon class="st1" points="1522.3,303.9 1546.1,338.6 1566.6,237.6 	"/>
	<polygon class="st1" points="1495.4,252.1 1468.9,215.1 1448.2,314.9 	"/>
	<polygon class="st1" points="1495.4,252.1 1468.9,215.1 1566.6,237.6 	"/>
	<polygon class="st1" points="1522.3,303.9 1546.1,338.6 1448.2,314.9 	"/>
	<polygon class="st1" points="1601.6,217.3 1566.4,238.5 1587,137.5 	"/>
	<polygon class="st1" points="1646.2,182 1684.7,160 1664.7,259.9 	"/>
	<polygon class="st1" points="1646.2,182 1684.7,160 1587,137.5 	"/>
	<polygon class="st1" points="1601.6,217.3 1566.4,238.5 1664.7,259.9 	"/>
	<polygon class="st1" points="1581.2,317.7 1546,338.9 1566.6,237.9 	"/>
	<polygon class="st1" points="1625.8,282.4 1664.2,260.4 1644.3,360.3 	"/>
	<polygon class="st1" points="1625.8,282.4 1664.2,260.4 1566.6,237.9 	"/>
	<polygon class="st1" points="1581.2,317.7 1546,338.9 1644.3,360.3 	"/>
	<polygon class="st1" points="1738.7,249.2 1762.5,283.9 1783.1,183 	"/>
	<polygon class="st1" points="1711.8,197.4 1685.4,160.5 1664.7,260.2 	"/>
	<polygon class="st1" points="1711.8,197.4 1685.4,160.5 1783.1,183 	"/>
	<polygon class="st1" points="1738.7,249.2 1762.5,283.9 1664.7,260.2 	"/>
	<polygon class="st1" points="1718.3,349.6 1742.1,384.3 1762.6,283.4 	"/>
	<polygon class="st1" points="1691.4,297.8 1664.9,260.9 1644.2,360.6 	"/>
	<polygon class="st1" points="1691.4,297.8 1664.9,260.9 1762.6,283.4 	"/>
	<polygon class="st1" points="1718.3,349.6 1742.1,384.3 1644.2,360.6 	"/>
	<polygon class="st1" points="1445.1,-30.8 1409.9,-9.6 1430.5,-110.6 	"/>
	<polygon class="st1" points="1489.7,-66.1 1528.2,-88.1 1508.2,11.8 	"/>
	<polygon class="st1" points="1489.7,-66.1 1528.2,-88.1 1430.5,-110.6 	"/>
	<polygon class="st1" points="1445.1,-30.8 1409.9,-9.6 1508.2,11.8 	"/>
	<polygon class="st1" points="1433.7,25.3 1409.9,-9.4 1389.3,91.6 	"/>
	<polygon class="st1" points="1460.6,77.1 1487,114.1 1507.7,14.4 	"/>
	<polygon class="st1" points="1460.6,77.1 1487,114.1 1389.3,91.6 	"/>
	<polygon class="st1" points="1433.7,25.3 1409.9,-9.4 1507.7,14.4 	"/>
	<polygon class="st1" points="1582.2,1.1 1606,35.8 1626.6,-65.1 	"/>
	<polygon class="st1" points="1555.3,-50.7 1528.9,-87.6 1508.2,12.1 	"/>
	<polygon class="st1" points="1555.3,-50.7 1528.9,-87.6 1626.6,-65.1 	"/>
	<polygon class="st1" points="1582.2,1.1 1606,35.8 1508.2,12.1 	"/>
	<polygon class="st1" points="1570.9,56.7 1606.1,35.5 1585.5,136.4 	"/>
	<polygon class="st1" points="1526.3,91.9 1487.8,114 1507.8,14.1 	"/>
	<polygon class="st1" points="1526.3,91.9 1487.8,114 1585.5,136.4 	"/>
	<polygon class="st1" points="1570.9,56.7 1606.1,35.5 1507.8,14.1 	"/>
	<polygon class="st1" points="1641.1,14.9 1606,36.1 1626.5,-64.9 	"/>
	<polygon class="st1" points="1685.7,-20.4 1724.2,-42.4 1704.3,57.5 	"/>
	<polygon class="st1" points="1685.7,-20.4 1724.2,-42.4 1626.5,-64.9 	"/>
	<polygon class="st1" points="1641.1,14.9 1606,36.1 1704.3,57.5 	"/>
	<polygon class="st1" points="1629.9,70 1606.1,35.2 1585.6,136.2 	"/>
	<polygon class="st1" points="1656.8,121.7 1683.3,158.7 1704,59 	"/>
	<polygon class="st1" points="1656.8,121.7 1683.3,158.7 1585.6,136.2 	"/>
	<polygon class="st1" points="1629.9,70 1606.1,35.2 1704,59 	"/>
	<polygon class="st1" points="1778.3,46.8 1802,81.5 1822.6,-19.4 	"/>
	<polygon class="st1" points="1751.4,-4.9 1724.9,-41.9 1704.2,57.8 	"/>
	<polygon class="st1" points="1751.4,-4.9 1724.9,-41.9 1822.6,-19.4 	"/>
	<polygon class="st1" points="1778.3,46.8 1802,81.5 1704.2,57.8 	"/>
	<polygon class="st1" points="1767.2,101.3 1802.3,80.2 1781.8,181.1 	"/>
	<polygon class="st1" points="1722.6,136.6 1684.1,158.6 1704,58.7 	"/>
	<polygon class="st1" points="1722.6,136.6 1684.1,158.6 1781.8,181.1 	"/>
	<polygon class="st1" points="1767.2,101.3 1802.3,80.2 1704,58.7 	"/>
	<polygon class="st1" points="1207.5,127.5 1172.4,148.7 1192.9,47.7 	"/>
	<polygon class="st1" points="1252.2,92.2 1290.6,70.2 1270.7,170.1 	"/>
	<polygon class="st1" points="1252.2,92.2 1290.6,70.2 1192.9,47.7 	"/>
	<polygon class="st1" points="1207.5,127.5 1172.4,148.7 1270.7,170.1 	"/>
	<polygon class="st1" points="1187.1,227.9 1152,249.1 1172.5,148.1 	"/>
	<polygon class="st1" points="1231.8,192.6 1270.2,170.6 1250.3,270.5 	"/>
	<polygon class="st1" points="1231.8,192.6 1270.2,170.6 1172.5,148.1 	"/>
	<polygon class="st1" points="1187.1,227.9 1152,249.1 1250.3,270.5 	"/>
	<polygon class="st1" points="1344.7,159.4 1368.5,194.1 1389,93.2 	"/>
	<polygon class="st1" points="1317.8,107.7 1291.3,70.7 1270.6,170.4 	"/>
	<polygon class="st1" points="1317.8,107.7 1291.3,70.7 1389,93.2 	"/>
	<polygon class="st1" points="1344.7,159.4 1368.5,194.1 1270.6,170.4 	"/>
	<polygon class="st1" points="1324.3,259.8 1348.1,294.5 1368.6,193.6 	"/>
	<polygon class="st1" points="1297.3,208 1270.9,171 1250.2,270.8 	"/>
	<polygon class="st1" points="1297.3,208 1270.9,171 1368.6,193.6 	"/>
	<polygon class="st1" points="1324.3,259.8 1348.1,294.5 1250.2,270.8 	"/>
	<polygon class="st1" points="1247.1,-74.9 1211.9,-53.7 1232.5,-154.7 	"/>
	<polygon class="st1" points="1291.7,-110.2 1330.2,-132.2 1310.2,-32.3 	"/>
	<polygon class="st1" points="1291.7,-110.2 1330.2,-132.2 1232.5,-154.7 	"/>
	<polygon class="st1" points="1247.1,-74.9 1211.9,-53.7 1310.2,-32.3 	"/>
	<polygon class="st1" points="1235.7,-18.8 1211.9,-53.5 1191.3,47.5 	"/>
	<polygon class="st1" points="1262.6,33 1289,70 1309.7,-29.7 	"/>
	<polygon class="st1" points="1262.6,33 1289,70 1191.3,47.5 	"/>
	<polygon class="st1" points="1235.7,-18.8 1211.9,-53.5 1309.7,-29.7 	"/>
	<polygon class="st1" points="1384.2,-43 1408,-8.3 1428.5,-109.2 	"/>
	<polygon class="st1" points="1357.3,-94.7 1330.8,-131.7 1310.2,-32 	"/>
	<polygon class="st1" points="1357.3,-94.7 1330.8,-131.7 1428.5,-109.2 	"/>
	<polygon class="st1" points="1384.2,-43 1408,-8.3 1310.2,-32 	"/>
	<polygon class="st1" points="1372.9,12.6 1408.1,-8.6 1387.5,92.4 	"/>
	<polygon class="st1" points="1328.3,47.9 1289.8,69.9 1309.8,-30 	"/>
	<polygon class="st1" points="1328.3,47.9 1289.8,69.9 1387.5,92.4 	"/>
	<polygon class="st1" points="1372.9,12.6 1408.1,-8.6 1309.8,-30 	"/>
	<polygon class="st1" points="1799.5,261.8 1764.4,283 1784.9,182 	"/>
	<polygon class="st1" points="1844.1,226.5 1882.6,204.5 1862.7,304.4 	"/>
	<polygon class="st1" points="1844.1,226.5 1882.6,204.5 1784.9,182 	"/>
	<polygon class="st1" points="1799.5,261.8 1764.4,283 1862.7,304.4 	"/>
	<polygon class="st1" points="1779.1,362.2 1743.9,383.3 1764.5,282.4 	"/>
	<polygon class="st1" points="1823.7,326.9 1862.2,304.9 1842.2,404.8 	"/>
	<polygon class="st1" points="1823.7,326.9 1862.2,304.9 1764.5,282.4 	"/>
	<polygon class="st1" points="1779.1,362.2 1743.9,383.3 1842.2,404.8 	"/>
	<polygon class="st1" points="1936.7,317.4 1960.4,352.1 1981,251.2 	"/>
	<polygon class="st1" points="1909.8,265.6 1883.3,228.7 1862.6,328.4 	"/>
	<polygon class="st1" points="1909.8,265.6 1883.3,228.7 1981,251.2 	"/>
	<polygon class="st1" points="1936.7,317.4 1960.4,352.1 1862.6,328.4 	"/>
	<polygon class="st1" points="1916.2,417.8 1940,452.5 1960.6,351.5 	"/>
	<polygon class="st1" points="1889.3,342.3 1862.9,305.4 1842.2,405.1 	"/>
	<polygon class="st1" points="1889.3,366 1862.9,329.1 1960.6,351.5 	"/>
	<polygon class="st1" points="1916.2,394.1 1940,428.8 1842.2,405.1 	"/>
	<polygon class="st1" points="1839,59.5 1803.9,80.6 1824.4,-20.4 	"/>
	<polygon class="st1" points="1883.7,47.8 1922.1,25.8 1902.2,125.7 	"/>
	<polygon class="st1" points="1883.7,24.1 1922.1,2.1 1824.4,-20.4 	"/>
	<polygon class="st1" points="1839,59.5 1803.9,80.6 1902.2,102 	"/>
	<polygon class="st1" points="1827.6,115.6 1803.8,80.8 1783.3,181.8 	"/>
	<polygon class="st1" points="1854.5,191 1881,228 1901.7,128.2 	"/>
	<polygon class="st1" points="1854.5,167.3 1881,204.3 1783.3,181.8 	"/>
	<polygon class="st1" points="1827.6,115.6 1803.8,80.8 1901.7,104.6 	"/>
	<polygon class="st1" points="1976.2,115 2000,149.7 2020.5,48.8 	"/>
	<polygon class="st1" points="1949.3,63.2 1922.8,26.3 1902.1,126 	"/>
	<polygon class="st1" points="1949.3,63.2 1922.8,26.3 2020.5,48.8 	"/>
	<polygon class="st1" points="1976.2,115 2000,149.7 1902.1,126 	"/>
	<polygon class="st1" points="1964.9,170.6 2000,149.4 1979.5,250.4 	"/>
	<polygon class="st1" points="1920.2,205.9 1881.8,227.9 1901.7,128 	"/>
	<polygon class="st1" points="1920.2,205.9 1881.8,227.9 1979.5,250.4 	"/>
	<polygon class="st1" points="1964.9,170.6 2000,149.4 1901.7,128 	"/>
	<polygon class="st1" points="1371,327.5 1347.2,292.8 1326.6,393.7 	"/>
	<polygon class="st1" points="1397.9,379.2 1424.3,416.2 1445,316.5 	"/>
	<polygon class="st1" points="1397.9,379.2 1424.3,416.2 1326.6,393.7 	"/>
	<polygon class="st1" points="1371,327.5 1347.2,292.8 1445,316.5 	"/>
	<polygon class="st1" points="1508.2,358.8 1543.4,337.6 1522.8,438.6 	"/>
	<polygon class="st1" points="1463.6,394.1 1425.1,416.1 1445.1,316.2 	"/>
	<polygon class="st1" points="1463.6,394.1 1425.1,416.1 1522.8,438.6 	"/>
	<polygon class="st1" points="1508.2,358.8 1543.4,337.6 1445.1,316.2 	"/>
	<polygon class="st1" points="1567.2,372.1 1543.4,337.4 1522.9,438.3 	"/>
	<polygon class="st1" points="1594.1,423.9 1620.6,460.8 1641.3,361.1 	"/>
	<polygon class="st1" points="1594.1,423.9 1620.6,460.8 1522.9,438.3 	"/>
	<polygon class="st1" points="1567.2,372.1 1543.4,337.4 1641.3,361.1 	"/>
	<polygon class="st1" points="1704.5,403.4 1739.6,382.3 1719.1,483.2 	"/>
	<polygon class="st1" points="1659.9,438.7 1621.4,460.7 1641.3,360.8 	"/>
	<polygon class="st1" points="1659.9,438.7 1621.4,460.7 1719.1,483.2 	"/>
	<polygon class="st1" points="1704.5,403.4 1739.6,382.3 1641.3,360.8 	"/>
	<polygon class="st1" points="1172.9,283.4 1149.2,248.7 1128.6,349.6 	"/>
	<polygon class="st1" points="1199.9,335.1 1226.3,372.1 1247,272.4 	"/>
	<polygon class="st1" points="1199.9,335.1 1226.3,372.1 1128.6,349.6 	"/>
	<polygon class="st1" points="1172.9,283.4 1149.2,248.7 1247,272.4 	"/>
	<polygon class="st1" points="1310.2,314.7 1345.4,293.6 1324.8,394.5 	"/>
	<polygon class="st1" points="1265.6,350 1227.1,372 1247.1,272.1 	"/>
	<polygon class="st1" points="1265.6,350 1227.1,372 1324.8,394.5 	"/>
	<polygon class="st1" points="1310.2,314.7 1345.4,293.6 1247.1,272.1 	"/>
	<polygon class="st1" points="1764.9,417.7 1741.1,383 1720.6,483.9 	"/>
	<polygon class="st1" points="1791.8,469.5 1818.3,506.4 1839,406.7 	"/>
	<polygon class="st1" points="1791.8,469.5 1818.3,506.4 1720.6,483.9 	"/>
	<polygon class="st1" points="1764.9,417.7 1741.1,383 1839,406.7 	"/>
	<polygon class="st1" points="1902.2,472.7 1937.3,451.5 1916.8,552.5 	"/>
	<polygon class="st1" points="1857.6,484.3 1819.1,506.3 1839,406.4 	"/>
	<polygon class="st1" points="1857.6,484.3 1819.1,506.3 1916.8,528.8 	"/>
	<polygon class="st1" points="1902.2,449 1937.3,427.9 1839,406.4 	"/>
	<polygon class="st1" points="1341.6,473.5 1306.5,494.6 1327,393.6 	"/>
	<polygon class="st1" points="1386.3,438.2 1424.7,416.2 1404.8,516 	"/>
	<polygon class="st1" points="1386.3,438.2 1424.7,416.2 1327,393.6 	"/>
	<polygon class="st1" points="1341.6,473.5 1306.5,494.6 1404.8,516 	"/>
	<polygon class="st1" points="1478.8,505.4 1502.6,540.1 1523.1,439.1 	"/>
	<polygon class="st1" points="1451.9,453.6 1425.4,416.6 1404.7,516.3 	"/>
	<polygon class="st1" points="1451.9,453.6 1425.4,416.6 1523.1,439.1 	"/>
	<polygon class="st1" points="1478.8,505.4 1502.6,540.1 1404.7,516.3 	"/>
	<polygon class="st1" points="1537.7,519.2 1502.5,540.3 1523.1,439.4 	"/>
	<polygon class="st1" points="1582.3,483.9 1620.8,461.9 1600.8,561.8 	"/>
	<polygon class="st1" points="1582.3,483.9 1620.8,461.9 1523.1,439.4 	"/>
	<polygon class="st1" points="1537.7,519.2 1502.5,540.3 1600.8,561.8 	"/>
	<polygon class="st1" points="1674.8,551.1 1698.6,585.8 1719.1,484.8 	"/>
	<polygon class="st1" points="1647.9,499.3 1621.4,462.3 1600.8,562 	"/>
	<polygon class="st1" points="1647.9,499.3 1621.4,462.3 1719.1,484.8 	"/>
	<polygon class="st1" points="1674.8,551.1 1698.6,585.8 1600.8,562 	"/>
	<polygon class="st1" points="1143.6,429.4 1108.5,450.5 1129,349.6 	"/>
	<polygon class="st1" points="1188.3,394.1 1226.7,372.1 1206.8,472 	"/>
	<polygon class="st1" points="1188.3,394.1 1226.7,372.1 1129,349.6 	"/>
	<polygon class="st1" points="1143.6,429.4 1108.5,450.5 1206.8,472 	"/>
	<polygon class="st1" points="1280.8,461.3 1304.6,496 1325.1,395 	"/>
	<polygon class="st1" points="1253.9,409.5 1227.4,372.5 1206.7,472.2 	"/>
	<polygon class="st1" points="1253.9,409.5 1227.4,372.5 1325.1,395 	"/>
	<polygon class="st1" points="1280.8,461.3 1304.6,496 1206.7,472.2 	"/>
	<polygon class="st1" points="1735.6,563.7 1700.4,584.8 1721,483.9 	"/>
	<polygon class="st1" points="1780.2,528.4 1818.7,506.4 1798.8,606.3 	"/>
	<polygon class="st1" points="1780.2,528.4 1818.7,506.4 1721,483.9 	"/>
	<polygon class="st1" points="1735.6,563.7 1700.4,584.8 1798.8,606.3 	"/>
	<polygon class="st1" points="1872.7,619.2 1896.5,654 1917.1,553 	"/>
	<polygon class="st1" points="1845.8,543.8 1819.4,506.8 1798.7,606.6 	"/>
	<polygon class="st1" points="1845.8,543.8 1819.4,506.8 1917.1,529.3 	"/>
	<polygon class="st1" points="1872.7,595.6 1896.5,630.3 1798.7,606.6 	"/>
	<polygon class="st1" points="1327.5,528.9 1303.7,494.2 1283.2,595.2 	"/>
	<polygon class="st1" points="1354.4,580.7 1380.8,617.7 1401.5,517.9 	"/>
	<polygon class="st1" points="1327.5,528.9 1303.7,494.2 1401.5,517.9 	"/>
	<polygon class="st1" points="1464.8,560.2 1499.9,539.1 1479.3,640.1 	"/>
	<polygon class="st1" points="1420.1,595.5 1381.7,617.5 1401.6,517.7 	"/>
	<polygon class="st1" points="1464.8,560.2 1499.9,539.1 1401.6,517.7 	"/>
	<polygon class="st1" points="1523.7,573.6 1499.9,538.8 1479.4,639.8 	"/>
	<polygon class="st1" points="1550.6,625.3 1577.1,662.3 1597.8,562.6 	"/>
	<polygon class="st1" points="1523.7,573.6 1499.9,538.8 1597.8,562.6 	"/>
	<polygon class="st1" points="1661,604.9 1696.1,583.7 1675.6,684.7 	"/>
	<polygon class="st1" points="1616.4,640.2 1577.9,662.2 1597.8,562.3 	"/>
	<polygon class="st1" points="1661,604.9 1696.1,583.7 1597.8,562.3 	"/>
	<polygon class="st1" points="1156.4,536.6 1182.8,573.6 1203.5,473.9 	"/>
	<polygon class="st1" points="1129.5,484.8 1105.7,450.1 1203.5,473.9 	"/>
	<polygon class="st1" points="1266.7,516.2 1301.9,495 1281.3,596 	"/>
	<polygon class="st1" points="1222.1,551.5 1183.6,573.5 1203.6,473.6 	"/>
	<polygon class="st1" points="1266.7,516.2 1301.9,495 1203.6,473.6 	"/>
	<polygon class="st1" points="1721.4,619.2 1697.7,584.4 1677.1,685.4 	"/>
	<polygon class="st1" points="1748.3,670.9 1774.8,707.9 1795.5,608.2 	"/>
	<polygon class="st1" points="1721.4,619.2 1697.7,584.4 1795.5,608.2 	"/>
	<polygon class="st1" points="1858.7,674.2 1893.8,653 1873.3,754 	"/>
	<polygon class="st1" points="1814.1,685.8 1775.6,707.8 1795.5,607.9 	"/>
	<polygon class="st1" points="1858.7,650.5 1893.8,629.3 1795.5,607.9 	"/>
</g>
</svg>
