<?xml version="1.0" encoding="utf-8"?>
<!-- Generator: Adobe Illustrator 24.3.0, SVG Export Plug-In . SVG Version: 6.00 Build 0)  -->
<svg version="1.1" id="Layer_1" xmlns="http://www.w3.org/2000/svg" xmlns:xlink="http://www.w3.org/1999/xlink" x="0px" y="0px"
	 viewBox="0 0 1920 500" style="enable-background:new 0 0 1920 500;" xml:space="preserve">
<style type="text/css">
	.st0{fill:#00626B;}
	.st1{opacity:0.2;fill:none;stroke:#BCE2E2;stroke-miterlimit:10;enable-background:new    ;}
</style>
<g id="Layer_2_1_">
	<rect y="-1" class="st0" width="1920" height="502"/>
</g>
<g id="Layer_1_1_">
	<polygon class="st1" points="972.3,8.2 1001.2,-12.5 993.5,68.8 	"/>
	<polygon class="st1" points="972.3,8.2 1001.2,-12.5 921.5,-22.4 	"/>
	<polygon class="st1" points="1051.6,54.2 1073.3,79.9 1081.5,-2.2 	"/>
	<polygon class="st1" points="1025.9,15.1 1001.8,-12.2 993.4,69 	"/>
	<polygon class="st1" points="1025.9,15.1 1001.8,-12.2 1081.5,-2.2 	"/>
	<polygon class="st1" points="1051.6,54.2 1073.3,79.9 993.4,69 	"/>
	<polygon class="st1" points="1043.5,135.9 1065.3,161.6 1073.4,79.5 	"/>
	<polygon class="st1" points="1017.8,96.8 993.7,69.5 1073.4,79.5 	"/>
	<polygon class="st1" points="1043.5,135.9 1065.3,161.6 985.3,150.7 	"/>
	<polygon class="st1" points="829.3,-157.9 858.1,-178.6 850.4,-97.3 	"/>
	<polygon class="st1" points="829.3,-157.9 858.1,-178.6 778.4,-188.5 	"/>
	<polygon class="st1" points="817.7,-41.4 841.9,-14.1 850.2,-95.3 	"/>
	<polygon class="st1" points="906.6,-130.8 928.3,-105 936.5,-187.2 	"/>
	<polygon class="st1" points="882.8,-151 858.7,-178.2 850.4,-97.1 	"/>
	<polygon class="st1" points="880.9,-169.8 856.8,-197.1 936.5,-187.2 	"/>
	<polygon class="st1" points="906.6,-130.8 928.3,-105 848.4,-116 	"/>
	<polygon class="st1" points="902.1,-85.6 928.4,-105.3 920.2,-23.2 	"/>
	<polygon class="st1" points="871.3,-34.9 842.5,-14.2 850.2,-95.5 	"/>
	<polygon class="st1" points="902.1,-85.6 928.4,-105.3 848.3,-114.4 	"/>
	<polygon class="st1" points="954.6,-124.6 928.3,-104.8 936.5,-187 	"/>
	<polygon class="st1" points="987.3,-156.3 1016.2,-177 1008.4,-95.8 	"/>
	<polygon class="st1" points="987.3,-156.3 1016.2,-177 936.5,-187 	"/>
	<polygon class="st1" points="954.6,-124.6 928.3,-104.8 1008.4,-95.8 	"/>
	<polygon class="st1" points="950.2,-79.8 928.4,-105.5 920.3,-23.4 	"/>
	<polygon class="st1" points="975.9,-40.7 1000,-13.4 1008.3,-94.6 	"/>
	<polygon class="st1" points="975.9,-40.7 1000,-13.4 920.3,-23.4 	"/>
	<polygon class="st1" points="950.2,-79.8 928.4,-105.5 1008.3,-94.6 	"/>
	<polygon class="st1" points="1066.5,-110.3 1088.3,-84.6 1096.5,-166.8 	"/>
	<polygon class="st1" points="1040.9,-149.4 1016.7,-176.7 1008.4,-95.5 	"/>
	<polygon class="st1" points="1040.9,-149.4 1016.7,-176.7 1096.5,-166.8 	"/>
	<polygon class="st1" points="1066.5,-110.3 1088.3,-84.6 1008.4,-95.5 	"/>
	<polygon class="st1" points="1062.2,-66 1088.4,-85.7 1080.3,-3.6 	"/>
	<polygon class="st1" points="1029.5,-34.2 1000.6,-13.6 1008.3,-94.8 	"/>
	<polygon class="st1" points="1029.5,-34.2 1000.6,-13.6 1080.3,-3.6 	"/>
	<polygon class="st1" points="1062.2,-66 1088.4,-85.7 1008.3,-94.8 	"/>
	<polygon class="st1" points="1101,59.3 1074.7,79 1082.9,-3.1 	"/>
	<polygon class="st1" points="1133.7,27.5 1162.6,6.8 1154.8,88.1 	"/>
	<polygon class="st1" points="1133.7,27.5 1162.6,6.8 1082.9,-3.1 	"/>
	<polygon class="st1" points="1101,59.3 1074.7,79 1154.8,88.1 	"/>
	<polygon class="st1" points="1092.9,141 1066.6,160.7 1074.8,78.5 	"/>
	<polygon class="st1" points="1125.6,109.2 1154.5,88.5 1146.8,169.8 	"/>
	<polygon class="st1" points="1125.6,109.2 1154.5,88.5 1074.8,78.5 	"/>
	<polygon class="st1" points="1092.9,141 1066.6,160.7 1146.8,169.8 	"/>
	<polygon class="st1" points="1213,73.5 1234.7,99.2 1242.9,17.1 	"/>
	<polygon class="st1" points="1187.3,34.4 1163.2,7.2 1154.8,88.3 	"/>
	<polygon class="st1" points="1187.3,34.4 1163.2,7.2 1242.9,17.1 	"/>
	<polygon class="st1" points="1213,73.5 1234.7,99.2 1154.8,88.3 	"/>
	<polygon class="st1" points="1204.9,155.2 1226.6,180.9 1234.8,98.8 	"/>
	<polygon class="st1" points="1179.2,116.1 1155.1,88.8 1146.7,170 	"/>
	<polygon class="st1" points="1179.2,116.1 1155.1,88.8 1234.8,98.8 	"/>
	<polygon class="st1" points="1204.9,155.2 1226.6,180.9 1146.7,170 	"/>
	<polygon class="st1" points="1116,-105.2 1089.7,-85.5 1097.9,-167.6 	"/>
	<polygon class="st1" points="1148.7,-137 1177.6,-157.7 1169.8,-76.5 	"/>
	<polygon class="st1" points="1148.7,-137 1177.6,-157.7 1097.9,-167.6 	"/>
	<polygon class="st1" points="1116,-105.2 1089.7,-85.5 1169.8,-76.5 	"/>
	<polygon class="st1" points="1111.5,-59.6 1089.7,-85.3 1081.6,-3.2 	"/>
	<polygon class="st1" points="1137.2,-20.5 1161.3,6.8 1169.6,-74.4 	"/>
	<polygon class="st1" points="1137.2,-20.5 1161.3,6.8 1081.6,-3.2 	"/>
	<polygon class="st1" points="1111.5,-59.6 1089.7,-85.3 1169.6,-74.4 	"/>
	<polygon class="st1" points="1227.9,-91 1249.7,-65.3 1257.9,-147.4 	"/>
	<polygon class="st1" points="1202.3,-130.1 1178.1,-157.4 1169.8,-76.2 	"/>
	<polygon class="st1" points="1202.3,-130.1 1178.1,-157.4 1257.9,-147.4 	"/>
	<polygon class="st1" points="1227.9,-91 1249.7,-65.3 1169.8,-76.2 	"/>
	<polygon class="st1" points="1223.4,-45.8 1249.7,-65.6 1241.6,16.6 	"/>
	<polygon class="st1" points="1190.8,-14.1 1161.9,6.6 1169.6,-74.6 	"/>
	<polygon class="st1" points="1190.8,-14.1 1161.9,6.6 1241.6,16.6 	"/>
	<polygon class="st1" points="1223.4,-45.8 1249.7,-65.6 1169.6,-74.6 	"/>
	<polygon class="st1" points="1036.8,179.9 1063.1,160.2 1055,242.3 	"/>
	<polygon class="st1" points="1036.8,179.9 1063.1,160.2 983,151.1 	"/>
	<polygon class="st1" points="1086.2,186.3 1064.4,160.6 1056.3,242.7 	"/>
	<polygon class="st1" points="1111.8,225.4 1136,252.7 1144.3,171.5 	"/>
	<polygon class="st1" points="1111.8,225.4 1136,252.7 1056.3,242.7 	"/>
	<polygon class="st1" points="1086.2,186.3 1064.4,160.6 1144.3,171.5 	"/>
	<polygon class="st1" points="1198.1,200.1 1224.4,180.4 1216.3,262.5 	"/>
	<polygon class="st1" points="1165.5,231.9 1136.6,252.6 1144.3,171.3 	"/>
	<polygon class="st1" points="1165.5,231.9 1136.6,252.6 1216.3,262.5 	"/>
	<polygon class="st1" points="1198.1,200.1 1224.4,180.4 1144.3,171.3 	"/>
	<polygon class="st1" points="1107.4,273.3 1136.3,252.6 1056.6,242.7 	"/>
	<polygon class="st1" points="1161,280.2 1136.9,252.9 1216.6,262.9 	"/>
	<polygon class="st1" points="1423.8,98.9 1397.5,118.6 1405.7,36.5 	"/>
	<polygon class="st1" points="1456.5,67.1 1485.4,46.4 1477.6,127.7 	"/>
	<polygon class="st1" points="1456.5,67.1 1485.4,46.4 1405.7,36.5 	"/>
	<polygon class="st1" points="1423.8,98.9 1397.5,118.6 1477.6,127.7 	"/>
	<polygon class="st1" points="1415.8,180.6 1389.5,200.3 1397.6,118.1 	"/>
	<polygon class="st1" points="1448.4,148.8 1477.3,128.1 1469.6,209.3 	"/>
	<polygon class="st1" points="1448.4,148.8 1477.3,128.1 1397.6,118.1 	"/>
	<polygon class="st1" points="1415.8,180.6 1389.5,200.3 1469.6,209.3 	"/>
	<polygon class="st1" points="1535.7,113.1 1557.5,138.8 1565.7,56.7 	"/>
	<polygon class="st1" points="1510.1,74 1486,46.7 1477.6,127.9 	"/>
	<polygon class="st1" points="1510.1,74 1486,46.7 1565.7,56.7 	"/>
	<polygon class="st1" points="1535.7,113.1 1557.5,138.8 1477.6,127.9 	"/>
	<polygon class="st1" points="1527.7,194.8 1549.4,220.5 1557.6,138.4 	"/>
	<polygon class="st1" points="1502,155.7 1477.9,128.4 1469.5,209.6 	"/>
	<polygon class="st1" points="1502,155.7 1477.9,128.4 1557.6,138.4 	"/>
	<polygon class="st1" points="1527.7,194.8 1549.4,220.5 1469.5,209.6 	"/>
	<polygon class="st1" points="1583.8,119.3 1557.5,139 1565.6,56.9 	"/>
	<polygon class="st1" points="1616.5,87.5 1645.3,66.9 1637.6,148.1 	"/>
	<polygon class="st1" points="1616.5,87.5 1645.3,66.9 1565.6,56.9 	"/>
	<polygon class="st1" points="1583.8,119.3 1557.5,139 1637.6,148.1 	"/>
	<polygon class="st1" points="1575.7,201 1549.4,220.7 1557.6,138.6 	"/>
	<polygon class="st1" points="1608.4,169.2 1637.3,148.5 1629.5,229.8 	"/>
	<polygon class="st1" points="1608.4,169.2 1637.3,148.5 1557.6,138.6 	"/>
	<polygon class="st1" points="1575.7,201 1549.4,220.7 1629.5,229.8 	"/>
	<polygon class="st1" points="1695.7,133.5 1717.5,159.3 1725.6,77.1 	"/>
	<polygon class="st1" points="1670,94.5 1645.9,67.2 1637.6,148.3 	"/>
	<polygon class="st1" points="1670,94.5 1645.9,67.2 1725.6,77.1 	"/>
	<polygon class="st1" points="1695.7,133.5 1717.5,159.3 1637.6,148.3 	"/>
	<polygon class="st1" points="1687.6,215.2 1709.4,240.9 1717.5,158.8 	"/>
	<polygon class="st1" points="1662,176.1 1637.8,148.8 1629.5,230 	"/>
	<polygon class="st1" points="1662,176.1 1637.8,148.8 1717.5,158.8 	"/>
	<polygon class="st1" points="1687.6,215.2 1709.4,240.9 1629.5,230 	"/>
	<polygon class="st1" points="1438.8,-65.7 1412.5,-45.9 1420.7,-128.1 	"/>
	<polygon class="st1" points="1471.5,-97.4 1500.4,-118.1 1492.6,-36.9 	"/>
	<polygon class="st1" points="1471.5,-97.4 1500.4,-118.1 1420.7,-128.1 	"/>
	<polygon class="st1" points="1438.8,-65.7 1412.5,-45.9 1492.6,-36.9 	"/>
	<polygon class="st1" points="1434.3,-20 1412.5,-45.7 1404.4,36.4 	"/>
	<polygon class="st1" points="1460,19.1 1484.1,46.4 1492.4,-34.8 	"/>
	<polygon class="st1" points="1460,19.1 1484.1,46.4 1404.4,36.4 	"/>
	<polygon class="st1" points="1434.3,-20 1412.5,-45.7 1492.4,-34.8 	"/>
	<polygon class="st1" points="1550.7,-51.4 1572.5,-25.7 1580.6,-107.9 	"/>
	<polygon class="st1" points="1525.1,-90.5 1500.9,-117.8 1492.6,-36.6 	"/>
	<polygon class="st1" points="1525.1,-90.5 1500.9,-117.8 1580.6,-107.9 	"/>
	<polygon class="st1" points="1550.7,-51.4 1572.5,-25.7 1492.6,-36.6 	"/>
	<polygon class="st1" points="1546.3,-6.2 1572.6,-26 1564.4,56.2 	"/>
	<polygon class="st1" points="1513.6,25.5 1484.7,46.2 1492.4,-35 	"/>
	<polygon class="st1" points="1513.6,25.5 1484.7,46.2 1564.4,56.2 	"/>
	<polygon class="st1" points="1546.3,-6.2 1572.6,-26 1492.4,-35 	"/>
	<polygon class="st1" points="1598.8,-45.2 1572.5,-25.5 1580.6,-107.6 	"/>
	<polygon class="st1" points="1631.5,-77 1660.3,-97.7 1652.6,-16.4 	"/>
	<polygon class="st1" points="1631.5,-77 1660.3,-97.7 1580.6,-107.6 	"/>
	<polygon class="st1" points="1598.8,-45.2 1572.5,-25.5 1652.6,-16.4 	"/>
	<polygon class="st1" points="1594.3,-0.4 1572.6,-26.2 1564.4,56 	"/>
	<polygon class="st1" points="1620,38.6 1644.1,65.9 1652.5,-15.3 	"/>
	<polygon class="st1" points="1620,38.6 1644.1,65.9 1564.4,56 	"/>
	<polygon class="st1" points="1594.3,-0.4 1572.6,-26.2 1652.5,-15.3 	"/>
	<polygon class="st1" points="1710.7,-31 1732.5,-5.3 1740.6,-87.4 	"/>
	<polygon class="st1" points="1685,-70.1 1660.9,-97.4 1652.6,-16.2 	"/>
	<polygon class="st1" points="1685,-70.1 1660.9,-97.4 1740.6,-87.4 	"/>
	<polygon class="st1" points="1710.7,-31 1732.5,-5.3 1652.6,-16.2 	"/>
	<polygon class="st1" points="1706.3,13.3 1732.6,-6.4 1724.5,75.7 	"/>
	<polygon class="st1" points="1673.6,45.1 1644.8,65.8 1652.5,-15.5 	"/>
	<polygon class="st1" points="1673.6,45.1 1644.8,65.8 1724.5,75.7 	"/>
	<polygon class="st1" points="1706.3,13.3 1732.6,-6.4 1652.5,-15.5 	"/>
	<polygon class="st1" points="1262.4,79.9 1236.1,99.6 1244.2,17.5 	"/>
	<polygon class="st1" points="1295.1,48.1 1324,27.5 1316.2,108.7 	"/>
	<polygon class="st1" points="1295.1,48.1 1324,27.5 1244.2,17.5 	"/>
	<polygon class="st1" points="1262.4,79.9 1236.1,99.6 1316.2,108.7 	"/>
	<polygon class="st1" points="1254.3,161.6 1228,181.3 1236.2,99.2 	"/>
	<polygon class="st1" points="1287,129.8 1315.9,109.1 1308.1,190.4 	"/>
	<polygon class="st1" points="1287,129.8 1315.9,109.1 1236.2,99.2 	"/>
	<polygon class="st1" points="1254.3,161.6 1228,181.3 1308.1,190.4 	"/>
	<polygon class="st1" points="1374.3,94.1 1396.1,119.9 1404.2,37.7 	"/>
	<polygon class="st1" points="1348.6,55.1 1324.5,27.8 1316.2,108.9 	"/>
	<polygon class="st1" points="1348.6,55.1 1324.5,27.8 1404.2,37.7 	"/>
	<polygon class="st1" points="1374.3,94.1 1396.1,119.9 1316.2,108.9 	"/>
	<polygon class="st1" points="1366.2,175.8 1388,201.5 1396.2,119.4 	"/>
	<polygon class="st1" points="1340.6,136.7 1316.5,109.4 1308.1,190.6 	"/>
	<polygon class="st1" points="1340.6,136.7 1316.5,109.4 1396.2,119.4 	"/>
	<polygon class="st1" points="1366.2,175.8 1388,201.5 1308.1,190.6 	"/>
	<polygon class="st1" points="1277.4,-84.6 1251.1,-64.9 1259.2,-147.1 	"/>
	<polygon class="st1" points="1310.1,-116.4 1338.9,-137.1 1331.2,-55.8 	"/>
	<polygon class="st1" points="1310.1,-116.4 1338.9,-137.1 1259.2,-147.1 	"/>
	<polygon class="st1" points="1277.4,-84.6 1251.1,-64.9 1331.2,-55.8 	"/>
	<polygon class="st1" points="1272.9,-39 1251.1,-64.7 1242.9,17.4 	"/>
	<polygon class="st1" points="1298.5,0.1 1322.7,27.4 1331,-53.8 	"/>
	<polygon class="st1" points="1298.5,0.1 1322.7,27.4 1242.9,17.4 	"/>
	<polygon class="st1" points="1272.9,-39 1251.1,-64.7 1331,-53.8 	"/>
	<polygon class="st1" points="1389.3,-70.4 1411.1,-44.7 1419.2,-126.8 	"/>
	<polygon class="st1" points="1363.6,-109.5 1339.5,-136.8 1331.2,-55.6 	"/>
	<polygon class="st1" points="1363.6,-109.5 1339.5,-136.8 1419.2,-126.8 	"/>
	<polygon class="st1" points="1389.3,-70.4 1411.1,-44.7 1331.2,-55.6 	"/>
	<polygon class="st1" points="1384.8,-25.2 1411.1,-44.9 1403,37.2 	"/>
	<polygon class="st1" points="1352.1,6.6 1323.3,27.2 1331,-54 	"/>
	<polygon class="st1" points="1352.1,6.6 1323.3,27.2 1403,37.2 	"/>
	<polygon class="st1" points="1384.8,-25.2 1411.1,-44.9 1331,-54 	"/>
	<polygon class="st1" points="1745.2,138.6 1718.9,158.3 1727,76.2 	"/>
	<polygon class="st1" points="1777.9,106.8 1806.7,86.2 1799,167.4 	"/>
	<polygon class="st1" points="1777.9,106.8 1806.7,86.2 1727,76.2 	"/>
	<polygon class="st1" points="1745.2,138.6 1718.9,158.3 1799,167.4 	"/>
	<polygon class="st1" points="1737.1,220.3 1710.8,240 1719,157.9 	"/>
	<polygon class="st1" points="1769.8,188.5 1798.6,167.8 1790.9,249.1 	"/>
	<polygon class="st1" points="1769.8,188.5 1798.6,167.8 1719,157.9 	"/>
	<polygon class="st1" points="1737.1,220.3 1710.8,240 1790.9,249.1 	"/>
	<polygon class="st1" points="1859,171.7 1880.8,197.5 1889,115.3 	"/>
	<polygon class="st1" points="1833.4,132.7 1809.3,105.4 1800.9,186.5 	"/>
	<polygon class="st1" points="1833.4,132.7 1809.3,105.4 1889,115.3 	"/>
	<polygon class="st1" points="1859,171.7 1880.8,197.5 1800.9,186.5 	"/>
	<polygon class="st1" points="1851,253.4 1872.7,279.1 1880.9,197 	"/>
	<polygon class="st1" points="1823.3,195.5 1799.2,168.1 1790.9,249.3 	"/>
	<polygon class="st1" points="1825.3,214.3 1801.2,187 1880.9,197 	"/>
	<polygon class="st1" points="1849,234.5 1870.8,260.2 1790.9,249.3 	"/>
	<polygon class="st1" points="1760.2,-25.9 1733.9,-6.2 1742,-88.3 	"/>
	<polygon class="st1" points="1794.8,-38.8 1823.6,-59.5 1815.9,21.8 	"/>
	<polygon class="st1" points="1792.8,-57.7 1821.7,-78.4 1742,-88.3 	"/>
	<polygon class="st1" points="1760.2,-25.9 1733.9,-6.2 1814,2.9 	"/>
	<polygon class="st1" points="1755.7,19.7 1733.9,-6 1725.7,76.1 	"/>
	<polygon class="st1" points="1783.3,77.7 1807.4,105 1815.7,23.8 	"/>
	<polygon class="st1" points="1781.3,58.8 1805.4,86.1 1725.7,76.1 	"/>
	<polygon class="st1" points="1755.7,19.7 1733.9,-6 1813.8,4.9 	"/>
	<polygon class="st1" points="1874,7.2 1895.8,32.9 1903.9,-49.2 	"/>
	<polygon class="st1" points="1848.3,-31.9 1824.2,-59.2 1815.9,22 	"/>
	<polygon class="st1" points="1848.3,-31.9 1824.2,-59.2 1903.9,-49.2 	"/>
	<polygon class="st1" points="1874,7.2 1895.8,32.9 1815.9,22 	"/>
	<polygon class="st1" points="1869.6,52.4 1895.8,32.7 1887.7,114.8 	"/>
	<polygon class="st1" points="1836.9,84.2 1808,104.8 1815.7,23.6 	"/>
	<polygon class="st1" points="1836.9,84.2 1808,104.8 1887.7,114.8 	"/>
	<polygon class="st1" points="1869.6,52.4 1895.8,32.7 1815.7,23.6 	"/>
	<polygon class="st1" points="1409,225.9 1387.2,200.2 1379.1,282.3 	"/>
	<polygon class="st1" points="1434.7,265 1458.8,292.3 1467.1,211.1 	"/>
	<polygon class="st1" points="1434.7,265 1458.8,292.3 1379.1,282.3 	"/>
	<polygon class="st1" points="1409,225.9 1387.2,200.2 1467.1,211.1 	"/>
	<polygon class="st1" points="1520.9,239.7 1547.2,220 1539.1,302.1 	"/>
	<polygon class="st1" points="1488.3,271.5 1459.4,292.1 1467.1,210.9 	"/>
	<polygon class="st1" points="1488.3,271.5 1459.4,292.1 1539.1,302.1 	"/>
	<polygon class="st1" points="1520.9,239.7 1547.2,220 1467.1,210.9 	"/>
	<polygon class="st1" points="1569,245.5 1547.3,219.8 1539.1,301.9 	"/>
	<polygon class="st1" points="1594.7,284.5 1618.8,311.9 1627.2,230.7 	"/>
	<polygon class="st1" points="1594.7,284.5 1618.8,311.9 1539.1,301.9 	"/>
	<polygon class="st1" points="1569,245.5 1547.3,219.8 1627.2,230.7 	"/>
	<polygon class="st1" points="1681,259.2 1707.3,239.5 1699.2,321.6 	"/>
	<polygon class="st1" points="1648.3,291 1619.4,311.7 1627.2,230.4 	"/>
	<polygon class="st1" points="1648.3,291 1619.4,311.7 1699.2,321.6 	"/>
	<polygon class="st1" points="1681,259.2 1707.3,239.5 1627.2,230.4 	"/>
	<polygon class="st1" points="1247.6,207 1225.8,181.2 1217.6,263.4 	"/>
	<polygon class="st1" points="1273.2,246 1297.3,273.3 1305.7,192.1 	"/>
	<polygon class="st1" points="1273.2,246 1297.3,273.3 1217.6,263.4 	"/>
	<polygon class="st1" points="1247.6,207 1225.8,181.2 1305.7,192.1 	"/>
	<polygon class="st1" points="1359.5,220.7 1385.8,201 1377.7,283.1 	"/>
	<polygon class="st1" points="1326.8,252.5 1298,273.2 1305.7,191.9 	"/>
	<polygon class="st1" points="1326.8,252.5 1298,273.2 1377.7,283.1 	"/>
	<polygon class="st1" points="1359.5,220.7 1385.8,201 1305.7,191.9 	"/>
	<polygon class="st1" points="1730.3,265.7 1708.6,240 1700.4,322.1 	"/>
	<polygon class="st1" points="1756,304.7 1780.1,332 1788.5,250.9 	"/>
	<polygon class="st1" points="1756,304.7 1780.1,332 1700.4,322.1 	"/>
	<polygon class="st1" points="1730.3,265.7 1708.6,240 1788.5,250.9 	"/>
	<polygon class="st1" points="1844.2,298.3 1870.5,278.6 1862.4,360.7 	"/>
	<polygon class="st1" points="1809.6,311.2 1780.8,331.9 1788.5,250.6 	"/>
	<polygon class="st1" points="1809.6,311.2 1780.8,331.9 1860.5,341.8 	"/>
	<polygon class="st1" points="1842.3,279.4 1868.6,259.7 1788.5,250.6 	"/>
	<polygon class="st1" points="1397.5,344.7 1371.2,364.4 1379.4,282.3 	"/>
	<polygon class="st1" points="1430.2,312.9 1459.1,292.2 1451.3,373.5 	"/>
	<polygon class="st1" points="1430.2,312.9 1459.1,292.2 1379.4,282.3 	"/>
	<polygon class="st1" points="1397.5,344.7 1371.2,364.4 1451.3,373.5 	"/>
	<polygon class="st1" points="1509.5,358.9 1531.2,384.6 1539.4,302.5 	"/>
	<polygon class="st1" points="1483.8,319.8 1459.7,292.5 1451.3,373.7 	"/>
	<polygon class="st1" points="1483.8,319.8 1459.7,292.5 1539.4,302.5 	"/>
	<polygon class="st1" points="1509.5,358.9 1531.2,384.6 1451.3,373.7 	"/>
	<polygon class="st1" points="1557.5,365.1 1531.2,384.8 1539.3,302.7 	"/>
	<polygon class="st1" points="1590.2,333.3 1619,312.7 1611.3,393.9 	"/>
	<polygon class="st1" points="1590.2,333.3 1619,312.7 1539.3,302.7 	"/>
	<polygon class="st1" points="1557.5,365.1 1531.2,384.8 1611.3,393.9 	"/>
	<polygon class="st1" points="1669.4,379.3 1691.2,405.1 1699.3,322.9 	"/>
	<polygon class="st1" points="1643.7,340.3 1619.6,313 1611.3,394.1 	"/>
	<polygon class="st1" points="1643.7,340.3 1619.6,313 1699.3,322.9 	"/>
	<polygon class="st1" points="1669.4,379.3 1691.2,405.1 1611.3,394.1 	"/>
	<polygon class="st1" points="1236.1,325.7 1209.8,345.4 1218,263.3 	"/>
	<polygon class="st1" points="1268.8,293.9 1297.7,273.2 1289.9,354.5 	"/>
	<polygon class="st1" points="1268.8,293.9 1297.7,273.2 1218,263.3 	"/>
	<polygon class="st1" points="1236.1,325.7 1209.8,345.4 1289.9,354.5 	"/>
	<polygon class="st1" points="1348,339.9 1369.8,365.6 1377.9,283.5 	"/>
	<polygon class="st1" points="1322.4,300.9 1298.2,273.5 1289.9,354.7 	"/>
	<polygon class="st1" points="1322.4,300.9 1298.2,273.5 1377.9,283.5 	"/>
	<polygon class="st1" points="1348,339.9 1369.8,365.6 1289.9,354.7 	"/>
	<polygon class="st1" points="1718.9,384.4 1692.6,404.1 1700.7,322 	"/>
	<polygon class="st1" points="1751.6,352.6 1780.4,332 1772.7,413.2 	"/>
	<polygon class="st1" points="1751.6,352.6 1780.4,332 1700.7,322 	"/>
	<polygon class="st1" points="1718.9,384.4 1692.6,404.1 1772.7,413.2 	"/>
	<polygon class="st1" points="1832.7,417.5 1854.5,443.2 1862.7,361.1 	"/>
	<polygon class="st1" points="1805.1,359.6 1781,332.3 1772.7,413.5 	"/>
	<polygon class="st1" points="1805.1,359.6 1781,332.3 1860.7,342.2 	"/>
	<polygon class="st1" points="1830.8,398.7 1852.6,424.4 1772.7,413.5 	"/>
	<polygon class="st1" points="1390.8,390 1369,364.3 1360.9,446.5 	"/>
	<polygon class="st1" points="1416.5,429.1 1440.5,456.4 1448.9,375.2 	"/>
	<polygon class="st1" points="1390.8,390 1369,364.3 1448.9,375.2 	"/>
	<polygon class="st1" points="1502.7,403.8 1529,384.1 1520.9,466.2 	"/>
	<polygon class="st1" points="1470,435.6 1441.2,456.3 1448.9,375 	"/>
	<polygon class="st1" points="1502.7,403.8 1529,384.1 1448.9,375 	"/>
	<polygon class="st1" points="1550.8,409.6 1529,383.9 1520.9,466 	"/>
	<polygon class="st1" points="1576.5,448.7 1600.6,476 1609,394.8 	"/>
	<polygon class="st1" points="1550.8,409.6 1529,383.9 1609,394.8 	"/>
	<polygon class="st1" points="1662.8,423.4 1689.1,403.6 1680.9,485.8 	"/>
	<polygon class="st1" points="1630.1,455.1 1601.2,475.8 1609,394.6 	"/>
	<polygon class="st1" points="1662.8,423.4 1689.1,403.6 1609,394.6 	"/>
	<polygon class="st1" points="1255,410.1 1279.1,437.4 1287.5,356.3 	"/>
	<polygon class="st1" points="1229.3,371.1 1207.6,345.4 1287.5,356.3 	"/>
	<polygon class="st1" points="1341.3,384.8 1367.6,365.1 1359.5,447.2 	"/>
	<polygon class="st1" points="1308.6,416.6 1279.8,437.3 1287.5,356 	"/>
	<polygon class="st1" points="1341.3,384.8 1367.6,365.1 1287.5,356 	"/>
	<polygon class="st1" points="1712.1,429.8 1690.3,404.1 1682.2,486.2 	"/>
	<polygon class="st1" points="1737.8,468.9 1761.9,496.2 1770.3,415 	"/>
	<polygon class="st1" points="1712.1,429.8 1690.3,404.1 1770.3,415 	"/>
	<polygon class="st1" points="1826,462.4 1852.3,442.7 1844.2,524.8 	"/>
	<polygon class="st1" points="1791.4,475.3 1762.5,496 1770.3,414.8 	"/>
	<polygon class="st1" points="1824.1,443.5 1850.4,423.8 1770.3,414.8 	"/>
	<polygon class="st1" points="972.3,8.2 1001.2,-12.5 993.5,68.8 	"/>
	<polygon class="st1" points="972.3,8.2 1001.2,-12.5 921.5,-22.4 	"/>
	<polygon class="st1" points="1051.6,54.2 1073.3,79.9 1081.5,-2.2 	"/>
	<polygon class="st1" points="1025.9,15.1 1001.8,-12.2 993.4,69 	"/>
	<polygon class="st1" points="1025.9,15.1 1001.8,-12.2 1081.5,-2.2 	"/>
	<polygon class="st1" points="1051.6,54.2 1073.3,79.9 993.4,69 	"/>
	<polygon class="st1" points="1043.5,135.9 1065.3,161.6 1073.4,79.5 	"/>
	<polygon class="st1" points="1017.8,96.8 993.7,69.5 1073.4,79.5 	"/>
	<polygon class="st1" points="1043.5,135.9 1065.3,161.6 985.3,150.7 	"/>
	<polygon class="st1" points="829.3,-157.9 858.1,-178.6 850.4,-97.3 	"/>
	<polygon class="st1" points="829.3,-157.9 858.1,-178.6 778.4,-188.5 	"/>
	<polygon class="st1" points="817.7,-41.4 841.9,-14.1 850.2,-95.3 	"/>
	<polygon class="st1" points="906.6,-130.8 928.3,-105 936.5,-187.2 	"/>
	<polygon class="st1" points="882.8,-151 858.7,-178.2 850.4,-97.1 	"/>
	<polygon class="st1" points="880.9,-169.8 856.8,-197.1 936.5,-187.2 	"/>
	<polygon class="st1" points="906.6,-130.8 928.3,-105 848.4,-116 	"/>
	<polygon class="st1" points="902.1,-85.6 928.4,-105.3 920.2,-23.2 	"/>
	<polygon class="st1" points="871.3,-34.9 842.5,-14.2 850.2,-95.5 	"/>
	<polygon class="st1" points="902.1,-85.6 928.4,-105.3 848.3,-114.4 	"/>
	<polygon class="st1" points="954.6,-124.6 928.3,-104.8 936.5,-187 	"/>
	<polygon class="st1" points="987.3,-156.3 1016.2,-177 1008.4,-95.8 	"/>
	<polygon class="st1" points="987.3,-156.3 1016.2,-177 936.5,-187 	"/>
	<polygon class="st1" points="954.6,-124.6 928.3,-104.8 1008.4,-95.8 	"/>
	<polygon class="st1" points="950.2,-79.8 928.4,-105.5 920.3,-23.4 	"/>
	<polygon class="st1" points="975.9,-40.7 1000,-13.4 1008.3,-94.6 	"/>
	<polygon class="st1" points="975.9,-40.7 1000,-13.4 920.3,-23.4 	"/>
	<polygon class="st1" points="950.2,-79.8 928.4,-105.5 1008.3,-94.6 	"/>
	<polygon class="st1" points="1066.5,-110.3 1088.3,-84.6 1096.5,-166.8 	"/>
	<polygon class="st1" points="1040.9,-149.4 1016.7,-176.7 1008.4,-95.5 	"/>
	<polygon class="st1" points="1040.9,-149.4 1016.7,-176.7 1096.5,-166.8 	"/>
	<polygon class="st1" points="1066.5,-110.3 1088.3,-84.6 1008.4,-95.5 	"/>
	<polygon class="st1" points="1062.2,-66 1088.4,-85.7 1080.3,-3.6 	"/>
	<polygon class="st1" points="1029.5,-34.2 1000.6,-13.6 1008.3,-94.8 	"/>
	<polygon class="st1" points="1029.5,-34.2 1000.6,-13.6 1080.3,-3.6 	"/>
	<polygon class="st1" points="1062.2,-66 1088.4,-85.7 1008.3,-94.8 	"/>
	<polygon class="st1" points="1101,59.3 1074.7,79 1082.9,-3.1 	"/>
	<polygon class="st1" points="1133.7,27.5 1162.6,6.8 1154.8,88.1 	"/>
	<polygon class="st1" points="1133.7,27.5 1162.6,6.8 1082.9,-3.1 	"/>
	<polygon class="st1" points="1101,59.3 1074.7,79 1154.8,88.1 	"/>
	<polygon class="st1" points="1092.9,141 1066.6,160.7 1074.8,78.5 	"/>
	<polygon class="st1" points="1125.6,109.2 1154.5,88.5 1146.8,169.8 	"/>
	<polygon class="st1" points="1125.6,109.2 1154.5,88.5 1074.8,78.5 	"/>
	<polygon class="st1" points="1092.9,141 1066.6,160.7 1146.8,169.8 	"/>
	<polygon class="st1" points="1213,73.5 1234.7,99.2 1242.9,17.1 	"/>
	<polygon class="st1" points="1187.3,34.4 1163.2,7.2 1154.8,88.3 	"/>
	<polygon class="st1" points="1187.3,34.4 1163.2,7.2 1242.9,17.1 	"/>
	<polygon class="st1" points="1213,73.5 1234.7,99.2 1154.8,88.3 	"/>
	<polygon class="st1" points="1204.9,155.2 1226.6,180.9 1234.8,98.8 	"/>
	<polygon class="st1" points="1179.2,116.1 1155.1,88.8 1146.7,170 	"/>
	<polygon class="st1" points="1179.2,116.1 1155.1,88.8 1234.8,98.8 	"/>
	<polygon class="st1" points="1204.9,155.2 1226.6,180.9 1146.7,170 	"/>
	<polygon class="st1" points="1116,-105.2 1089.7,-85.5 1097.9,-167.6 	"/>
	<polygon class="st1" points="1148.7,-137 1177.6,-157.7 1169.8,-76.5 	"/>
	<polygon class="st1" points="1148.7,-137 1177.6,-157.7 1097.9,-167.6 	"/>
	<polygon class="st1" points="1116,-105.2 1089.7,-85.5 1169.8,-76.5 	"/>
	<polygon class="st1" points="1111.5,-59.6 1089.7,-85.3 1081.6,-3.2 	"/>
	<polygon class="st1" points="1137.2,-20.5 1161.3,6.8 1169.6,-74.4 	"/>
	<polygon class="st1" points="1137.2,-20.5 1161.3,6.8 1081.6,-3.2 	"/>
	<polygon class="st1" points="1111.5,-59.6 1089.7,-85.3 1169.6,-74.4 	"/>
	<polygon class="st1" points="1227.9,-91 1249.7,-65.3 1257.9,-147.4 	"/>
	<polygon class="st1" points="1202.3,-130.1 1178.1,-157.4 1169.8,-76.2 	"/>
	<polygon class="st1" points="1202.3,-130.1 1178.1,-157.4 1257.9,-147.4 	"/>
	<polygon class="st1" points="1227.9,-91 1249.7,-65.3 1169.8,-76.2 	"/>
	<polygon class="st1" points="1223.4,-45.8 1249.7,-65.6 1241.6,16.6 	"/>
	<polygon class="st1" points="1190.8,-14.1 1161.9,6.6 1169.6,-74.6 	"/>
	<polygon class="st1" points="1190.8,-14.1 1161.9,6.6 1241.6,16.6 	"/>
	<polygon class="st1" points="1223.4,-45.8 1249.7,-65.6 1169.6,-74.6 	"/>
	<polygon class="st1" points="1036.8,179.9 1063.1,160.2 1055,242.3 	"/>
	<polygon class="st1" points="1036.8,179.9 1063.1,160.2 983,151.1 	"/>
	<polygon class="st1" points="1086.2,186.3 1064.4,160.6 1056.3,242.7 	"/>
	<polygon class="st1" points="1111.8,225.4 1136,252.7 1144.3,171.5 	"/>
	<polygon class="st1" points="1111.8,225.4 1136,252.7 1056.3,242.7 	"/>
	<polygon class="st1" points="1086.2,186.3 1064.4,160.6 1144.3,171.5 	"/>
	<polygon class="st1" points="1198.1,200.1 1224.4,180.4 1216.3,262.5 	"/>
	<polygon class="st1" points="1165.5,231.9 1136.6,252.6 1144.3,171.3 	"/>
	<polygon class="st1" points="1165.5,231.9 1136.6,252.6 1216.3,262.5 	"/>
	<polygon class="st1" points="1198.1,200.1 1224.4,180.4 1144.3,171.3 	"/>
	<polygon class="st1" points="1107.4,273.3 1136.3,252.6 1056.6,242.7 	"/>
	<polygon class="st1" points="1161,280.2 1136.9,252.9 1216.6,262.9 	"/>
	<polygon class="st1" points="1423.8,98.9 1397.5,118.6 1405.7,36.5 	"/>
	<polygon class="st1" points="1456.5,67.1 1485.4,46.4 1477.6,127.7 	"/>
	<polygon class="st1" points="1456.5,67.1 1485.4,46.4 1405.7,36.5 	"/>
	<polygon class="st1" points="1423.8,98.9 1397.5,118.6 1477.6,127.7 	"/>
	<polygon class="st1" points="1415.8,180.6 1389.5,200.3 1397.6,118.1 	"/>
	<polygon class="st1" points="1448.4,148.8 1477.3,128.1 1469.6,209.3 	"/>
	<polygon class="st1" points="1448.4,148.8 1477.3,128.1 1397.6,118.1 	"/>
	<polygon class="st1" points="1415.8,180.6 1389.5,200.3 1469.6,209.3 	"/>
	<polygon class="st1" points="1535.7,113.1 1557.5,138.8 1565.7,56.7 	"/>
	<polygon class="st1" points="1510.1,74 1486,46.7 1477.6,127.9 	"/>
	<polygon class="st1" points="1510.1,74 1486,46.7 1565.7,56.7 	"/>
	<polygon class="st1" points="1535.7,113.1 1557.5,138.8 1477.6,127.9 	"/>
	<polygon class="st1" points="1527.7,194.8 1549.4,220.5 1557.6,138.4 	"/>
	<polygon class="st1" points="1502,155.7 1477.9,128.4 1469.5,209.6 	"/>
	<polygon class="st1" points="1502,155.7 1477.9,128.4 1557.6,138.4 	"/>
	<polygon class="st1" points="1527.7,194.8 1549.4,220.5 1469.5,209.6 	"/>
	<polygon class="st1" points="1583.8,119.3 1557.5,139 1565.6,56.9 	"/>
	<polygon class="st1" points="1616.5,87.5 1645.3,66.9 1637.6,148.1 	"/>
	<polygon class="st1" points="1616.5,87.5 1645.3,66.9 1565.6,56.9 	"/>
	<polygon class="st1" points="1583.8,119.3 1557.5,139 1637.6,148.1 	"/>
	<polygon class="st1" points="1575.7,201 1549.4,220.7 1557.6,138.6 	"/>
	<polygon class="st1" points="1608.4,169.2 1637.3,148.5 1629.5,229.8 	"/>
	<polygon class="st1" points="1608.4,169.2 1637.3,148.5 1557.6,138.6 	"/>
	<polygon class="st1" points="1575.7,201 1549.4,220.7 1629.5,229.8 	"/>
	<polygon class="st1" points="1695.7,133.5 1717.5,159.3 1725.6,77.1 	"/>
	<polygon class="st1" points="1670,94.5 1645.9,67.2 1637.6,148.3 	"/>
	<polygon class="st1" points="1670,94.5 1645.9,67.2 1725.6,77.1 	"/>
	<polygon class="st1" points="1695.7,133.5 1717.5,159.3 1637.6,148.3 	"/>
	<polygon class="st1" points="1687.6,215.2 1709.4,240.9 1717.5,158.8 	"/>
	<polygon class="st1" points="1662,176.1 1637.8,148.8 1629.5,230 	"/>
	<polygon class="st1" points="1662,176.1 1637.8,148.8 1717.5,158.8 	"/>
	<polygon class="st1" points="1687.6,215.2 1709.4,240.9 1629.5,230 	"/>
	<polygon class="st1" points="1438.8,-65.7 1412.5,-45.9 1420.7,-128.1 	"/>
	<polygon class="st1" points="1471.5,-97.4 1500.4,-118.1 1492.6,-36.9 	"/>
	<polygon class="st1" points="1471.5,-97.4 1500.4,-118.1 1420.7,-128.1 	"/>
	<polygon class="st1" points="1438.8,-65.7 1412.5,-45.9 1492.6,-36.9 	"/>
	<polygon class="st1" points="1434.3,-20 1412.5,-45.7 1404.4,36.4 	"/>
	<polygon class="st1" points="1460,19.1 1484.1,46.4 1492.4,-34.8 	"/>
	<polygon class="st1" points="1460,19.1 1484.1,46.4 1404.4,36.4 	"/>
	<polygon class="st1" points="1434.3,-20 1412.5,-45.7 1492.4,-34.8 	"/>
	<polygon class="st1" points="1550.7,-51.4 1572.5,-25.7 1580.6,-107.9 	"/>
	<polygon class="st1" points="1525.1,-90.5 1500.9,-117.8 1492.6,-36.6 	"/>
	<polygon class="st1" points="1525.1,-90.5 1500.9,-117.8 1580.6,-107.9 	"/>
	<polygon class="st1" points="1550.7,-51.4 1572.5,-25.7 1492.6,-36.6 	"/>
	<polygon class="st1" points="1546.3,-6.2 1572.6,-26 1564.4,56.2 	"/>
	<polygon class="st1" points="1513.6,25.5 1484.7,46.2 1492.4,-35 	"/>
	<polygon class="st1" points="1513.6,25.5 1484.7,46.2 1564.4,56.2 	"/>
	<polygon class="st1" points="1546.3,-6.2 1572.6,-26 1492.4,-35 	"/>
	<polygon class="st1" points="1598.8,-45.2 1572.5,-25.5 1580.6,-107.6 	"/>
	<polygon class="st1" points="1631.5,-77 1660.3,-97.7 1652.6,-16.4 	"/>
	<polygon class="st1" points="1631.5,-77 1660.3,-97.7 1580.6,-107.6 	"/>
	<polygon class="st1" points="1598.8,-45.2 1572.5,-25.5 1652.6,-16.4 	"/>
	<polygon class="st1" points="1594.3,-0.4 1572.6,-26.2 1564.4,56 	"/>
	<polygon class="st1" points="1620,38.6 1644.1,65.9 1652.5,-15.3 	"/>
	<polygon class="st1" points="1620,38.6 1644.1,65.9 1564.4,56 	"/>
	<polygon class="st1" points="1594.3,-0.4 1572.6,-26.2 1652.5,-15.3 	"/>
	<polygon class="st1" points="1710.7,-31 1732.5,-5.3 1740.6,-87.4 	"/>
	<polygon class="st1" points="1685,-70.1 1660.9,-97.4 1652.6,-16.2 	"/>
	<polygon class="st1" points="1685,-70.1 1660.9,-97.4 1740.6,-87.4 	"/>
	<polygon class="st1" points="1710.7,-31 1732.5,-5.3 1652.6,-16.2 	"/>
	<polygon class="st1" points="1706.3,13.3 1732.6,-6.4 1724.5,75.7 	"/>
	<polygon class="st1" points="1673.6,45.1 1644.8,65.8 1652.5,-15.5 	"/>
	<polygon class="st1" points="1673.6,45.1 1644.8,65.8 1724.5,75.7 	"/>
	<polygon class="st1" points="1706.3,13.3 1732.6,-6.4 1652.5,-15.5 	"/>
	<polygon class="st1" points="1262.4,79.9 1236.1,99.6 1244.2,17.5 	"/>
	<polygon class="st1" points="1295.1,48.1 1324,27.5 1316.2,108.7 	"/>
	<polygon class="st1" points="1295.1,48.1 1324,27.5 1244.2,17.5 	"/>
	<polygon class="st1" points="1262.4,79.9 1236.1,99.6 1316.2,108.7 	"/>
	<polygon class="st1" points="1254.3,161.6 1228,181.3 1236.2,99.2 	"/>
	<polygon class="st1" points="1287,129.8 1315.9,109.1 1308.1,190.4 	"/>
	<polygon class="st1" points="1287,129.8 1315.9,109.1 1236.2,99.2 	"/>
	<polygon class="st1" points="1254.3,161.6 1228,181.3 1308.1,190.4 	"/>
	<polygon class="st1" points="1374.3,94.1 1396.1,119.9 1404.2,37.7 	"/>
	<polygon class="st1" points="1348.6,55.1 1324.5,27.8 1316.2,108.9 	"/>
	<polygon class="st1" points="1348.6,55.1 1324.5,27.8 1404.2,37.7 	"/>
	<polygon class="st1" points="1374.3,94.1 1396.1,119.9 1316.2,108.9 	"/>
	<polygon class="st1" points="1366.2,175.8 1388,201.5 1396.2,119.4 	"/>
	<polygon class="st1" points="1340.6,136.7 1316.5,109.4 1308.1,190.6 	"/>
	<polygon class="st1" points="1340.6,136.7 1316.5,109.4 1396.2,119.4 	"/>
	<polygon class="st1" points="1366.2,175.8 1388,201.5 1308.1,190.6 	"/>
	<polygon class="st1" points="1277.4,-84.6 1251.1,-64.9 1259.2,-147.1 	"/>
	<polygon class="st1" points="1310.1,-116.4 1338.9,-137.1 1331.2,-55.8 	"/>
	<polygon class="st1" points="1310.1,-116.4 1338.9,-137.1 1259.2,-147.1 	"/>
	<polygon class="st1" points="1277.4,-84.6 1251.1,-64.9 1331.2,-55.8 	"/>
	<polygon class="st1" points="1272.9,-39 1251.1,-64.7 1242.9,17.4 	"/>
	<polygon class="st1" points="1298.5,0.1 1322.7,27.4 1331,-53.8 	"/>
	<polygon class="st1" points="1298.5,0.1 1322.7,27.4 1242.9,17.4 	"/>
	<polygon class="st1" points="1272.9,-39 1251.1,-64.7 1331,-53.8 	"/>
	<polygon class="st1" points="1389.3,-70.4 1411.1,-44.7 1419.2,-126.8 	"/>
	<polygon class="st1" points="1363.6,-109.5 1339.5,-136.8 1331.2,-55.6 	"/>
	<polygon class="st1" points="1363.6,-109.5 1339.5,-136.8 1419.2,-126.8 	"/>
	<polygon class="st1" points="1389.3,-70.4 1411.1,-44.7 1331.2,-55.6 	"/>
	<polygon class="st1" points="1384.8,-25.2 1411.1,-44.9 1403,37.2 	"/>
	<polygon class="st1" points="1352.1,6.6 1323.3,27.2 1331,-54 	"/>
	<polygon class="st1" points="1352.1,6.6 1323.3,27.2 1403,37.2 	"/>
	<polygon class="st1" points="1384.8,-25.2 1411.1,-44.9 1331,-54 	"/>
	<polygon class="st1" points="1745.2,138.6 1718.9,158.3 1727,76.2 	"/>
	<polygon class="st1" points="1777.9,106.8 1806.7,86.2 1799,167.4 	"/>
	<polygon class="st1" points="1777.9,106.8 1806.7,86.2 1727,76.2 	"/>
	<polygon class="st1" points="1745.2,138.6 1718.9,158.3 1799,167.4 	"/>
	<polygon class="st1" points="1737.1,220.3 1710.8,240 1719,157.9 	"/>
	<polygon class="st1" points="1769.8,188.5 1798.6,167.8 1790.9,249.1 	"/>
	<polygon class="st1" points="1769.8,188.5 1798.6,167.8 1719,157.9 	"/>
	<polygon class="st1" points="1737.1,220.3 1710.8,240 1790.9,249.1 	"/>
	<polygon class="st1" points="1859,171.7 1880.8,197.5 1889,115.3 	"/>
	<polygon class="st1" points="1833.4,132.7 1809.3,105.4 1800.9,186.5 	"/>
	<polygon class="st1" points="1833.4,132.7 1809.3,105.4 1889,115.3 	"/>
	<polygon class="st1" points="1859,171.7 1880.8,197.5 1800.9,186.5 	"/>
	<polygon class="st1" points="1851,253.4 1872.7,279.1 1880.9,197 	"/>
	<polygon class="st1" points="1823.3,195.5 1799.2,168.1 1790.9,249.3 	"/>
	<polygon class="st1" points="1825.3,214.3 1801.2,187 1880.9,197 	"/>
	<polygon class="st1" points="1849,234.5 1870.8,260.2 1790.9,249.3 	"/>
	<polygon class="st1" points="1760.2,-25.9 1733.9,-6.2 1742,-88.3 	"/>
	<polygon class="st1" points="1794.8,-38.8 1823.6,-59.5 1815.9,21.8 	"/>
	<polygon class="st1" points="1792.8,-57.7 1821.7,-78.4 1742,-88.3 	"/>
	<polygon class="st1" points="1760.2,-25.9 1733.9,-6.2 1814,2.9 	"/>
	<polygon class="st1" points="1755.7,19.7 1733.9,-6 1725.7,76.1 	"/>
	<polygon class="st1" points="1783.3,77.7 1807.4,105 1815.7,23.8 	"/>
	<polygon class="st1" points="1781.3,58.8 1805.4,86.1 1725.7,76.1 	"/>
	<polygon class="st1" points="1755.7,19.7 1733.9,-6 1813.8,4.9 	"/>
	<polygon class="st1" points="1874,7.2 1895.8,32.9 1903.9,-49.2 	"/>
	<polygon class="st1" points="1848.3,-31.9 1824.2,-59.2 1815.9,22 	"/>
	<polygon class="st1" points="1848.3,-31.9 1824.2,-59.2 1903.9,-49.2 	"/>
	<polygon class="st1" points="1874,7.2 1895.8,32.9 1815.9,22 	"/>
	<polygon class="st1" points="1869.6,52.4 1895.8,32.7 1887.7,114.8 	"/>
	<polygon class="st1" points="1836.9,84.2 1808,104.8 1815.7,23.6 	"/>
	<polygon class="st1" points="1836.9,84.2 1808,104.8 1887.7,114.8 	"/>
	<polygon class="st1" points="1869.6,52.4 1895.8,32.7 1815.7,23.6 	"/>
	<polygon class="st1" points="1409,225.9 1387.2,200.2 1379.1,282.3 	"/>
	<polygon class="st1" points="1434.7,265 1458.8,292.3 1467.1,211.1 	"/>
	<polygon class="st1" points="1434.7,265 1458.8,292.3 1379.1,282.3 	"/>
	<polygon class="st1" points="1409,225.9 1387.2,200.2 1467.1,211.1 	"/>
	<polygon class="st1" points="1520.9,239.7 1547.2,220 1539.1,302.1 	"/>
	<polygon class="st1" points="1488.3,271.5 1459.4,292.1 1467.1,210.9 	"/>
	<polygon class="st1" points="1488.3,271.5 1459.4,292.1 1539.1,302.1 	"/>
	<polygon class="st1" points="1520.9,239.7 1547.2,220 1467.1,210.9 	"/>
	<polygon class="st1" points="1569,245.5 1547.3,219.8 1539.1,301.9 	"/>
	<polygon class="st1" points="1594.7,284.5 1618.8,311.9 1627.2,230.7 	"/>
	<polygon class="st1" points="1594.7,284.5 1618.8,311.9 1539.1,301.9 	"/>
	<polygon class="st1" points="1569,245.5 1547.3,219.8 1627.2,230.7 	"/>
	<polygon class="st1" points="1681,259.2 1707.3,239.5 1699.2,321.6 	"/>
	<polygon class="st1" points="1648.3,291 1619.4,311.7 1627.2,230.4 	"/>
	<polygon class="st1" points="1648.3,291 1619.4,311.7 1699.2,321.6 	"/>
	<polygon class="st1" points="1681,259.2 1707.3,239.5 1627.2,230.4 	"/>
	<polygon class="st1" points="1247.6,207 1225.8,181.2 1217.6,263.4 	"/>
	<polygon class="st1" points="1273.2,246 1297.3,273.3 1305.7,192.1 	"/>
	<polygon class="st1" points="1273.2,246 1297.3,273.3 1217.6,263.4 	"/>
	<polygon class="st1" points="1247.6,207 1225.8,181.2 1305.7,192.1 	"/>
	<polygon class="st1" points="1359.5,220.7 1385.8,201 1377.7,283.1 	"/>
	<polygon class="st1" points="1326.8,252.5 1298,273.2 1305.7,191.9 	"/>
	<polygon class="st1" points="1326.8,252.5 1298,273.2 1377.7,283.1 	"/>
	<polygon class="st1" points="1359.5,220.7 1385.8,201 1305.7,191.9 	"/>
	<polygon class="st1" points="1730.3,265.7 1708.6,240 1700.4,322.1 	"/>
	<polygon class="st1" points="1756,304.7 1780.1,332 1788.5,250.9 	"/>
	<polygon class="st1" points="1756,304.7 1780.1,332 1700.4,322.1 	"/>
	<polygon class="st1" points="1730.3,265.7 1708.6,240 1788.5,250.9 	"/>
	<polygon class="st1" points="1844.2,298.3 1870.5,278.6 1862.4,360.7 	"/>
	<polygon class="st1" points="1809.6,311.2 1780.8,331.9 1788.5,250.6 	"/>
	<polygon class="st1" points="1809.6,311.2 1780.8,331.9 1860.5,341.8 	"/>
	<polygon class="st1" points="1842.3,279.4 1868.6,259.7 1788.5,250.6 	"/>
	<polygon class="st1" points="1397.5,344.7 1371.2,364.4 1379.4,282.3 	"/>
	<polygon class="st1" points="1430.2,312.9 1459.1,292.2 1451.3,373.5 	"/>
	<polygon class="st1" points="1430.2,312.9 1459.1,292.2 1379.4,282.3 	"/>
	<polygon class="st1" points="1397.5,344.7 1371.2,364.4 1451.3,373.5 	"/>
	<polygon class="st1" points="1509.5,358.9 1531.2,384.6 1539.4,302.5 	"/>
	<polygon class="st1" points="1483.8,319.8 1459.7,292.5 1451.3,373.7 	"/>
	<polygon class="st1" points="1483.8,319.8 1459.7,292.5 1539.4,302.5 	"/>
	<polygon class="st1" points="1509.5,358.9 1531.2,384.6 1451.3,373.7 	"/>
	<polygon class="st1" points="1557.5,365.1 1531.2,384.8 1539.3,302.7 	"/>
	<polygon class="st1" points="1590.2,333.3 1619,312.7 1611.3,393.9 	"/>
	<polygon class="st1" points="1590.2,333.3 1619,312.7 1539.3,302.7 	"/>
	<polygon class="st1" points="1557.5,365.1 1531.2,384.8 1611.3,393.9 	"/>
	<polygon class="st1" points="1669.4,379.3 1691.2,405.1 1699.3,322.9 	"/>
	<polygon class="st1" points="1643.7,340.3 1619.6,313 1611.3,394.1 	"/>
	<polygon class="st1" points="1643.7,340.3 1619.6,313 1699.3,322.9 	"/>
	<polygon class="st1" points="1669.4,379.3 1691.2,405.1 1611.3,394.1 	"/>
	<polygon class="st1" points="1236.1,325.7 1209.8,345.4 1218,263.3 	"/>
	<polygon class="st1" points="1268.8,293.9 1297.7,273.2 1289.9,354.5 	"/>
	<polygon class="st1" points="1268.8,293.9 1297.7,273.2 1218,263.3 	"/>
	<polygon class="st1" points="1236.1,325.7 1209.8,345.4 1289.9,354.5 	"/>
	<polygon class="st1" points="1348,339.9 1369.8,365.6 1377.9,283.5 	"/>
	<polygon class="st1" points="1322.4,300.9 1298.2,273.5 1289.9,354.7 	"/>
	<polygon class="st1" points="1322.4,300.9 1298.2,273.5 1377.9,283.5 	"/>
	<polygon class="st1" points="1348,339.9 1369.8,365.6 1289.9,354.7 	"/>
	<polygon class="st1" points="1718.9,384.4 1692.6,404.1 1700.7,322 	"/>
	<polygon class="st1" points="1751.6,352.6 1780.4,332 1772.7,413.2 	"/>
	<polygon class="st1" points="1751.6,352.6 1780.4,332 1700.7,322 	"/>
	<polygon class="st1" points="1718.9,384.4 1692.6,404.1 1772.7,413.2 	"/>
	<polygon class="st1" points="1832.7,417.5 1854.5,443.2 1862.7,361.1 	"/>
	<polygon class="st1" points="1805.1,359.6 1781,332.3 1772.7,413.5 	"/>
	<polygon class="st1" points="1805.1,359.6 1781,332.3 1860.7,342.2 	"/>
	<polygon class="st1" points="1830.8,398.7 1852.6,424.4 1772.7,413.5 	"/>
	<polygon class="st1" points="1390.8,390 1369,364.3 1360.9,446.5 	"/>
	<polygon class="st1" points="1416.5,429.1 1440.5,456.4 1448.9,375.2 	"/>
	<polygon class="st1" points="1390.8,390 1369,364.3 1448.9,375.2 	"/>
	<polygon class="st1" points="1502.7,403.8 1529,384.1 1520.9,466.2 	"/>
	<polygon class="st1" points="1470,435.6 1441.2,456.3 1448.9,375 	"/>
	<polygon class="st1" points="1502.7,403.8 1529,384.1 1448.9,375 	"/>
	<polygon class="st1" points="1550.8,409.6 1529,383.9 1520.9,466 	"/>
	<polygon class="st1" points="1576.5,448.7 1600.6,476 1609,394.8 	"/>
	<polygon class="st1" points="1550.8,409.6 1529,383.9 1609,394.8 	"/>
	<polygon class="st1" points="1662.8,423.4 1689.1,403.6 1680.9,485.8 	"/>
	<polygon class="st1" points="1630.1,455.1 1601.2,475.8 1609,394.6 	"/>
	<polygon class="st1" points="1662.8,423.4 1689.1,403.6 1609,394.6 	"/>
	<polygon class="st1" points="1255,410.1 1279.1,437.4 1287.5,356.3 	"/>
	<polygon class="st1" points="1229.3,371.1 1207.6,345.4 1287.5,356.3 	"/>
	<polygon class="st1" points="1341.3,384.8 1367.6,365.1 1359.5,447.2 	"/>
	<polygon class="st1" points="1308.6,416.6 1279.8,437.3 1287.5,356 	"/>
	<polygon class="st1" points="1341.3,384.8 1367.6,365.1 1287.5,356 	"/>
	<polygon class="st1" points="1712.1,429.8 1690.3,404.1 1682.2,486.2 	"/>
	<polygon class="st1" points="1737.8,468.9 1761.9,496.2 1770.3,415 	"/>
	<polygon class="st1" points="1712.1,429.8 1690.3,404.1 1770.3,415 	"/>
	<polygon class="st1" points="1826,462.4 1852.3,442.7 1844.2,524.8 	"/>
	<polygon class="st1" points="1791.4,475.3 1762.5,496 1770.3,414.8 	"/>
	<polygon class="st1" points="1824.1,443.5 1850.4,423.8 1770.3,414.8 	"/>
</g>
</svg>
