<svg id="Layer_1" data-name="Layer 1" xmlns="http://www.w3.org/2000/svg" viewBox="0 0 1440 94"><defs><style>.cls-1{opacity:0.5;}.cls-2{fill:none;stroke:#dbf3f3;stroke-miterlimit:10;}</style></defs><g id="Layer_2" data-name="Layer 2" class="cls-1"><polygon class="cls-2" points="105.09 118.55 91.64 130.53 91.64 87.23 105.09 118.55"/><polygon class="cls-2" points="121.41 99.88 136.23 87.23 136.4 130.04 121.41 99.88"/><polygon class="cls-2" points="121.41 99.88 136.23 87.23 91.64 87.23 121.41 99.88"/><polygon class="cls-2" points="167.71 118.67 181.15 130.65 181.15 87.35 167.71 118.67"/><polygon class="cls-2" points="151.38 100 136.57 87.35 136.4 130.16 151.38 100"/><polygon class="cls-2" points="151.38 100 136.57 87.35 181.15 87.35 151.38 100"/><polygon class="cls-2" points="194.6 118.78 181.15 130.76 181.15 87.46 194.6 118.78"/><polygon class="cls-2" points="210.92 100.11 225.74 87.46 225.9 130.27 210.92 100.11"/><polygon class="cls-2" points="210.92 100.11 225.74 87.46 181.15 87.46 210.92 100.11"/><polygon class="cls-2" points="257.21 118.91 270.66 130.88 270.66 87.58 257.21 118.91"/><polygon class="cls-2" points="240.89 100.23 226.07 87.58 225.9 130.4 240.89 100.23"/><polygon class="cls-2" points="240.89 100.23 226.07 87.58 270.66 87.58 240.89 100.23"/><polygon class="cls-2" points="104.37 31.89 90.92 43.87 90.92 0.57 104.37 31.89"/><polygon class="cls-2" points="120.69 13.22 135.51 0.57 135.68 43.38 120.69 13.22"/><polygon class="cls-2" points="120.69 13.22 135.51 0.57 90.92 0.57 120.69 13.22"/><polygon class="cls-2" points="104.37 31.89 90.92 43.87 135.68 43.38 104.37 31.89"/><polygon class="cls-2" points="104.37 55.96 90.92 43.98 90.92 87.28 104.37 55.96"/><polygon class="cls-2" points="120.69 74.63 135.51 87.28 135.68 44.47 120.69 74.63"/><polygon class="cls-2" points="120.69 74.63 135.51 87.28 90.92 87.28 120.69 74.63"/><polygon class="cls-2" points="104.37 55.96 90.92 43.98 135.68 44.47 104.37 55.96"/><polygon class="cls-2" points="166.99 32.02 180.43 43.99 180.43 0.69 166.99 32.02"/><polygon class="cls-2" points="150.66 13.34 135.84 0.69 135.68 43.51 150.66 13.34"/><polygon class="cls-2" points="150.66 13.34 135.84 0.69 180.43 0.69 150.66 13.34"/><polygon class="cls-2" points="166.99 32.02 180.43 43.99 135.68 43.51 166.99 32.02"/><polygon class="cls-2" points="166.99 55.84 180.43 43.86 180.43 87.16 166.99 55.84"/><polygon class="cls-2" points="150.66 74.51 135.84 87.16 135.68 44.35 150.66 74.51"/><polygon class="cls-2" points="150.66 74.51 135.84 87.16 180.43 87.16 150.66 74.51"/><polygon class="cls-2" points="166.99 55.84 180.43 43.86 135.68 44.35 166.99 55.84"/><polygon class="cls-2" points="193.87 32.13 180.43 44.1 180.43 0.8 193.87 32.13"/><polygon class="cls-2" points="210.2 13.45 225.01 0.8 225.18 43.61 210.2 13.45"/><polygon class="cls-2" points="210.2 13.45 225.01 0.8 180.43 0.8 210.2 13.45"/><polygon class="cls-2" points="193.87 32.13 180.43 44.1 225.18 43.61 193.87 32.13"/><polygon class="cls-2" points="193.87 55.73 180.43 43.75 180.43 87.05 193.87 55.73"/><polygon class="cls-2" points="210.2 74.4 225.01 87.05 225.18 44.24 210.2 74.4"/><polygon class="cls-2" points="210.2 74.4 225.01 87.05 180.43 87.05 210.2 74.4"/><polygon class="cls-2" points="193.87 55.73 180.43 43.75 225.18 44.24 193.87 55.73"/><polygon class="cls-2" points="256.49 32.25 269.94 44.23 269.94 0.92 256.49 32.25"/><polygon class="cls-2" points="240.17 13.57 225.35 0.92 225.18 43.74 240.17 13.57"/><polygon class="cls-2" points="240.17 13.57 225.35 0.92 269.94 0.92 240.17 13.57"/><polygon class="cls-2" points="256.49 32.25 269.94 44.23 225.18 43.74 256.49 32.25"/><polygon class="cls-2" points="256.49 55.6 269.94 43.63 269.94 86.93 256.49 55.6"/><polygon class="cls-2" points="240.17 74.28 225.35 86.93 225.18 44.11 240.17 74.28"/><polygon class="cls-2" points="240.17 74.28 225.35 86.93 269.94 86.93 240.17 74.28"/><polygon class="cls-2" points="256.49 55.6 269.94 43.63 225.18 44.11 256.49 55.6"/><polygon class="cls-2" points="14.86 119.17 1.42 131.15 1.42 87.85 14.86 119.17"/><polygon class="cls-2" points="31.18 100.5 46 87.85 46.17 130.66 31.18 100.5"/><polygon class="cls-2" points="31.18 100.5 46 87.85 1.42 87.85 31.18 100.5"/><polygon class="cls-2" points="77.48 119.3 90.92 131.27 90.92 87.97 77.48 119.3"/><polygon class="cls-2" points="61.15 100.62 46.34 87.97 46.17 130.78 61.15 100.62"/><polygon class="cls-2" points="61.15 100.62 46.34 87.97 90.92 87.97 61.15 100.62"/><polygon class="cls-2" points="14.14 32.52 0.69 44.49 0.69 1.19 14.14 32.52"/><polygon class="cls-2" points="30.46 13.84 45.28 1.19 45.45 44 30.46 13.84"/><polygon class="cls-2" points="30.46 13.84 45.28 1.19 0.69 1.19 30.46 13.84"/><polygon class="cls-2" points="14.14 32.52 0.69 44.49 45.45 44 14.14 32.52"/><polygon class="cls-2" points="14.14 56.58 0.69 44.6 0.69 87.9 14.14 56.58"/><polygon class="cls-2" points="30.46 75.25 45.28 87.9 45.45 45.09 30.46 75.25"/><polygon class="cls-2" points="30.46 75.25 45.28 87.9 0.69 87.9 30.46 75.25"/><polygon class="cls-2" points="14.14 56.58 0.69 44.6 45.45 45.09 14.14 56.58"/><polygon class="cls-2" points="76.76 32.64 90.2 44.61 90.2 1.31 76.76 32.64"/><polygon class="cls-2" points="60.43 13.96 45.62 1.31 45.45 44.13 60.43 13.96"/><polygon class="cls-2" points="60.43 13.96 45.62 1.31 90.2 1.31 60.43 13.96"/><polygon class="cls-2" points="76.76 32.64 90.2 44.61 45.45 44.13 76.76 32.64"/><polygon class="cls-2" points="76.76 56.46 90.2 44.48 90.2 87.78 76.76 56.46"/><polygon class="cls-2" points="60.43 75.13 45.62 87.78 45.45 44.97 60.43 75.13"/><polygon class="cls-2" points="60.43 75.13 45.62 87.78 90.2 87.78 60.43 75.13"/><polygon class="cls-2" points="76.76 56.46 90.2 44.48 45.45 44.97 76.76 56.46"/><polygon class="cls-2" points="284.82 118.34 271.38 130.32 271.38 87.02 284.82 118.34"/><polygon class="cls-2" points="301.15 99.66 315.96 87.02 316.13 129.83 301.15 99.66"/><polygon class="cls-2" points="301.15 99.66 315.96 87.02 271.38 87.02 301.15 99.66"/><polygon class="cls-2" points="347.44 118.46 360.89 130.44 360.89 87.14 347.44 118.46"/><polygon class="cls-2" points="331.12 99.79 316.3 87.14 316.13 129.95 331.12 99.79"/><polygon class="cls-2" points="331.12 99.79 316.3 87.14 360.89 87.14 331.12 99.79"/><polygon class="cls-2" points="284.1 31.68 270.66 43.66 270.66 0.36 284.1 31.68"/><polygon class="cls-2" points="300.43 13.01 315.24 0.36 315.41 43.17 300.43 13.01"/><polygon class="cls-2" points="300.43 13.01 315.24 0.36 270.66 0.36 300.43 13.01"/><polygon class="cls-2" points="284.1 31.68 270.66 43.66 315.41 43.17 284.1 31.68"/><polygon class="cls-2" points="284.1 55.75 270.66 43.77 270.66 87.07 284.1 55.75"/><polygon class="cls-2" points="300.43 74.42 315.24 87.07 315.41 44.26 300.43 74.42"/><polygon class="cls-2" points="300.43 74.42 315.24 87.07 270.66 87.07 300.43 74.42"/><polygon class="cls-2" points="284.1 55.75 270.66 43.77 315.41 44.26 284.1 55.75"/><polygon class="cls-2" points="346.72 31.8 360.16 43.78 360.16 0.48 346.72 31.8"/><polygon class="cls-2" points="330.4 13.13 315.58 0.48 315.41 43.29 330.4 13.13"/><polygon class="cls-2" points="330.4 13.13 315.58 0.48 360.16 0.48 330.4 13.13"/><polygon class="cls-2" points="346.72 31.8 360.16 43.78 315.41 43.29 346.72 31.8"/><polygon class="cls-2" points="346.72 55.62 360.16 43.65 360.16 86.95 346.72 55.62"/><polygon class="cls-2" points="330.4 74.3 315.58 86.95 315.41 44.13 330.4 74.3"/><polygon class="cls-2" points="330.4 74.3 315.58 86.95 360.16 86.95 330.4 74.3"/><polygon class="cls-2" points="346.72 55.62 360.16 43.65 315.41 44.13 346.72 55.62"/><polygon class="cls-2" points="825.33 117.81 811.89 129.78 811.89 86.48 825.33 117.81"/><polygon class="cls-2" points="841.66 99.13 856.47 86.48 856.64 129.3 841.66 99.13"/><polygon class="cls-2" points="841.66 99.13 856.47 86.48 811.89 86.48 841.66 99.13"/><polygon class="cls-2" points="887.95 117.93 901.39 129.91 901.39 86.6 887.95 117.93"/><polygon class="cls-2" points="871.63 99.25 856.81 86.6 856.64 129.42 871.63 99.25"/><polygon class="cls-2" points="871.63 99.25 856.81 86.6 901.39 86.6 871.63 99.25"/><polygon class="cls-2" points="914.84 118.04 901.39 130.02 901.39 86.71 914.84 118.04"/><polygon class="cls-2" points="931.16 99.36 945.98 86.71 946.15 129.53 931.16 99.36"/><polygon class="cls-2" points="931.16 99.36 945.98 86.71 901.39 86.71 931.16 99.36"/><polygon class="cls-2" points="977.46 118.16 990.9 130.14 990.9 86.84 977.46 118.16"/><polygon class="cls-2" points="961.13 99.49 946.32 86.84 946.15 129.65 961.13 99.49"/><polygon class="cls-2" points="961.13 99.49 946.32 86.84 990.9 86.84 961.13 99.49"/><polygon class="cls-2" points="824.61 31.15 811.17 43.13 811.17 -0.18 824.61 31.15"/><polygon class="cls-2" points="840.93 12.47 855.75 -0.18 855.92 42.64 840.93 12.47"/><polygon class="cls-2" points="840.93 12.47 855.75 -0.18 811.17 -0.18 840.93 12.47"/><polygon class="cls-2" points="824.61 31.15 811.17 43.13 855.92 42.64 824.61 31.15"/><polygon class="cls-2" points="824.61 55.21 811.17 43.24 811.17 86.54 824.61 55.21"/><polygon class="cls-2" points="840.93 73.89 855.75 86.54 855.92 43.72 840.93 73.89"/><polygon class="cls-2" points="840.93 73.89 855.75 86.54 811.17 86.54 840.93 73.89"/><polygon class="cls-2" points="824.61 55.21 811.17 43.24 855.92 43.72 824.61 55.21"/><polygon class="cls-2" points="887.23 31.27 900.67 43.25 900.67 -0.05 887.23 31.27"/><polygon class="cls-2" points="870.9 12.6 856.09 -0.05 855.92 42.76 870.9 12.6"/><polygon class="cls-2" points="870.9 12.6 856.09 -0.05 900.67 -0.05 870.9 12.6"/><polygon class="cls-2" points="887.23 31.27 900.67 43.25 855.92 42.76 887.23 31.27"/><polygon class="cls-2" points="887.23 55.09 900.67 43.11 900.67 86.41 887.23 55.09"/><polygon class="cls-2" points="870.9 73.77 856.09 86.41 855.92 43.6 870.9 73.77"/><polygon class="cls-2" points="870.9 73.77 856.09 86.41 900.67 86.41 870.9 73.77"/><polygon class="cls-2" points="887.23 55.09 900.67 43.11 855.92 43.6 887.23 55.09"/><polygon class="cls-2" points="914.12 31.38 900.67 43.36 900.67 0.06 914.12 31.38"/><polygon class="cls-2" points="930.44 12.71 945.26 0.06 945.43 42.87 930.44 12.71"/><polygon class="cls-2" points="930.44 12.71 945.26 0.06 900.67 0.06 930.44 12.71"/><polygon class="cls-2" points="914.12 31.38 900.67 43.36 945.43 42.87 914.12 31.38"/><polygon class="cls-2" points="914.12 54.98 900.67 43 900.67 86.3 914.12 54.98"/><polygon class="cls-2" points="930.44 73.66 945.26 86.3 945.43 43.49 930.44 73.66"/><polygon class="cls-2" points="930.44 73.66 945.26 86.3 900.67 86.3 930.44 73.66"/><polygon class="cls-2" points="914.12 54.98 900.67 43 945.43 43.49 914.12 54.98"/><polygon class="cls-2" points="976.74 31.5 990.18 43.48 990.18 0.18 976.74 31.5"/><polygon class="cls-2" points="960.41 12.83 945.6 0.18 945.43 42.99 960.41 12.83"/><polygon class="cls-2" points="960.41 12.83 945.6 0.18 990.18 0.18 960.41 12.83"/><polygon class="cls-2" points="976.74 31.5 990.18 43.48 945.43 42.99 976.74 31.5"/><polygon class="cls-2" points="976.74 54.86 990.18 42.88 990.18 86.18 976.74 54.86"/><polygon class="cls-2" points="960.41 73.53 945.6 86.18 945.43 43.37 960.41 73.53"/><polygon class="cls-2" points="960.41 73.53 945.6 86.18 990.18 86.18 960.41 73.53"/><polygon class="cls-2" points="976.74 54.86 990.18 42.88 945.43 43.37 976.74 54.86"/><polygon class="cls-2" points="735.1 118.43 721.66 130.41 721.66 87.1 735.1 118.43"/><polygon class="cls-2" points="751.43 99.75 766.24 87.1 766.41 129.92 751.43 99.75"/><polygon class="cls-2" points="751.43 99.75 766.24 87.1 721.66 87.1 751.43 99.75"/><polygon class="cls-2" points="797.72 118.55 811.17 130.53 811.17 87.23 797.72 118.55"/><polygon class="cls-2" points="781.4 99.88 766.58 87.23 766.41 130.04 781.4 99.88"/><polygon class="cls-2" points="781.4 99.88 766.58 87.23 811.17 87.23 781.4 99.88"/><polygon class="cls-2" points="734.38 31.77 720.94 43.75 720.94 0.45 734.38 31.77"/><polygon class="cls-2" points="750.71 13.1 765.52 0.45 765.69 43.26 750.71 13.1"/><polygon class="cls-2" points="750.71 13.1 765.52 0.45 720.94 0.45 750.71 13.1"/><polygon class="cls-2" points="734.38 31.77 720.94 43.75 765.69 43.26 734.38 31.77"/><polygon class="cls-2" points="734.38 55.83 720.94 43.86 720.94 87.16 734.38 55.83"/><polygon class="cls-2" points="750.71 74.51 765.52 87.16 765.69 44.35 750.71 74.51"/><polygon class="cls-2" points="750.71 74.51 765.52 87.16 720.94 87.16 750.71 74.51"/><polygon class="cls-2" points="734.38 55.83 720.94 43.86 765.69 44.35 734.38 55.83"/><polygon class="cls-2" points="797 31.89 810.44 43.87 810.44 0.57 797 31.89"/><polygon class="cls-2" points="780.68 13.22 765.86 0.57 765.69 43.38 780.68 13.22"/><polygon class="cls-2" points="780.68 13.22 765.86 0.57 810.44 0.57 780.68 13.22"/><polygon class="cls-2" points="797 31.89 810.44 43.87 765.69 43.38 797 31.89"/><polygon class="cls-2" points="797 55.71 810.44 43.74 810.44 87.04 797 55.71"/><polygon class="cls-2" points="780.68 74.39 765.86 87.04 765.69 44.22 780.68 74.39"/><polygon class="cls-2" points="780.68 74.39 765.86 87.04 810.44 87.04 780.68 74.39"/><polygon class="cls-2" points="797 55.71 810.44 43.74 765.69 44.22 797 55.71"/><polygon class="cls-2" points="1005.07 117.6 991.62 129.57 991.62 86.27 1005.07 117.6"/><polygon class="cls-2" points="1021.39 98.92 1036.21 86.27 1036.38 129.08 1021.39 98.92"/><polygon class="cls-2" points="1021.39 98.92 1036.21 86.27 991.62 86.27 1021.39 98.92"/><polygon class="cls-2" points="1067.69 117.72 1081.13 129.69 1081.13 86.39 1067.69 117.72"/><polygon class="cls-2" points="1051.36 99.04 1036.55 86.39 1036.38 129.21 1051.36 99.04"/><polygon class="cls-2" points="1051.36 99.04 1036.55 86.39 1081.13 86.39 1051.36 99.04"/><polygon class="cls-2" points="1004.35 30.94 990.9 42.91 990.9 -0.39 1004.35 30.94"/><polygon class="cls-2" points="1020.67 12.26 1035.49 -0.39 1035.65 42.43 1020.67 12.26"/><polygon class="cls-2" points="1020.67 12.26 1035.49 -0.39 990.9 -0.39 1020.67 12.26"/><polygon class="cls-2" points="1004.35 30.94 990.9 42.91 1035.65 42.43 1004.35 30.94"/><polygon class="cls-2" points="1004.35 55 990.9 43.02 990.9 86.33 1004.35 55"/><polygon class="cls-2" points="1020.67 73.68 1035.49 86.33 1035.65 43.51 1020.67 73.68"/><polygon class="cls-2" points="1020.67 73.68 1035.49 86.33 990.9 86.33 1020.67 73.68"/><polygon class="cls-2" points="1004.35 55 990.9 43.02 1035.65 43.51 1004.35 55"/><polygon class="cls-2" points="1066.96 31.06 1080.41 43.04 1080.41 -0.26 1066.96 31.06"/><polygon class="cls-2" points="1050.64 12.38 1035.82 -0.26 1035.65 42.55 1050.64 12.38"/><polygon class="cls-2" points="1050.64 12.38 1035.82 -0.26 1080.41 -0.26 1050.64 12.38"/><polygon class="cls-2" points="1066.96 31.06 1080.41 43.04 1035.65 42.55 1066.96 31.06"/><polygon class="cls-2" points="1066.96 54.88 1080.41 42.9 1080.41 86.2 1066.96 54.88"/><polygon class="cls-2" points="1050.64 73.55 1035.82 86.2 1035.65 43.39 1050.64 73.55"/><polygon class="cls-2" points="1050.64 73.55 1035.82 86.2 1080.41 86.2 1050.64 73.55"/><polygon class="cls-2" points="1066.96 54.88 1080.41 42.9 1035.65 43.39 1066.96 54.88"/></g><g id="Layer_2_copy" data-name="Layer 2 copy" class="cls-1"><polygon class="cls-2" points="465.35 117.95 451.9 129.93 451.9 86.63 465.35 117.95"/><polygon class="cls-2" points="481.67 99.28 496.49 86.63 496.66 129.44 481.67 99.28"/><polygon class="cls-2" points="481.67 99.28 496.49 86.63 451.9 86.63 481.67 99.28"/><polygon class="cls-2" points="527.97 118.07 541.41 130.05 541.41 86.75 527.97 118.07"/><polygon class="cls-2" points="511.64 99.4 496.83 86.75 496.66 129.56 511.64 99.4"/><polygon class="cls-2" points="511.64 99.4 496.83 86.75 541.41 86.75 511.64 99.4"/><polygon class="cls-2" points="554.86 118.18 541.41 130.16 541.41 86.86 554.86 118.18"/><polygon class="cls-2" points="571.18 99.51 586 86.86 586.17 129.67 571.18 99.51"/><polygon class="cls-2" points="571.18 99.51 586 86.86 541.41 86.86 571.18 99.51"/><polygon class="cls-2" points="617.47 118.31 630.92 130.28 630.92 86.98 617.47 118.31"/><polygon class="cls-2" points="601.15 99.63 586.33 86.98 586.17 129.8 601.15 99.63"/><polygon class="cls-2" points="601.15 99.63 586.33 86.98 630.92 86.98 601.15 99.63"/><polygon class="cls-2" points="464.63 31.29 451.18 43.27 451.18 -0.03 464.63 31.29"/><polygon class="cls-2" points="480.95 12.62 495.77 -0.03 495.94 42.78 480.95 12.62"/><polygon class="cls-2" points="480.95 12.62 495.77 -0.03 451.18 -0.03 480.95 12.62"/><polygon class="cls-2" points="464.63 31.29 451.18 43.27 495.94 42.78 464.63 31.29"/><polygon class="cls-2" points="464.63 55.36 451.18 43.38 451.18 86.68 464.63 55.36"/><polygon class="cls-2" points="480.95 74.03 495.77 86.68 495.94 43.87 480.95 74.03"/><polygon class="cls-2" points="480.95 74.03 495.77 86.68 451.18 86.68 480.95 74.03"/><polygon class="cls-2" points="464.63 55.36 451.18 43.38 495.94 43.87 464.63 55.36"/><polygon class="cls-2" points="527.25 31.42 540.69 43.39 540.69 0.09 527.25 31.42"/><polygon class="cls-2" points="510.92 12.74 496.11 0.09 495.94 42.91 510.92 12.74"/><polygon class="cls-2" points="510.92 12.74 496.11 0.09 540.69 0.09 510.92 12.74"/><polygon class="cls-2" points="527.25 31.42 540.69 43.39 495.94 42.91 527.25 31.42"/><polygon class="cls-2" points="527.25 55.24 540.69 43.26 540.69 86.56 527.25 55.24"/><polygon class="cls-2" points="510.92 73.91 496.11 86.56 495.94 43.75 510.92 73.91"/><polygon class="cls-2" points="510.92 73.91 496.11 86.56 540.69 86.56 510.92 73.91"/><polygon class="cls-2" points="527.25 55.24 540.69 43.26 495.94 43.75 527.25 55.24"/><polygon class="cls-2" points="554.13 31.53 540.69 43.5 540.69 0.2 554.13 31.53"/><polygon class="cls-2" points="570.46 12.85 585.27 0.2 585.44 43.02 570.46 12.85"/><polygon class="cls-2" points="570.46 12.85 585.27 0.2 540.69 0.2 570.46 12.85"/><polygon class="cls-2" points="554.13 31.53 540.69 43.5 585.44 43.02 554.13 31.53"/><polygon class="cls-2" points="554.13 55.13 540.69 43.15 540.69 86.45 554.13 55.13"/><polygon class="cls-2" points="570.46 73.8 585.27 86.45 585.44 43.64 570.46 73.8"/><polygon class="cls-2" points="570.46 73.8 585.27 86.45 540.69 86.45 570.46 73.8"/><polygon class="cls-2" points="554.13 55.13 540.69 43.15 585.44 43.64 554.13 55.13"/><polygon class="cls-2" points="616.75 31.65 630.2 43.63 630.2 0.32 616.75 31.65"/><polygon class="cls-2" points="600.43 12.97 585.61 0.32 585.44 43.14 600.43 12.97"/><polygon class="cls-2" points="600.43 12.97 585.61 0.32 630.2 0.32 600.43 12.97"/><polygon class="cls-2" points="616.75 31.65 630.2 43.63 585.44 43.14 616.75 31.65"/><polygon class="cls-2" points="616.75 55 630.2 43.03 630.2 86.33 616.75 55"/><polygon class="cls-2" points="600.43 73.68 585.61 86.33 585.44 43.51 600.43 73.68"/><polygon class="cls-2" points="600.43 73.68 585.61 86.33 630.2 86.33 600.43 73.68"/><polygon class="cls-2" points="616.75 55 630.2 43.03 585.44 43.51 616.75 55"/><polygon class="cls-2" points="375.12 118.57 361.68 130.55 361.68 87.25 375.12 118.57"/><polygon class="cls-2" points="391.44 99.9 406.26 87.25 406.43 130.06 391.44 99.9"/><polygon class="cls-2" points="391.44 99.9 406.26 87.25 361.68 87.25 391.44 99.9"/><polygon class="cls-2" points="437.74 118.7 451.18 130.67 451.18 87.37 437.74 118.7"/><polygon class="cls-2" points="421.41 100.02 406.6 87.37 406.43 130.19 421.41 100.02"/><polygon class="cls-2" points="421.41 100.02 406.6 87.37 451.18 87.37 421.41 100.02"/><polygon class="cls-2" points="374.4 31.92 360.95 43.89 360.95 0.59 374.4 31.92"/><polygon class="cls-2" points="390.72 13.24 405.54 0.59 405.71 43.41 390.72 13.24"/><polygon class="cls-2" points="390.72 13.24 405.54 0.59 360.95 0.59 390.72 13.24"/><polygon class="cls-2" points="374.4 31.92 360.95 43.89 405.71 43.41 374.4 31.92"/><polygon class="cls-2" points="374.4 55.98 360.95 44 360.95 87.3 374.4 55.98"/><polygon class="cls-2" points="390.72 74.66 405.54 87.3 405.71 44.49 390.72 74.66"/><polygon class="cls-2" points="390.72 74.66 405.54 87.3 360.95 87.3 390.72 74.66"/><polygon class="cls-2" points="374.4 55.98 360.95 44 405.71 44.49 374.4 55.98"/><polygon class="cls-2" points="437.02 32.04 450.46 44.02 450.46 0.71 437.02 32.04"/><polygon class="cls-2" points="420.69 13.36 405.88 0.71 405.71 43.53 420.69 13.36"/><polygon class="cls-2" points="420.69 13.36 405.88 0.71 450.46 0.71 420.69 13.36"/><polygon class="cls-2" points="437.02 32.04 450.46 44.02 405.71 43.53 437.02 32.04"/><polygon class="cls-2" points="437.02 55.86 450.46 43.88 450.46 87.18 437.02 55.86"/><polygon class="cls-2" points="420.69 74.53 405.88 87.18 405.71 44.37 420.69 74.53"/><polygon class="cls-2" points="420.69 74.53 405.88 87.18 450.46 87.18 420.69 74.53"/><polygon class="cls-2" points="437.02 55.86 450.46 43.88 405.71 44.37 437.02 55.86"/><polygon class="cls-2" points="645.08 117.74 631.64 129.72 631.64 86.42 645.08 117.74"/><polygon class="cls-2" points="661.41 99.07 676.23 86.42 676.39 129.23 661.41 99.07"/><polygon class="cls-2" points="661.41 99.07 676.23 86.42 631.64 86.42 661.41 99.07"/><polygon class="cls-2" points="707.7 117.86 721.15 129.84 721.15 86.54 707.7 117.86"/><polygon class="cls-2" points="691.38 99.19 676.56 86.54 676.39 129.35 691.38 99.19"/><polygon class="cls-2" points="691.38 99.19 676.56 86.54 721.15 86.54 691.38 99.19"/><polygon class="cls-2" points="644.36 31.08 630.92 43.06 630.92 -0.24 644.36 31.08"/><polygon class="cls-2" points="660.69 12.41 675.5 -0.24 675.67 42.57 660.69 12.41"/><polygon class="cls-2" points="660.69 12.41 675.5 -0.24 630.92 -0.24 660.69 12.41"/><polygon class="cls-2" points="644.36 31.08 630.92 43.06 675.67 42.57 644.36 31.08"/><polygon class="cls-2" points="644.36 55.15 630.92 43.17 630.92 86.47 644.36 55.15"/><polygon class="cls-2" points="660.69 73.82 675.5 86.47 675.67 43.66 660.69 73.82"/><polygon class="cls-2" points="660.69 73.82 675.5 86.47 630.92 86.47 660.69 73.82"/><polygon class="cls-2" points="644.36 55.15 630.92 43.17 675.67 43.66 644.36 55.15"/><polygon class="cls-2" points="706.98 31.21 720.43 43.18 720.43 -0.12 706.98 31.21"/><polygon class="cls-2" points="690.66 12.53 675.84 -0.12 675.67 42.69 690.66 12.53"/><polygon class="cls-2" points="690.66 12.53 675.84 -0.12 720.43 -0.12 690.66 12.53"/><polygon class="cls-2" points="706.98 31.21 720.43 43.18 675.67 42.69 706.98 31.21"/><polygon class="cls-2" points="706.98 55.02 720.43 43.05 720.43 86.35 706.98 55.02"/><polygon class="cls-2" points="690.66 73.7 675.84 86.35 675.67 43.54 690.66 73.7"/><polygon class="cls-2" points="690.66 73.7 675.84 86.35 720.43 86.35 690.66 73.7"/><polygon class="cls-2" points="706.98 55.02 720.43 43.05 675.67 43.54 706.98 55.02"/><polygon class="cls-2" points="1185.59 117.21 1172.15 129.18 1172.15 85.88 1185.59 117.21"/><polygon class="cls-2" points="1201.92 98.53 1216.73 85.88 1216.9 128.7 1201.92 98.53"/><polygon class="cls-2" points="1201.92 98.53 1216.73 85.88 1172.15 85.88 1201.92 98.53"/><polygon class="cls-2" points="1248.21 117.33 1261.66 129.31 1261.66 86.01 1248.21 117.33"/><polygon class="cls-2" points="1231.89 98.65 1217.07 86.01 1216.9 128.82 1231.89 98.65"/><polygon class="cls-2" points="1231.89 98.65 1217.07 86.01 1261.66 86.01 1231.89 98.65"/><polygon class="cls-2" points="1275.1 117.44 1261.66 129.42 1261.66 86.11 1275.1 117.44"/><polygon class="cls-2" points="1291.42 98.76 1306.24 86.11 1306.41 128.93 1291.42 98.76"/><polygon class="cls-2" points="1291.42 98.76 1306.24 86.11 1261.66 86.11 1291.42 98.76"/><polygon class="cls-2" points="1337.72 117.56 1351.16 129.54 1351.16 86.24 1337.72 117.56"/><polygon class="cls-2" points="1321.39 98.89 1306.58 86.24 1306.41 129.05 1321.39 98.89"/><polygon class="cls-2" points="1321.39 98.89 1306.58 86.24 1351.16 86.24 1321.39 98.89"/><polygon class="cls-2" points="1184.87 30.55 1171.43 42.53 1171.43 -0.78 1184.87 30.55"/><polygon class="cls-2" points="1201.19 11.87 1216.01 -0.78 1216.18 42.04 1201.19 11.87"/><polygon class="cls-2" points="1201.19 11.87 1216.01 -0.78 1171.43 -0.78 1201.19 11.87"/><polygon class="cls-2" points="1184.87 30.55 1171.43 42.53 1216.18 42.04 1184.87 30.55"/><polygon class="cls-2" points="1184.87 54.61 1171.43 42.64 1171.43 85.94 1184.87 54.61"/><polygon class="cls-2" points="1201.19 73.29 1216.01 85.94 1216.18 43.12 1201.19 73.29"/><polygon class="cls-2" points="1201.19 73.29 1216.01 85.94 1171.43 85.94 1201.19 73.29"/><polygon class="cls-2" points="1184.87 54.61 1171.43 42.64 1216.18 43.12 1184.87 54.61"/><polygon class="cls-2" points="1247.49 30.67 1260.93 42.65 1260.93 -0.65 1247.49 30.67"/><polygon class="cls-2" points="1231.17 12 1216.35 -0.65 1216.18 42.16 1231.17 12"/><polygon class="cls-2" points="1231.17 12 1216.35 -0.65 1260.93 -0.65 1231.17 12"/><polygon class="cls-2" points="1247.49 30.67 1260.93 42.65 1216.18 42.16 1247.49 30.67"/><polygon class="cls-2" points="1247.49 54.49 1260.93 42.51 1260.93 85.82 1247.49 54.49"/><polygon class="cls-2" points="1231.17 73.17 1216.35 85.82 1216.18 43 1231.17 73.17"/><polygon class="cls-2" points="1231.17 73.17 1216.35 85.82 1260.93 85.82 1231.17 73.17"/><polygon class="cls-2" points="1247.49 54.49 1260.93 42.51 1216.18 43 1247.49 54.49"/><polygon class="cls-2" points="1274.38 30.78 1260.93 42.76 1260.93 -0.54 1274.38 30.78"/><polygon class="cls-2" points="1290.7 12.11 1305.52 -0.54 1305.69 42.27 1290.7 12.11"/><polygon class="cls-2" points="1290.7 12.11 1305.52 -0.54 1260.93 -0.54 1290.7 12.11"/><polygon class="cls-2" points="1274.38 30.78 1260.93 42.76 1305.69 42.27 1274.38 30.78"/><polygon class="cls-2" points="1274.38 54.38 1260.93 42.4 1260.93 85.71 1274.38 54.38"/><polygon class="cls-2" points="1290.7 73.06 1305.52 85.71 1305.69 42.89 1290.7 73.06"/><polygon class="cls-2" points="1290.7 73.06 1305.52 85.71 1260.93 85.71 1290.7 73.06"/><polygon class="cls-2" points="1274.38 54.38 1260.93 42.4 1305.69 42.89 1274.38 54.38"/><polygon class="cls-2" points="1337 30.9 1350.44 42.88 1350.44 -0.42 1337 30.9"/><polygon class="cls-2" points="1320.67 12.23 1305.86 -0.42 1305.69 42.39 1320.67 12.23"/><polygon class="cls-2" points="1320.67 12.23 1305.86 -0.42 1350.44 -0.42 1320.67 12.23"/><polygon class="cls-2" points="1337 30.9 1350.44 42.88 1305.69 42.39 1337 30.9"/><polygon class="cls-2" points="1337 54.26 1350.44 42.28 1350.44 85.58 1337 54.26"/><polygon class="cls-2" points="1320.67 72.93 1305.86 85.58 1305.69 42.77 1320.67 72.93"/><polygon class="cls-2" points="1320.67 72.93 1305.86 85.58 1350.44 85.58 1320.67 72.93"/><polygon class="cls-2" points="1337 54.26 1350.44 42.28 1305.69 42.77 1337 54.26"/><polygon class="cls-2" points="1095.36 117.83 1081.92 129.81 1081.92 86.5 1095.36 117.83"/><polygon class="cls-2" points="1111.69 99.15 1126.5 86.5 1126.67 129.32 1111.69 99.15"/><polygon class="cls-2" points="1111.69 99.15 1126.5 86.5 1081.92 86.5 1111.69 99.15"/><polygon class="cls-2" points="1157.98 117.95 1171.43 129.93 1171.43 86.63 1157.98 117.95"/><polygon class="cls-2" points="1141.66 99.28 1126.84 86.63 1126.67 129.44 1141.66 99.28"/><polygon class="cls-2" points="1141.66 99.28 1126.84 86.63 1171.43 86.63 1141.66 99.28"/><polygon class="cls-2" points="1094.64 31.17 1081.2 43.15 1081.2 -0.15 1094.64 31.17"/><polygon class="cls-2" points="1110.97 12.5 1125.78 -0.15 1125.95 42.66 1110.97 12.5"/><polygon class="cls-2" points="1110.97 12.5 1125.78 -0.15 1081.2 -0.15 1110.97 12.5"/><polygon class="cls-2" points="1094.64 31.17 1081.2 43.15 1125.95 42.66 1094.64 31.17"/><polygon class="cls-2" points="1094.64 55.24 1081.2 43.26 1081.2 86.56 1094.64 55.24"/><polygon class="cls-2" points="1110.97 73.91 1125.78 86.56 1125.95 43.75 1110.97 73.91"/><polygon class="cls-2" points="1110.97 73.91 1125.78 86.56 1081.2 86.56 1110.97 73.91"/><polygon class="cls-2" points="1094.64 55.24 1081.2 43.26 1125.95 43.75 1094.64 55.24"/><polygon class="cls-2" points="1157.26 31.29 1170.7 43.27 1170.7 -0.03 1157.26 31.29"/><polygon class="cls-2" points="1140.94 12.62 1126.12 -0.03 1125.95 42.78 1140.94 12.62"/><polygon class="cls-2" points="1140.94 12.62 1126.12 -0.03 1170.7 -0.03 1140.94 12.62"/><polygon class="cls-2" points="1157.26 31.29 1170.7 43.27 1125.95 42.78 1157.26 31.29"/><polygon class="cls-2" points="1157.26 55.11 1170.7 43.14 1170.7 86.44 1157.26 55.11"/><polygon class="cls-2" points="1140.94 73.79 1126.12 86.44 1125.95 43.62 1140.94 73.79"/><polygon class="cls-2" points="1140.94 73.79 1126.12 86.44 1170.7 86.44 1140.94 73.79"/><polygon class="cls-2" points="1157.26 55.11 1170.7 43.14 1125.95 43.62 1157.26 55.11"/><polygon class="cls-2" points="1365.33 117 1351.88 128.97 1351.88 85.67 1365.33 117"/><polygon class="cls-2" points="1381.65 98.32 1396.47 85.67 1396.64 128.49 1381.65 98.32"/><polygon class="cls-2" points="1381.65 98.32 1396.47 85.67 1351.88 85.67 1381.65 98.32"/><polygon class="cls-2" points="1427.95 117.12 1441.39 129.1 1441.39 85.79 1427.95 117.12"/><polygon class="cls-2" points="1411.62 98.44 1396.81 85.79 1396.64 128.61 1411.62 98.44"/><polygon class="cls-2" points="1411.62 98.44 1396.81 85.79 1441.39 85.79 1411.62 98.44"/><polygon class="cls-2" points="1364.61 30.34 1351.16 42.32 1351.16 -0.99 1364.61 30.34"/><polygon class="cls-2" points="1380.93 11.66 1395.75 -0.99 1395.92 41.83 1380.93 11.66"/><polygon class="cls-2" points="1380.93 11.66 1395.75 -0.99 1351.16 -0.99 1380.93 11.66"/><polygon class="cls-2" points="1364.61 30.34 1351.16 42.32 1395.92 41.83 1364.61 30.34"/><polygon class="cls-2" points="1364.61 54.4 1351.16 42.43 1351.16 85.73 1364.61 54.4"/><polygon class="cls-2" points="1380.93 73.08 1395.75 85.73 1395.92 42.91 1380.93 73.08"/><polygon class="cls-2" points="1380.93 73.08 1395.75 85.73 1351.16 85.73 1380.93 73.08"/><polygon class="cls-2" points="1364.61 54.4 1351.16 42.43 1395.92 42.91 1364.61 54.4"/><polygon class="cls-2" points="1427.23 30.46 1440.67 42.44 1440.67 -0.86 1427.23 30.46"/><polygon class="cls-2" points="1410.9 11.79 1396.08 -0.86 1395.92 41.95 1410.9 11.79"/><polygon class="cls-2" points="1410.9 11.79 1396.08 -0.86 1440.67 -0.86 1410.9 11.79"/><polygon class="cls-2" points="1427.23 30.46 1440.67 42.44 1395.92 41.95 1427.23 30.46"/><polygon class="cls-2" points="1427.23 54.28 1440.67 42.3 1440.67 85.6 1427.23 54.28"/><polygon class="cls-2" points="1410.9 72.96 1396.08 85.6 1395.92 42.79 1410.9 72.96"/><polygon class="cls-2" points="1410.9 72.96 1396.08 85.6 1440.67 85.6 1410.9 72.96"/><polygon class="cls-2" points="1427.23 54.28 1440.67 42.3 1395.92 42.79 1427.23 54.28"/></g><g id="Layer_2-2" data-name="Layer 2" class="cls-1"><polygon class="cls-2" points="101.52 119.79 88.07 131.77 88.07 88.47 101.52 119.79"/><polygon class="cls-2" points="117.84 101.12 132.66 88.47 132.83 131.28 117.84 101.12"/><polygon class="cls-2" points="117.84 101.12 132.66 88.47 88.07 88.47 117.84 101.12"/><polygon class="cls-2" points="164.14 119.91 177.58 131.89 177.58 88.59 164.14 119.91"/><polygon class="cls-2" points="147.81 101.24 133 88.59 132.83 131.4 147.81 101.24"/><polygon class="cls-2" points="147.81 101.24 133 88.59 177.58 88.59 147.81 101.24"/><polygon class="cls-2" points="191.03 120.02 177.58 132 177.58 88.7 191.03 120.02"/><polygon class="cls-2" points="207.35 101.35 222.17 88.7 222.33 131.51 207.35 101.35"/><polygon class="cls-2" points="207.35 101.35 222.17 88.7 177.58 88.7 207.35 101.35"/><polygon class="cls-2" points="253.64 120.15 267.09 132.12 267.09 88.82 253.64 120.15"/><polygon class="cls-2" points="237.32 101.47 222.5 88.82 222.33 131.64 237.32 101.47"/><polygon class="cls-2" points="237.32 101.47 222.5 88.82 267.09 88.82 237.32 101.47"/><polygon class="cls-2" points="100.8 33.13 87.35 45.11 87.35 1.81 100.8 33.13"/><polygon class="cls-2" points="117.12 14.46 131.94 1.81 132.11 44.62 117.12 14.46"/><polygon class="cls-2" points="117.12 14.46 131.94 1.81 87.35 1.81 117.12 14.46"/><polygon class="cls-2" points="100.8 33.13 87.35 45.11 132.11 44.62 100.8 33.13"/><polygon class="cls-2" points="100.8 57.2 87.35 45.22 87.35 88.52 100.8 57.2"/><polygon class="cls-2" points="117.12 75.87 131.94 88.52 132.11 45.71 117.12 75.87"/><polygon class="cls-2" points="117.12 75.87 131.94 88.52 87.35 88.52 117.12 75.87"/><polygon class="cls-2" points="100.8 57.2 87.35 45.22 132.11 45.71 100.8 57.2"/><polygon class="cls-2" points="163.42 33.26 176.86 45.23 176.86 1.93 163.42 33.26"/><polygon class="cls-2" points="147.09 14.58 132.27 1.93 132.11 44.75 147.09 14.58"/><polygon class="cls-2" points="147.09 14.58 132.27 1.93 176.86 1.93 147.09 14.58"/><polygon class="cls-2" points="163.42 33.26 176.86 45.23 132.11 44.75 163.42 33.26"/><polygon class="cls-2" points="163.42 57.08 176.86 45.1 176.86 88.4 163.42 57.08"/><polygon class="cls-2" points="147.09 75.75 132.27 88.4 132.11 45.59 147.09 75.75"/><polygon class="cls-2" points="147.09 75.75 132.27 88.4 176.86 88.4 147.09 75.75"/><polygon class="cls-2" points="163.42 57.08 176.86 45.1 132.11 45.59 163.42 57.08"/><polygon class="cls-2" points="190.3 33.37 176.86 45.34 176.86 2.04 190.3 33.37"/><polygon class="cls-2" points="206.63 14.69 221.44 2.04 221.61 44.85 206.63 14.69"/><polygon class="cls-2" points="206.63 14.69 221.44 2.04 176.86 2.04 206.63 14.69"/><polygon class="cls-2" points="190.3 33.37 176.86 45.34 221.61 44.85 190.3 33.37"/><polygon class="cls-2" points="190.3 56.97 176.86 44.99 176.86 88.29 190.3 56.97"/><polygon class="cls-2" points="206.63 75.64 221.44 88.29 221.61 45.48 206.63 75.64"/><polygon class="cls-2" points="206.63 75.64 221.44 88.29 176.86 88.29 206.63 75.64"/><polygon class="cls-2" points="190.3 56.97 176.86 44.99 221.61 45.48 190.3 56.97"/><polygon class="cls-2" points="252.92 33.49 266.37 45.47 266.37 2.16 252.92 33.49"/><polygon class="cls-2" points="236.6 14.81 221.78 2.16 221.61 44.98 236.6 14.81"/><polygon class="cls-2" points="236.6 14.81 221.78 2.16 266.37 2.16 236.6 14.81"/><polygon class="cls-2" points="252.92 33.49 266.37 45.47 221.61 44.98 252.92 33.49"/><polygon class="cls-2" points="252.92 56.84 266.37 44.87 266.37 88.17 252.92 56.84"/><polygon class="cls-2" points="236.6 75.52 221.78 88.17 221.61 45.35 236.6 75.52"/><polygon class="cls-2" points="236.6 75.52 221.78 88.17 266.37 88.17 236.6 75.52"/><polygon class="cls-2" points="252.92 56.84 266.37 44.87 221.61 45.35 252.92 56.84"/><polygon class="cls-2" points="11.29 120.41 -2.15 132.39 -2.15 89.09 11.29 120.41"/><polygon class="cls-2" points="27.61 101.74 42.43 89.09 42.6 131.9 27.61 101.74"/><polygon class="cls-2" points="27.61 101.74 42.43 89.09 -2.15 89.09 27.61 101.74"/><polygon class="cls-2" points="73.91 120.54 87.35 132.51 87.35 89.21 73.91 120.54"/><polygon class="cls-2" points="57.58 101.86 42.77 89.21 42.6 132.02 57.58 101.86"/><polygon class="cls-2" points="57.58 101.86 42.77 89.21 87.35 89.21 57.58 101.86"/><polygon class="cls-2" points="10.57 33.76 -2.88 45.73 -2.88 2.43 10.57 33.76"/><polygon class="cls-2" points="26.89 15.08 41.71 2.43 41.88 45.24 26.89 15.08"/><polygon class="cls-2" points="26.89 15.08 41.71 2.43 -2.88 2.43 26.89 15.08"/><polygon class="cls-2" points="10.57 33.76 -2.88 45.73 41.88 45.24 10.57 33.76"/><polygon class="cls-2" points="10.57 57.82 -2.88 45.84 -2.88 89.14 10.57 57.82"/><polygon class="cls-2" points="26.89 76.49 41.71 89.14 41.88 46.33 26.89 76.49"/><polygon class="cls-2" points="26.89 76.49 41.71 89.14 -2.88 89.14 26.89 76.49"/><polygon class="cls-2" points="10.57 57.82 -2.88 45.84 41.88 46.33 10.57 57.82"/><polygon class="cls-2" points="73.19 33.88 86.63 45.85 86.63 2.55 73.19 33.88"/><polygon class="cls-2" points="56.86 15.2 42.05 2.55 41.88 45.37 56.86 15.2"/><polygon class="cls-2" points="56.86 15.2 42.05 2.55 86.63 2.55 56.86 15.2"/><polygon class="cls-2" points="73.19 33.88 86.63 45.85 41.88 45.37 73.19 33.88"/><polygon class="cls-2" points="73.19 57.7 86.63 45.72 86.63 89.02 73.19 57.7"/><polygon class="cls-2" points="56.86 76.37 42.05 89.02 41.88 46.21 56.86 76.37"/><polygon class="cls-2" points="56.86 76.37 42.05 89.02 86.63 89.02 56.86 76.37"/><polygon class="cls-2" points="73.19 57.7 86.63 45.72 41.88 46.21 73.19 57.7"/><polygon class="cls-2" points="281.25 119.58 267.81 131.56 267.81 88.26 281.25 119.58"/><polygon class="cls-2" points="297.58 100.9 312.39 88.26 312.56 131.07 297.58 100.9"/><polygon class="cls-2" points="297.58 100.9 312.39 88.26 267.81 88.26 297.58 100.9"/><polygon class="cls-2" points="343.87 119.7 357.32 131.68 357.32 88.38 343.87 119.7"/><polygon class="cls-2" points="327.55 101.03 312.73 88.38 312.56 131.19 327.55 101.03"/><polygon class="cls-2" points="327.55 101.03 312.73 88.38 357.32 88.38 327.55 101.03"/><polygon class="cls-2" points="280.53 32.92 267.09 44.9 267.09 1.6 280.53 32.92"/><polygon class="cls-2" points="296.86 14.25 311.67 1.6 311.84 44.41 296.86 14.25"/><polygon class="cls-2" points="296.86 14.25 311.67 1.6 267.09 1.6 296.86 14.25"/><polygon class="cls-2" points="280.53 32.92 267.09 44.9 311.84 44.41 280.53 32.92"/><polygon class="cls-2" points="280.53 56.99 267.09 45.01 267.09 88.31 280.53 56.99"/><polygon class="cls-2" points="296.86 75.66 311.67 88.31 311.84 45.5 296.86 75.66"/><polygon class="cls-2" points="296.86 75.66 311.67 88.31 267.09 88.31 296.86 75.66"/><polygon class="cls-2" points="280.53 56.99 267.09 45.01 311.84 45.5 280.53 56.99"/><polygon class="cls-2" points="343.15 33.04 356.59 45.02 356.59 1.72 343.15 33.04"/><polygon class="cls-2" points="326.83 14.37 312.01 1.72 311.84 44.53 326.83 14.37"/><polygon class="cls-2" points="326.83 14.37 312.01 1.72 356.59 1.72 326.83 14.37"/><polygon class="cls-2" points="343.15 33.04 356.59 45.02 311.84 44.53 343.15 33.04"/><polygon class="cls-2" points="343.15 56.86 356.59 44.89 356.59 88.19 343.15 56.86"/><polygon class="cls-2" points="326.83 75.54 312.01 88.19 311.84 45.37 326.83 75.54"/><polygon class="cls-2" points="326.83 75.54 312.01 88.19 356.59 88.19 326.83 75.54"/><polygon class="cls-2" points="343.15 56.86 356.59 44.89 311.84 45.37 343.15 56.86"/><polygon class="cls-2" points="821.76 119.05 808.32 131.02 808.32 87.72 821.76 119.05"/><polygon class="cls-2" points="838.09 100.37 852.9 87.72 853.07 130.54 838.09 100.37"/><polygon class="cls-2" points="838.09 100.37 852.9 87.72 808.32 87.72 838.09 100.37"/><polygon class="cls-2" points="884.38 119.17 897.82 131.15 897.82 87.84 884.38 119.17"/><polygon class="cls-2" points="868.06 100.49 853.24 87.84 853.07 130.66 868.06 100.49"/><polygon class="cls-2" points="868.06 100.49 853.24 87.84 897.82 87.84 868.06 100.49"/><polygon class="cls-2" points="911.27 119.28 897.82 131.26 897.82 87.95 911.27 119.28"/><polygon class="cls-2" points="927.59 100.6 942.41 87.95 942.58 130.77 927.59 100.6"/><polygon class="cls-2" points="927.59 100.6 942.41 87.95 897.82 87.95 927.59 100.6"/><polygon class="cls-2" points="973.89 119.4 987.33 131.38 987.33 88.08 973.89 119.4"/><polygon class="cls-2" points="957.56 100.73 942.75 88.08 942.58 130.89 957.56 100.73"/><polygon class="cls-2" points="957.56 100.73 942.75 88.08 987.33 88.08 957.56 100.73"/><polygon class="cls-2" points="821.04 32.39 807.6 44.37 807.6 1.06 821.04 32.39"/><polygon class="cls-2" points="837.36 13.71 852.18 1.06 852.35 43.88 837.36 13.71"/><polygon class="cls-2" points="837.36 13.71 852.18 1.06 807.6 1.06 837.36 13.71"/><polygon class="cls-2" points="821.04 32.39 807.6 44.37 852.35 43.88 821.04 32.39"/><polygon class="cls-2" points="821.04 56.45 807.6 44.48 807.6 87.78 821.04 56.45"/><polygon class="cls-2" points="837.36 75.13 852.18 87.78 852.35 44.96 837.36 75.13"/><polygon class="cls-2" points="837.36 75.13 852.18 87.78 807.6 87.78 837.36 75.13"/><polygon class="cls-2" points="821.04 56.45 807.6 44.48 852.35 44.96 821.04 56.45"/><polygon class="cls-2" points="883.66 32.51 897.1 44.49 897.1 1.19 883.66 32.51"/><polygon class="cls-2" points="867.33 13.84 852.52 1.19 852.35 44 867.33 13.84"/><polygon class="cls-2" points="867.33 13.84 852.52 1.19 897.1 1.19 867.33 13.84"/><polygon class="cls-2" points="883.66 32.51 897.1 44.49 852.35 44 883.66 32.51"/><polygon class="cls-2" points="883.66 56.33 897.1 44.35 897.1 87.65 883.66 56.33"/><polygon class="cls-2" points="867.33 75.01 852.52 87.65 852.35 44.84 867.33 75.01"/><polygon class="cls-2" points="867.33 75.01 852.52 87.65 897.1 87.65 867.33 75.01"/><polygon class="cls-2" points="883.66 56.33 897.1 44.35 852.35 44.84 883.66 56.33"/><polygon class="cls-2" points="910.55 32.62 897.1 44.6 897.1 1.3 910.55 32.62"/><polygon class="cls-2" points="926.87 13.95 941.69 1.3 941.86 44.11 926.87 13.95"/><polygon class="cls-2" points="926.87 13.95 941.69 1.3 897.1 1.3 926.87 13.95"/><polygon class="cls-2" points="910.55 32.62 897.1 44.6 941.86 44.11 910.55 32.62"/><polygon class="cls-2" points="910.55 56.22 897.1 44.24 897.1 87.54 910.55 56.22"/><polygon class="cls-2" points="926.87 74.9 941.69 87.54 941.86 44.73 926.87 74.9"/><polygon class="cls-2" points="926.87 74.9 941.69 87.54 897.1 87.54 926.87 74.9"/><polygon class="cls-2" points="910.55 56.22 897.1 44.24 941.86 44.73 910.55 56.22"/><polygon class="cls-2" points="973.17 32.74 986.61 44.72 986.61 1.42 973.17 32.74"/><polygon class="cls-2" points="956.84 14.07 942.03 1.42 941.86 44.23 956.84 14.07"/><polygon class="cls-2" points="956.84 14.07 942.03 1.42 986.61 1.42 956.84 14.07"/><polygon class="cls-2" points="973.17 32.74 986.61 44.72 941.86 44.23 973.17 32.74"/><polygon class="cls-2" points="973.17 56.1 986.61 44.12 986.61 87.42 973.17 56.1"/><polygon class="cls-2" points="956.84 74.77 942.03 87.42 941.86 44.61 956.84 74.77"/><polygon class="cls-2" points="956.84 74.77 942.03 87.42 986.61 87.42 956.84 74.77"/><polygon class="cls-2" points="973.17 56.1 986.61 44.12 941.86 44.61 973.17 56.1"/><polygon class="cls-2" points="731.53 119.67 718.09 131.65 718.09 88.34 731.53 119.67"/><polygon class="cls-2" points="747.86 100.99 762.67 88.34 762.84 131.16 747.86 100.99"/><polygon class="cls-2" points="747.86 100.99 762.67 88.34 718.09 88.34 747.86 100.99"/><polygon class="cls-2" points="794.15 119.79 807.6 131.77 807.6 88.47 794.15 119.79"/><polygon class="cls-2" points="777.83 101.12 763.01 88.47 762.84 131.28 777.83 101.12"/><polygon class="cls-2" points="777.83 101.12 763.01 88.47 807.6 88.47 777.83 101.12"/><polygon class="cls-2" points="730.81 33.01 717.37 44.99 717.37 1.69 730.81 33.01"/><polygon class="cls-2" points="747.14 14.34 761.95 1.69 762.12 44.5 747.14 14.34"/><polygon class="cls-2" points="747.14 14.34 761.95 1.69 717.37 1.69 747.14 14.34"/><polygon class="cls-2" points="730.81 33.01 717.37 44.99 762.12 44.5 730.81 33.01"/><polygon class="cls-2" points="730.81 57.07 717.37 45.1 717.37 88.4 730.81 57.07"/><polygon class="cls-2" points="747.14 75.75 761.95 88.4 762.12 45.59 747.14 75.75"/><polygon class="cls-2" points="747.14 75.75 761.95 88.4 717.37 88.4 747.14 75.75"/><polygon class="cls-2" points="730.81 57.07 717.37 45.1 762.12 45.59 730.81 57.07"/><polygon class="cls-2" points="793.43 33.13 806.87 45.11 806.87 1.81 793.43 33.13"/><polygon class="cls-2" points="777.11 14.46 762.29 1.81 762.12 44.62 777.11 14.46"/><polygon class="cls-2" points="777.11 14.46 762.29 1.81 806.87 1.81 777.11 14.46"/><polygon class="cls-2" points="793.43 33.13 806.87 45.11 762.12 44.62 793.43 33.13"/><polygon class="cls-2" points="793.43 56.95 806.87 44.98 806.87 88.28 793.43 56.95"/><polygon class="cls-2" points="777.11 75.63 762.29 88.28 762.12 45.46 777.11 75.63"/><polygon class="cls-2" points="777.11 75.63 762.29 88.28 806.87 88.28 777.11 75.63"/><polygon class="cls-2" points="793.43 56.95 806.87 44.98 762.12 45.46 793.43 56.95"/><polygon class="cls-2" points="1001.5 118.84 988.05 130.81 988.05 87.51 1001.5 118.84"/><polygon class="cls-2" points="1017.82 100.16 1032.64 87.51 1032.81 130.32 1017.82 100.16"/><polygon class="cls-2" points="1017.82 100.16 1032.64 87.51 988.05 87.51 1017.82 100.16"/><polygon class="cls-2" points="1064.12 118.96 1077.56 130.93 1077.56 87.63 1064.12 118.96"/><polygon class="cls-2" points="1047.79 100.28 1032.98 87.63 1032.81 130.45 1047.79 100.28"/><polygon class="cls-2" points="1047.79 100.28 1032.98 87.63 1077.56 87.63 1047.79 100.28"/><polygon class="cls-2" points="1000.78 32.18 987.33 44.15 987.33 0.85 1000.78 32.18"/><polygon class="cls-2" points="1017.1 13.5 1031.92 0.85 1032.08 43.67 1017.1 13.5"/><polygon class="cls-2" points="1017.1 13.5 1031.92 0.85 987.33 0.85 1017.1 13.5"/><polygon class="cls-2" points="1000.78 32.18 987.33 44.15 1032.08 43.67 1000.78 32.18"/><polygon class="cls-2" points="1000.78 56.24 987.33 44.26 987.33 87.57 1000.78 56.24"/><polygon class="cls-2" points="1017.1 74.92 1031.92 87.57 1032.08 44.75 1017.1 74.92"/><polygon class="cls-2" points="1017.1 74.92 1031.92 87.57 987.33 87.57 1017.1 74.92"/><polygon class="cls-2" points="1000.78 56.24 987.33 44.26 1032.08 44.75 1000.78 56.24"/><polygon class="cls-2" points="1063.39 32.3 1076.84 44.28 1076.84 0.98 1063.39 32.3"/><polygon class="cls-2" points="1047.07 13.62 1032.25 0.98 1032.08 43.79 1047.07 13.62"/><polygon class="cls-2" points="1047.07 13.62 1032.25 0.98 1076.84 0.98 1047.07 13.62"/><polygon class="cls-2" points="1063.39 32.3 1076.84 44.28 1032.08 43.79 1063.39 32.3"/><polygon class="cls-2" points="1063.39 56.12 1076.84 44.14 1076.84 87.44 1063.39 56.12"/><polygon class="cls-2" points="1047.07 74.79 1032.25 87.44 1032.08 44.63 1047.07 74.79"/><polygon class="cls-2" points="1047.07 74.79 1032.25 87.44 1076.84 87.44 1047.07 74.79"/><polygon class="cls-2" points="1063.39 56.12 1076.84 44.14 1032.08 44.63 1063.39 56.12"/></g><g id="Layer_2_copy-2" data-name="Layer 2 copy" class="cls-1"><polygon class="cls-2" points="461.78 119.19 448.33 131.17 448.33 87.87 461.78 119.19"/><polygon class="cls-2" points="478.1 100.52 492.92 87.87 493.09 130.68 478.1 100.52"/><polygon class="cls-2" points="478.1 100.52 492.92 87.87 448.33 87.87 478.1 100.52"/><polygon class="cls-2" points="524.4 119.31 537.84 131.29 537.84 87.99 524.4 119.31"/><polygon class="cls-2" points="508.07 100.64 493.26 87.99 493.09 130.8 508.07 100.64"/><polygon class="cls-2" points="508.07 100.64 493.26 87.99 537.84 87.99 508.07 100.64"/><polygon class="cls-2" points="551.29 119.42 537.84 131.4 537.84 88.1 551.29 119.42"/><polygon class="cls-2" points="567.61 100.75 582.43 88.1 582.6 130.91 567.61 100.75"/><polygon class="cls-2" points="567.61 100.75 582.43 88.1 537.84 88.1 567.61 100.75"/><polygon class="cls-2" points="613.9 119.55 627.35 131.52 627.35 88.22 613.9 119.55"/><polygon class="cls-2" points="597.58 100.87 582.76 88.22 582.6 131.04 597.58 100.87"/><polygon class="cls-2" points="597.58 100.87 582.76 88.22 627.35 88.22 597.58 100.87"/><polygon class="cls-2" points="461.06 32.53 447.61 44.51 447.61 1.21 461.06 32.53"/><polygon class="cls-2" points="477.38 13.86 492.2 1.21 492.37 44.02 477.38 13.86"/><polygon class="cls-2" points="477.38 13.86 492.2 1.21 447.61 1.21 477.38 13.86"/><polygon class="cls-2" points="461.06 32.53 447.61 44.51 492.37 44.02 461.06 32.53"/><polygon class="cls-2" points="461.06 56.6 447.61 44.62 447.61 87.92 461.06 56.6"/><polygon class="cls-2" points="477.38 75.27 492.2 87.92 492.37 45.11 477.38 75.27"/><polygon class="cls-2" points="477.38 75.27 492.2 87.92 447.61 87.92 477.38 75.27"/><polygon class="cls-2" points="461.06 56.6 447.61 44.62 492.37 45.11 461.06 56.6"/><polygon class="cls-2" points="523.68 32.66 537.12 44.63 537.12 1.33 523.68 32.66"/><polygon class="cls-2" points="507.35 13.98 492.54 1.33 492.37 44.15 507.35 13.98"/><polygon class="cls-2" points="507.35 13.98 492.54 1.33 537.12 1.33 507.35 13.98"/><polygon class="cls-2" points="523.68 32.66 537.12 44.63 492.37 44.15 523.68 32.66"/><polygon class="cls-2" points="523.68 56.48 537.12 44.5 537.12 87.8 523.68 56.48"/><polygon class="cls-2" points="507.35 75.15 492.54 87.8 492.37 44.99 507.35 75.15"/><polygon class="cls-2" points="507.35 75.15 492.54 87.8 537.12 87.8 507.35 75.15"/><polygon class="cls-2" points="523.68 56.48 537.12 44.5 492.37 44.99 523.68 56.48"/><polygon class="cls-2" points="550.56 32.77 537.12 44.74 537.12 1.44 550.56 32.77"/><polygon class="cls-2" points="566.89 14.09 581.7 1.44 581.87 44.26 566.89 14.09"/><polygon class="cls-2" points="566.89 14.09 581.7 1.44 537.12 1.44 566.89 14.09"/><polygon class="cls-2" points="550.56 32.77 537.12 44.74 581.87 44.26 550.56 32.77"/><polygon class="cls-2" points="550.56 56.37 537.12 44.39 537.12 87.69 550.56 56.37"/><polygon class="cls-2" points="566.89 75.04 581.7 87.69 581.87 44.88 566.89 75.04"/><polygon class="cls-2" points="566.89 75.04 581.7 87.69 537.12 87.69 566.89 75.04"/><polygon class="cls-2" points="550.56 56.37 537.12 44.39 581.87 44.88 550.56 56.37"/><polygon class="cls-2" points="613.18 32.89 626.63 44.87 626.63 1.56 613.18 32.89"/><polygon class="cls-2" points="596.86 14.21 582.04 1.56 581.87 44.38 596.86 14.21"/><polygon class="cls-2" points="596.86 14.21 582.04 1.56 626.63 1.56 596.86 14.21"/><polygon class="cls-2" points="613.18 32.89 626.63 44.87 581.87 44.38 613.18 32.89"/><polygon class="cls-2" points="613.18 56.24 626.63 44.27 626.63 87.57 613.18 56.24"/><polygon class="cls-2" points="596.86 74.92 582.04 87.57 581.87 44.75 596.86 74.92"/><polygon class="cls-2" points="596.86 74.92 582.04 87.57 626.63 87.57 596.86 74.92"/><polygon class="cls-2" points="613.18 56.24 626.63 44.27 581.87 44.75 613.18 56.24"/><polygon class="cls-2" points="371.55 119.81 358.11 131.79 358.11 88.49 371.55 119.81"/><polygon class="cls-2" points="387.87 101.14 402.69 88.49 402.86 131.3 387.87 101.14"/><polygon class="cls-2" points="387.87 101.14 402.69 88.49 358.11 88.49 387.87 101.14"/><polygon class="cls-2" points="434.17 119.94 447.61 131.91 447.61 88.61 434.17 119.94"/><polygon class="cls-2" points="417.84 101.26 403.03 88.61 402.86 131.43 417.84 101.26"/><polygon class="cls-2" points="417.84 101.26 403.03 88.61 447.61 88.61 417.84 101.26"/><polygon class="cls-2" points="370.83 33.16 357.38 45.13 357.38 1.83 370.83 33.16"/><polygon class="cls-2" points="387.15 14.48 401.97 1.83 402.14 44.65 387.15 14.48"/><polygon class="cls-2" points="387.15 14.48 401.97 1.83 357.38 1.83 387.15 14.48"/><polygon class="cls-2" points="370.83 33.16 357.38 45.13 402.14 44.65 370.83 33.16"/><polygon class="cls-2" points="370.83 57.22 357.38 45.24 357.38 88.54 370.83 57.22"/><polygon class="cls-2" points="387.15 75.9 401.97 88.54 402.14 45.73 387.15 75.9"/><polygon class="cls-2" points="387.15 75.9 401.97 88.54 357.38 88.54 387.15 75.9"/><polygon class="cls-2" points="370.83 57.22 357.38 45.24 402.14 45.73 370.83 57.22"/><polygon class="cls-2" points="433.45 33.28 446.89 45.26 446.89 1.95 433.45 33.28"/><polygon class="cls-2" points="417.12 14.6 402.31 1.95 402.14 44.77 417.12 14.6"/><polygon class="cls-2" points="417.12 14.6 402.31 1.95 446.89 1.95 417.12 14.6"/><polygon class="cls-2" points="433.45 33.28 446.89 45.26 402.14 44.77 433.45 33.28"/><polygon class="cls-2" points="433.45 57.1 446.89 45.12 446.89 88.42 433.45 57.1"/><polygon class="cls-2" points="417.12 75.77 402.31 88.42 402.14 45.61 417.12 75.77"/><polygon class="cls-2" points="417.12 75.77 402.31 88.42 446.89 88.42 417.12 75.77"/><polygon class="cls-2" points="433.45 57.1 446.89 45.12 402.14 45.61 433.45 57.1"/><polygon class="cls-2" points="641.51 118.98 628.07 130.96 628.07 87.66 641.51 118.98"/><polygon class="cls-2" points="657.84 100.31 672.66 87.66 672.82 130.47 657.84 100.31"/><polygon class="cls-2" points="657.84 100.31 672.66 87.66 628.07 87.66 657.84 100.31"/><polygon class="cls-2" points="704.13 119.1 717.58 131.08 717.58 87.78 704.13 119.1"/><polygon class="cls-2" points="687.81 100.43 672.99 87.78 672.82 130.59 687.81 100.43"/><polygon class="cls-2" points="687.81 100.43 672.99 87.78 717.58 87.78 687.81 100.43"/><polygon class="cls-2" points="640.79 32.32 627.35 44.3 627.35 1 640.79 32.32"/><polygon class="cls-2" points="657.12 13.65 671.93 1 672.1 43.81 657.12 13.65"/><polygon class="cls-2" points="657.12 13.65 671.93 1 627.35 1 657.12 13.65"/><polygon class="cls-2" points="640.79 32.32 627.35 44.3 672.1 43.81 640.79 32.32"/><polygon class="cls-2" points="640.79 56.39 627.35 44.41 627.35 87.71 640.79 56.39"/><polygon class="cls-2" points="657.12 75.06 671.93 87.71 672.1 44.9 657.12 75.06"/><polygon class="cls-2" points="657.12 75.06 671.93 87.71 627.35 87.71 657.12 75.06"/><polygon class="cls-2" points="640.79 56.39 627.35 44.41 672.1 44.9 640.79 56.39"/><polygon class="cls-2" points="703.41 32.45 716.86 44.42 716.86 1.12 703.41 32.45"/><polygon class="cls-2" points="687.09 13.77 672.27 1.12 672.1 43.93 687.09 13.77"/><polygon class="cls-2" points="687.09 13.77 672.27 1.12 716.86 1.12 687.09 13.77"/><polygon class="cls-2" points="703.41 32.45 716.86 44.42 672.1 43.93 703.41 32.45"/><polygon class="cls-2" points="703.41 56.26 716.86 44.29 716.86 87.59 703.41 56.26"/><polygon class="cls-2" points="687.09 74.94 672.27 87.59 672.1 44.78 687.09 74.94"/><polygon class="cls-2" points="687.09 74.94 672.27 87.59 716.86 87.59 687.09 74.94"/><polygon class="cls-2" points="703.41 56.26 716.86 44.29 672.1 44.78 703.41 56.26"/><polygon class="cls-2" points="1182.02 118.45 1168.58 130.42 1168.58 87.12 1182.02 118.45"/><polygon class="cls-2" points="1198.35 99.77 1213.16 87.12 1213.33 129.94 1198.35 99.77"/><polygon class="cls-2" points="1198.35 99.77 1213.16 87.12 1168.58 87.12 1198.35 99.77"/><polygon class="cls-2" points="1244.64 118.57 1258.09 130.55 1258.09 87.25 1244.64 118.57"/><polygon class="cls-2" points="1228.32 99.89 1213.5 87.25 1213.33 130.06 1228.32 99.89"/><polygon class="cls-2" points="1228.32 99.89 1213.5 87.25 1258.09 87.25 1228.32 99.89"/><polygon class="cls-2" points="1271.53 118.68 1258.09 130.66 1258.09 87.35 1271.53 118.68"/><polygon class="cls-2" points="1287.85 100 1302.67 87.35 1302.84 130.17 1287.85 100"/><polygon class="cls-2" points="1287.85 100 1302.67 87.35 1258.09 87.35 1287.85 100"/><polygon class="cls-2" points="1334.15 118.8 1347.59 130.78 1347.59 87.48 1334.15 118.8"/><polygon class="cls-2" points="1317.82 100.13 1303.01 87.48 1302.84 130.29 1317.82 100.13"/><polygon class="cls-2" points="1317.82 100.13 1303.01 87.48 1347.59 87.48 1317.82 100.13"/><polygon class="cls-2" points="1181.3 31.79 1167.86 43.77 1167.86 0.46 1181.3 31.79"/><polygon class="cls-2" points="1197.62 13.11 1212.44 0.46 1212.61 43.28 1197.62 13.11"/><polygon class="cls-2" points="1197.62 13.11 1212.44 0.46 1167.86 0.46 1197.62 13.11"/><polygon class="cls-2" points="1181.3 31.79 1167.86 43.77 1212.61 43.28 1181.3 31.79"/><polygon class="cls-2" points="1181.3 55.85 1167.86 43.88 1167.86 87.18 1181.3 55.85"/><polygon class="cls-2" points="1197.62 74.53 1212.44 87.18 1212.61 44.36 1197.62 74.53"/><polygon class="cls-2" points="1197.62 74.53 1212.44 87.18 1167.86 87.18 1197.62 74.53"/><polygon class="cls-2" points="1181.3 55.85 1167.86 43.88 1212.61 44.36 1181.3 55.85"/><polygon class="cls-2" points="1243.92 31.91 1257.36 43.89 1257.36 0.59 1243.92 31.91"/><polygon class="cls-2" points="1227.6 13.24 1212.78 0.59 1212.61 43.4 1227.6 13.24"/><polygon class="cls-2" points="1227.6 13.24 1212.78 0.59 1257.36 0.59 1227.6 13.24"/><polygon class="cls-2" points="1243.92 31.91 1257.36 43.89 1212.61 43.4 1243.92 31.91"/><polygon class="cls-2" points="1243.92 55.73 1257.36 43.75 1257.36 87.06 1243.92 55.73"/><polygon class="cls-2" points="1227.6 74.41 1212.78 87.06 1212.61 44.24 1227.6 74.41"/><polygon class="cls-2" points="1227.6 74.41 1212.78 87.06 1257.36 87.06 1227.6 74.41"/><polygon class="cls-2" points="1243.92 55.73 1257.36 43.75 1212.61 44.24 1243.92 55.73"/><polygon class="cls-2" points="1270.81 32.02 1257.36 44 1257.36 0.7 1270.81 32.02"/><polygon class="cls-2" points="1287.13 13.35 1301.95 0.7 1302.12 43.51 1287.13 13.35"/><polygon class="cls-2" points="1287.13 13.35 1301.95 0.7 1257.36 0.7 1287.13 13.35"/><polygon class="cls-2" points="1270.81 32.02 1257.36 44 1302.12 43.51 1270.81 32.02"/><polygon class="cls-2" points="1270.81 55.62 1257.36 43.64 1257.36 86.95 1270.81 55.62"/><polygon class="cls-2" points="1287.13 74.3 1301.95 86.95 1302.12 44.13 1287.13 74.3"/><polygon class="cls-2" points="1287.13 74.3 1301.95 86.95 1257.36 86.95 1287.13 74.3"/><polygon class="cls-2" points="1270.81 55.62 1257.36 43.64 1302.12 44.13 1270.81 55.62"/><polygon class="cls-2" points="1333.43 32.14 1346.87 44.12 1346.87 0.82 1333.43 32.14"/><polygon class="cls-2" points="1317.1 13.47 1302.29 0.82 1302.12 43.63 1317.1 13.47"/><polygon class="cls-2" points="1317.1 13.47 1302.29 0.82 1346.87 0.82 1317.1 13.47"/><polygon class="cls-2" points="1333.43 32.14 1346.87 44.12 1302.12 43.63 1333.43 32.14"/><polygon class="cls-2" points="1333.43 55.5 1346.87 43.52 1346.87 86.82 1333.43 55.5"/><polygon class="cls-2" points="1317.1 74.17 1302.29 86.82 1302.12 44.01 1317.1 74.17"/><polygon class="cls-2" points="1317.1 74.17 1302.29 86.82 1346.87 86.82 1317.1 74.17"/><polygon class="cls-2" points="1333.43 55.5 1346.87 43.52 1302.12 44.01 1333.43 55.5"/><polygon class="cls-2" points="1091.79 119.07 1078.35 131.05 1078.35 87.74 1091.79 119.07"/><polygon class="cls-2" points="1108.12 100.39 1122.93 87.74 1123.1 130.56 1108.12 100.39"/><polygon class="cls-2" points="1108.12 100.39 1122.93 87.74 1078.35 87.74 1108.12 100.39"/><polygon class="cls-2" points="1154.41 119.19 1167.86 131.17 1167.86 87.87 1154.41 119.19"/><polygon class="cls-2" points="1138.09 100.52 1123.27 87.87 1123.1 130.68 1138.09 100.52"/><polygon class="cls-2" points="1138.09 100.52 1123.27 87.87 1167.86 87.87 1138.09 100.52"/><polygon class="cls-2" points="1091.07 32.41 1077.63 44.39 1077.63 1.09 1091.07 32.41"/><polygon class="cls-2" points="1107.4 13.74 1122.21 1.09 1122.38 43.9 1107.4 13.74"/><polygon class="cls-2" points="1107.4 13.74 1122.21 1.09 1077.63 1.09 1107.4 13.74"/><polygon class="cls-2" points="1091.07 32.41 1077.63 44.39 1122.38 43.9 1091.07 32.41"/><polygon class="cls-2" points="1091.07 56.48 1077.63 44.5 1077.63 87.8 1091.07 56.48"/><polygon class="cls-2" points="1107.4 75.15 1122.21 87.8 1122.38 44.99 1107.4 75.15"/><polygon class="cls-2" points="1107.4 75.15 1122.21 87.8 1077.63 87.8 1107.4 75.15"/><polygon class="cls-2" points="1091.07 56.48 1077.63 44.5 1122.38 44.99 1091.07 56.48"/><polygon class="cls-2" points="1153.69 32.53 1167.13 44.51 1167.13 1.21 1153.69 32.53"/><polygon class="cls-2" points="1137.37 13.86 1122.55 1.21 1122.38 44.02 1137.37 13.86"/><polygon class="cls-2" points="1137.37 13.86 1122.55 1.21 1167.13 1.21 1137.37 13.86"/><polygon class="cls-2" points="1153.69 32.53 1167.13 44.51 1122.38 44.02 1153.69 32.53"/><polygon class="cls-2" points="1153.69 56.35 1167.13 44.38 1167.13 87.68 1153.69 56.35"/><polygon class="cls-2" points="1137.37 75.03 1122.55 87.68 1122.38 44.86 1137.37 75.03"/><polygon class="cls-2" points="1137.37 75.03 1122.55 87.68 1167.13 87.68 1137.37 75.03"/><polygon class="cls-2" points="1153.69 56.35 1167.13 44.38 1122.38 44.86 1153.69 56.35"/><polygon class="cls-2" points="1361.76 118.24 1348.31 130.21 1348.31 86.91 1361.76 118.24"/><polygon class="cls-2" points="1378.08 99.56 1392.9 86.91 1393.07 129.73 1378.08 99.56"/><polygon class="cls-2" points="1378.08 99.56 1392.9 86.91 1348.31 86.91 1378.08 99.56"/><polygon class="cls-2" points="1424.38 118.36 1437.82 130.34 1437.82 87.03 1424.38 118.36"/><polygon class="cls-2" points="1408.05 99.68 1393.24 87.03 1393.07 129.85 1408.05 99.68"/><polygon class="cls-2" points="1408.05 99.68 1393.24 87.03 1437.82 87.03 1408.05 99.68"/><polygon class="cls-2" points="1361.04 31.58 1347.59 43.56 1347.59 0.25 1361.04 31.58"/><polygon class="cls-2" points="1377.36 12.9 1392.18 0.25 1392.35 43.07 1377.36 12.9"/><polygon class="cls-2" points="1377.36 12.9 1392.18 0.25 1347.59 0.25 1377.36 12.9"/><polygon class="cls-2" points="1361.04 31.58 1347.59 43.56 1392.35 43.07 1361.04 31.58"/><polygon class="cls-2" points="1361.04 55.64 1347.59 43.67 1347.59 86.97 1361.04 55.64"/><polygon class="cls-2" points="1377.36 74.32 1392.18 86.97 1392.35 44.15 1377.36 74.32"/><polygon class="cls-2" points="1377.36 74.32 1392.18 86.97 1347.59 86.97 1377.36 74.32"/><polygon class="cls-2" points="1361.04 55.64 1347.59 43.67 1392.35 44.15 1361.04 55.64"/><polygon class="cls-2" points="1423.66 31.7 1437.1 43.68 1437.1 0.38 1423.66 31.7"/><polygon class="cls-2" points="1407.33 13.03 1392.51 0.38 1392.35 43.19 1407.33 13.03"/><polygon class="cls-2" points="1407.33 13.03 1392.51 0.38 1437.1 0.38 1407.33 13.03"/><polygon class="cls-2" points="1423.66 31.7 1437.1 43.68 1392.35 43.19 1423.66 31.7"/><polygon class="cls-2" points="1423.66 55.52 1437.1 43.54 1437.1 86.84 1423.66 55.52"/><polygon class="cls-2" points="1407.33 74.2 1392.51 86.84 1392.35 44.03 1407.33 74.2"/><polygon class="cls-2" points="1407.33 74.2 1392.51 86.84 1437.1 86.84 1407.33 74.2"/><polygon class="cls-2" points="1423.66 55.52 1437.1 43.54 1392.35 44.03 1423.66 55.52"/></g></svg>