<?xml version="1.0" encoding="utf-8"?>
<!-- Generator: Adobe Illustrator 24.3.0, SVG Export Plug-In . SVG Version: 6.00 Build 0)  -->
<svg version="1.1" id="Layer_2" xmlns="http://www.w3.org/2000/svg" xmlns:xlink="http://www.w3.org/1999/xlink" x="0px" y="0px"
	 viewBox="0 0 1296 1728" style="enable-background:new 0 0 1296 1728;" xml:space="preserve">
<style type="text/css">
	.st0{fill:none;stroke:#BCE2E2;stroke-miterlimit:10;}
</style>
<g>
	<g>
		<polygon class="st0" points="156.25,77.14 138.27,76.11 168.89,45.49 		"/>
		<polygon class="st0" points="180.99,75.48 200.42,77.01 170.26,107.41 		"/>
		<polygon class="st0" points="180.99,75.48 200.42,77.01 168.89,45.49 		"/>
		<polygon class="st0" points="156.25,77.14 138.27,76.11 170.26,107.41 		"/>
	</g>
	<g>
		<polygon class="st0" points="200.44,121.51 201.47,139.48 232.09,108.87 		"/>
		<polygon class="st0" points="202.1,96.76 200.57,77.34 170.17,107.49 		"/>
		<polygon class="st0" points="202.1,96.76 200.57,77.34 232.09,108.87 		"/>
		<polygon class="st0" points="200.44,121.51 201.47,139.48 170.17,107.49 		"/>
	</g>
	<g>
		<polygon class="st0" points="138.34,93.27 137.31,75.3 106.69,105.92 		"/>
		<polygon class="st0" points="136.68,118.02 138.21,137.44 168.61,107.29 		"/>
		<polygon class="st0" points="136.68,118.02 138.21,137.44 106.69,105.92 		"/>
		<polygon class="st0" points="138.34,93.27 137.31,75.3 168.61,107.29 		"/>
	</g>
	<g>
		<polygon class="st0" points="182.71,137.46 200.68,138.5 170.06,169.12 		"/>
		<polygon class="st0" points="157.96,139.13 138.54,137.59 168.69,107.2 		"/>
		<polygon class="st0" points="157.96,139.13 138.54,137.59 170.06,169.12 		"/>
		<polygon class="st0" points="182.71,137.46 200.68,138.5 168.69,107.2 		"/>
	</g>
</g>
</svg>
