<?xml version="1.0" encoding="utf-8"?>
<!-- Generator: Adobe Illustrator 24.3.0, SVG Export Plug-In . SVG Version: 6.00 Build 0)  -->
<svg version="1.1" id="Layer_2_1_" xmlns="http://www.w3.org/2000/svg" xmlns:xlink="http://www.w3.org/1999/xlink" x="0px" y="0px"
	 viewBox="0 0 160 147.5" style="enable-background:new 0 0 160 147.5;" xml:space="preserve">
<style type="text/css">
	.st0{fill:none;stroke:#BCE2E2;stroke-miterlimit:10;}
</style>
<g>
	<g>
		<polygon class="st0" points="65.8,43.1 47.8,42.1 78.4,11.5 		"/>
		<polygon class="st0" points="90.5,41.5 109.9,43 79.8,73.4 		"/>
		<polygon class="st0" points="90.5,41.5 109.9,43 78.4,11.5 		"/>
		<polygon class="st0" points="65.8,43.1 47.8,42.1 79.8,73.4 		"/>
	</g>
	<g>
		<polygon class="st0" points="109.9,87.5 111,105.5 141.6,74.9 		"/>
		<polygon class="st0" points="111.6,62.8 110.1,43.3 79.7,73.5 		"/>
		<polygon class="st0" points="111.6,62.8 110.1,43.3 141.6,74.9 		"/>
		<polygon class="st0" points="109.9,87.5 111,105.5 79.7,73.5 		"/>
	</g>
	<g>
		<polygon class="st0" points="47.8,59.3 46.8,41.3 16.2,71.9 		"/>
		<polygon class="st0" points="46.2,84 47.7,103.4 78.1,73.3 		"/>
		<polygon class="st0" points="46.2,84 47.7,103.4 16.2,71.9 		"/>
		<polygon class="st0" points="47.8,59.3 46.8,41.3 78.1,73.3 		"/>
	</g>
	<g>
		<polygon class="st0" points="92.2,103.5 110.2,104.5 79.6,135.1 		"/>
		<polygon class="st0" points="67.5,105.1 48,103.6 78.2,73.2 		"/>
		<polygon class="st0" points="67.5,105.1 48,103.6 79.6,135.1 		"/>
		<polygon class="st0" points="92.2,103.5 110.2,104.5 78.2,73.2 		"/>
	</g>
</g>
</svg>
