<?xml version="1.0" encoding="utf-8"?>
<!-- Generator: Adobe Illustrator 24.3.0, SVG Export Plug-In . SVG Version: 6.00 Build 0)  -->
<svg version="1.1" id="Layer_2_copy" xmlns="http://www.w3.org/2000/svg" xmlns:xlink="http://www.w3.org/1999/xlink" x="0px"
	 y="0px" viewBox="0 0 1600 2000" style="enable-background:new 0 0 1600 2000;" xml:space="preserve">
<style type="text/css">
	.st0{fill:none;stroke:#00626B;stroke-miterlimit:10;}
</style>
<polygon class="st0" points="1127.75,110.61 1149.9,98.7 1138.42,152.76 "/>
<polygon class="st0" points="1127.75,110.61 1149.9,98.7 1093.65,86.53 "/>
<polygon class="st0" points="1181.02,146.97 1194.71,165.76 1206.54,111.13 "/>
<polygon class="st0" points="1165.53,118.95 1150.29,98.95 1138.38,152.92 "/>
<polygon class="st0" points="1165.53,118.95 1150.29,98.95 1206.54,111.13 "/>
<polygon class="st0" points="1181.02,146.97 1194.71,165.76 1138.38,152.92 "/>
<polygon class="st0" points="1169.26,201.29 1182.95,220.08 1194.78,165.45 "/>
<polygon class="st0" points="1153.77,173.27 1138.53,153.27 1194.78,165.45 "/>
<polygon class="st0" points="1169.26,201.29 1182.95,220.08 1126.62,207.24 "/>
<polygon class="st0" points="1037.65,-23.65 1059.79,-35.56 1048.31,18.5 "/>
<polygon class="st0" points="1037.65,-23.65 1059.79,-35.56 1003.55,-47.74 "/>
<polygon class="st0" points="1020.87,53.83 1036.11,73.83 1048.02,19.87 "/>
<polygon class="st0" points="1090.92,12.71 1104.61,31.49 1116.44,-23.14 "/>
<polygon class="st0" points="1075.42,-15.31 1060.19,-35.32 1048.28,18.65 "/>
<polygon class="st0" points="1075.42,-15.31 1060.19,-35.32 1116.44,-23.14 "/>
<polygon class="st0" points="1090.92,12.71 1104.61,31.49 1048.28,18.65 "/>
<polygon class="st0" points="1084.41,42.76 1104.65,31.32 1092.82,85.95 "/>
<polygon class="st0" points="1058.72,61.86 1036.57,73.77 1048.05,19.71 "/>
<polygon class="st0" points="1084.41,42.76 1104.65,31.32 1048.05,19.71 "/>
<polygon class="st0" points="1124.81,20.19 1104.58,31.63 1116.41,-23 "/>
<polygon class="st0" points="1150.51,1.09 1172.65,-10.82 1161.17,43.24 "/>
<polygon class="st0" points="1150.51,1.09 1172.65,-10.82 1116.41,-23 "/>
<polygon class="st0" points="1124.81,20.19 1104.58,31.63 1161.17,43.24 "/>
<polygon class="st0" points="1118.37,49.96 1104.68,31.18 1092.85,85.81 "/>
<polygon class="st0" points="1133.86,77.98 1149.1,97.99 1161,44.02 "/>
<polygon class="st0" points="1133.86,77.98 1149.1,97.99 1092.85,85.81 "/>
<polygon class="st0" points="1118.37,49.96 1104.68,31.18 1161,44.02 "/>
<polygon class="st0" points="1203.78,37.45 1217.47,56.23 1229.3,1.6 "/>
<polygon class="st0" points="1188.28,9.43 1173.05,-10.58 1161.14,43.39 "/>
<polygon class="st0" points="1188.28,9.43 1173.05,-10.58 1229.3,1.6 "/>
<polygon class="st0" points="1203.78,37.45 1217.47,56.23 1161.14,43.39 "/>
<polygon class="st0" points="1197.4,66.91 1217.63,55.47 1205.81,110.1 "/>
<polygon class="st0" points="1171.7,86.01 1149.56,97.93 1161.04,43.87 "/>
<polygon class="st0" points="1171.7,86.01 1149.56,97.93 1205.81,110.1 "/>
<polygon class="st0" points="1197.4,66.91 1217.63,55.47 1161.04,43.87 "/>
<polygon class="st0" points="1216.01,153.8 1195.78,165.24 1207.6,110.61 "/>
<polygon class="st0" points="1241.71,134.7 1263.85,122.79 1252.37,176.85 "/>
<polygon class="st0" points="1241.71,134.7 1263.85,122.79 1207.6,110.61 "/>
<polygon class="st0" points="1216.01,153.8 1195.78,165.24 1252.37,176.85 "/>
<polygon class="st0" points="1204.25,208.12 1184.02,219.56 1195.84,164.93 "/>
<polygon class="st0" points="1229.95,189.02 1252.09,177.11 1240.61,231.17 "/>
<polygon class="st0" points="1229.95,189.02 1252.09,177.11 1195.84,164.93 "/>
<polygon class="st0" points="1204.25,208.12 1184.02,219.56 1240.61,231.17 "/>
<polygon class="st0" points="1294.98,171.06 1308.67,189.84 1320.49,135.21 "/>
<polygon class="st0" points="1279.48,143.04 1264.25,123.03 1252.34,177 "/>
<polygon class="st0" points="1279.48,143.04 1264.25,123.03 1320.49,135.21 "/>
<polygon class="st0" points="1294.98,171.06 1308.67,189.84 1252.34,177 "/>
<polygon class="st0" points="1283.22,225.38 1296.91,244.16 1308.73,189.53 "/>
<polygon class="st0" points="1267.72,197.36 1252.49,177.35 1240.58,231.32 "/>
<polygon class="st0" points="1267.72,197.36 1252.49,177.35 1308.73,189.53 "/>
<polygon class="st0" points="1283.22,225.38 1296.91,244.16 1240.58,231.32 "/>
<polygon class="st0" points="1238.77,44.27 1218.53,55.71 1230.36,1.08 "/>
<polygon class="st0" points="1264.46,25.17 1286.61,13.26 1275.13,67.32 "/>
<polygon class="st0" points="1264.46,25.17 1286.61,13.26 1230.36,1.08 "/>
<polygon class="st0" points="1238.77,44.27 1218.53,55.71 1275.13,67.32 "/>
<polygon class="st0" points="1232.19,74.63 1218.5,55.85 1206.68,110.48 "/>
<polygon class="st0" points="1247.69,102.65 1262.93,122.66 1274.83,68.69 "/>
<polygon class="st0" points="1247.69,102.65 1262.93,122.66 1206.68,110.48 "/>
<polygon class="st0" points="1232.19,74.63 1218.5,55.85 1274.83,68.69 "/>
<polygon class="st0" points="1317.73,61.53 1331.42,80.31 1343.25,25.68 "/>
<polygon class="st0" points="1302.24,33.51 1287,13.51 1275.1,67.47 "/>
<polygon class="st0" points="1302.24,33.51 1287,13.51 1343.25,25.68 "/>
<polygon class="st0" points="1317.73,61.53 1331.42,80.31 1275.1,67.47 "/>
<polygon class="st0" points="1311.23,91.58 1331.46,80.14 1319.64,134.77 "/>
<polygon class="st0" points="1285.53,110.68 1263.39,122.6 1274.87,68.54 "/>
<polygon class="st0" points="1285.53,110.68 1263.39,122.6 1319.64,134.77 "/>
<polygon class="st0" points="1311.23,91.58 1331.46,80.14 1274.87,68.54 "/>
<polygon class="st0" points="1161.3,230.42 1181.53,218.98 1169.71,273.61 "/>
<polygon class="st0" points="1161.3,230.42 1181.53,218.98 1124.94,207.37 "/>
<polygon class="st0" points="1196.09,238.14 1182.4,219.36 1170.58,273.99 "/>
<polygon class="st0" points="1211.59,266.16 1226.83,286.16 1238.73,232.19 "/>
<polygon class="st0" points="1211.59,266.16 1226.83,286.16 1170.58,273.99 "/>
<polygon class="st0" points="1196.09,238.14 1182.4,219.36 1238.73,232.19 "/>
<polygon class="st0" points="1275.13,255.09 1295.36,243.65 1283.53,298.28 "/>
<polygon class="st0" points="1249.43,274.19 1227.29,286.1 1238.77,232.04 "/>
<polygon class="st0" points="1249.43,274.19 1227.29,286.1 1283.53,298.28 "/>
<polygon class="st0" points="1275.13,255.09 1295.36,243.65 1238.77,232.04 "/>
<polygon class="st0" points="1204.91,298.05 1227.05,286.14 1170.81,273.96 "/>
<polygon class="st0" points="1242.69,306.39 1227.45,286.38 1283.7,298.56 "/>
<polygon class="st0" points="1443.87,202.62 1423.64,214.05 1435.46,159.42 "/>
<polygon class="st0" points="1469.57,183.51 1491.71,171.6 1480.23,225.66 "/>
<polygon class="st0" points="1469.57,183.51 1491.71,171.6 1435.46,159.42 "/>
<polygon class="st0" points="1443.87,202.62 1423.64,214.05 1480.23,225.66 "/>
<polygon class="st0" points="1432.11,256.94 1411.88,268.38 1423.7,213.75 "/>
<polygon class="st0" points="1457.81,237.83 1479.95,225.92 1468.47,279.98 "/>
<polygon class="st0" points="1457.81,237.83 1479.95,225.92 1423.7,213.75 "/>
<polygon class="st0" points="1432.11,256.94 1411.88,268.38 1468.47,279.98 "/>
<polygon class="st0" points="1522.84,219.87 1536.53,238.66 1548.35,184.03 "/>
<polygon class="st0" points="1507.34,191.85 1492.11,171.85 1480.2,225.82 "/>
<polygon class="st0" points="1507.34,191.85 1492.11,171.85 1548.35,184.03 "/>
<polygon class="st0" points="1522.84,219.87 1536.53,238.66 1480.2,225.82 "/>
<polygon class="st0" points="1511.08,274.19 1524.77,292.98 1536.59,238.35 "/>
<polygon class="st0" points="1495.58,246.17 1480.35,226.17 1468.44,280.14 "/>
<polygon class="st0" points="1495.58,246.17 1480.35,226.17 1536.59,238.35 "/>
<polygon class="st0" points="1511.08,274.19 1524.77,292.98 1468.44,280.14 "/>
<polygon class="st0" points="1556.73,227.36 1536.5,238.79 1548.32,184.16 "/>
<polygon class="st0" points="1582.43,208.25 1604.57,196.34 1593.09,250.4 "/>
<polygon class="st0" points="1582.43,208.25 1604.57,196.34 1548.32,184.16 "/>
<polygon class="st0" points="1556.73,227.36 1536.5,238.79 1593.09,250.4 "/>
<polygon class="st0" points="1544.97,281.68 1524.74,293.12 1536.56,238.49 "/>
<polygon class="st0" points="1570.67,262.57 1592.81,250.66 1581.33,304.72 "/>
<polygon class="st0" points="1570.67,262.57 1592.81,250.66 1536.56,238.49 "/>
<polygon class="st0" points="1544.97,281.68 1524.74,293.12 1581.33,304.72 "/>
<polygon class="st0" points="1635.7,244.61 1649.39,263.4 1661.21,208.77 "/>
<polygon class="st0" points="1620.2,216.59 1604.97,196.59 1593.06,250.56 "/>
<polygon class="st0" points="1620.2,216.59 1604.97,196.59 1661.21,208.77 "/>
<polygon class="st0" points="1635.7,244.61 1649.39,263.4 1593.06,250.56 "/>
<polygon class="st0" points="1623.94,298.93 1637.63,317.72 1649.45,263.09 "/>
<polygon class="st0" points="1608.44,270.91 1593.21,250.91 1581.3,304.88 "/>
<polygon class="st0" points="1608.44,270.91 1593.21,250.91 1649.45,263.09 "/>
<polygon class="st0" points="1623.94,298.93 1637.63,317.72 1581.3,304.88 "/>
<polygon class="st0" points="1466.63,93.09 1446.39,104.53 1458.22,49.9 "/>
<polygon class="st0" points="1492.32,73.99 1514.47,62.08 1502.99,116.14 "/>
<polygon class="st0" points="1492.32,73.99 1514.47,62.08 1458.22,49.9 "/>
<polygon class="st0" points="1466.63,93.09 1446.39,104.53 1502.99,116.14 "/>
<polygon class="st0" points="1460.05,123.45 1446.36,104.67 1434.54,159.3 "/>
<polygon class="st0" points="1475.55,151.47 1490.79,171.47 1502.69,117.51 "/>
<polygon class="st0" points="1475.55,151.47 1490.79,171.47 1434.54,159.3 "/>
<polygon class="st0" points="1460.05,123.45 1446.36,104.67 1502.69,117.51 "/>
<polygon class="st0" points="1545.6,110.35 1559.29,129.13 1571.11,74.5 "/>
<polygon class="st0" points="1530.1,82.33 1514.86,62.32 1502.96,116.29 "/>
<polygon class="st0" points="1530.1,82.33 1514.86,62.32 1571.11,74.5 "/>
<polygon class="st0" points="1545.6,110.35 1559.29,129.13 1502.96,116.29 "/>
<polygon class="st0" points="1539.09,140.4 1559.32,128.96 1547.5,183.59 "/>
<polygon class="st0" points="1513.39,159.5 1491.25,171.41 1502.73,117.35 "/>
<polygon class="st0" points="1513.39,159.5 1491.25,171.41 1547.5,183.59 "/>
<polygon class="st0" points="1539.09,140.4 1559.32,128.96 1502.73,117.35 "/>
<polygon class="st0" points="1579.49,117.83 1559.26,129.27 1571.08,74.64 "/>
<polygon class="st0" points="1605.18,98.73 1627.33,86.81 1615.85,140.88 "/>
<polygon class="st0" points="1605.18,98.73 1627.33,86.81 1571.08,74.64 "/>
<polygon class="st0" points="1579.49,117.83 1559.26,129.27 1615.85,140.88 "/>
<polygon class="st0" points="1573.04,147.6 1559.35,128.82 1547.53,183.45 "/>
<polygon class="st0" points="1588.54,175.62 1603.77,195.63 1615.68,141.66 "/>
<polygon class="st0" points="1588.54,175.62 1603.77,195.63 1547.53,183.45 "/>
<polygon class="st0" points="1573.04,147.6 1559.35,128.82 1615.68,141.66 "/>
<polygon class="st0" points="1658.46,135.09 1672.15,153.87 1683.97,99.24 "/>
<polygon class="st0" points="1642.96,107.07 1627.72,87.06 1615.82,141.03 "/>
<polygon class="st0" points="1642.96,107.07 1627.72,87.06 1683.97,99.24 "/>
<polygon class="st0" points="1658.46,135.09 1672.15,153.87 1615.82,141.03 "/>
<polygon class="st0" points="1652.08,164.55 1672.31,153.11 1660.48,207.74 "/>
<polygon class="st0" points="1626.38,183.65 1604.23,195.56 1615.71,141.5 "/>
<polygon class="st0" points="1626.38,183.65 1604.23,195.56 1660.48,207.74 "/>
<polygon class="st0" points="1652.08,164.55 1672.31,153.11 1615.71,141.5 "/>
<polygon class="st0" points="1329.87,178.76 1309.63,190.2 1321.46,135.57 "/>
<polygon class="st0" points="1355.56,159.65 1377.71,147.74 1366.23,201.8 "/>
<polygon class="st0" points="1355.56,159.65 1377.71,147.74 1321.46,135.57 "/>
<polygon class="st0" points="1329.87,178.76 1309.63,190.2 1366.23,201.8 "/>
<polygon class="st0" points="1318.11,233.08 1297.87,244.52 1309.7,189.89 "/>
<polygon class="st0" points="1343.8,213.98 1365.95,202.06 1354.47,256.12 "/>
<polygon class="st0" points="1343.8,213.98 1365.95,202.06 1309.7,189.89 "/>
<polygon class="st0" points="1318.11,233.08 1297.87,244.52 1354.47,256.12 "/>
<polygon class="st0" points="1408.83,196.01 1422.52,214.8 1434.35,160.17 "/>
<polygon class="st0" points="1393.34,167.99 1378.1,147.99 1366.19,201.96 "/>
<polygon class="st0" points="1393.34,167.99 1378.1,147.99 1434.35,160.17 "/>
<polygon class="st0" points="1408.83,196.01 1422.52,214.8 1366.19,201.96 "/>
<polygon class="st0" points="1397.07,250.34 1410.76,269.12 1422.59,214.49 "/>
<polygon class="st0" points="1381.58,222.32 1366.34,202.31 1354.43,256.28 "/>
<polygon class="st0" points="1381.58,222.32 1366.34,202.31 1422.59,214.49 "/>
<polygon class="st0" points="1397.07,250.34 1410.76,269.12 1354.43,256.28 "/>
<polygon class="st0" points="1352.62,69.23 1332.39,80.67 1344.22,26.04 "/>
<polygon class="st0" points="1378.32,50.13 1400.47,38.22 1388.99,92.28 "/>
<polygon class="st0" points="1378.32,50.13 1400.47,38.22 1344.22,26.04 "/>
<polygon class="st0" points="1352.62,69.23 1332.39,80.67 1388.99,92.28 "/>
<polygon class="st0" points="1346.05,99.59 1332.36,80.81 1320.53,135.44 "/>
<polygon class="st0" points="1361.54,127.61 1376.78,147.62 1388.69,93.65 "/>
<polygon class="st0" points="1361.54,127.61 1376.78,147.62 1320.53,135.44 "/>
<polygon class="st0" points="1346.05,99.59 1332.36,80.81 1388.69,93.65 "/>
<polygon class="st0" points="1431.59,86.49 1445.28,105.27 1457.11,50.64 "/>
<polygon class="st0" points="1416.1,58.47 1400.86,38.46 1388.95,92.43 "/>
<polygon class="st0" points="1416.1,58.47 1400.86,38.46 1457.11,50.64 "/>
<polygon class="st0" points="1431.59,86.49 1445.28,105.27 1388.95,92.43 "/>
<polygon class="st0" points="1425.09,116.54 1445.32,105.1 1433.49,159.73 "/>
<polygon class="st0" points="1399.39,135.64 1377.24,147.55 1388.72,93.49 "/>
<polygon class="st0" points="1399.39,135.64 1377.24,147.55 1433.49,159.73 "/>
<polygon class="st0" points="1425.09,116.54 1445.32,105.1 1388.72,93.49 "/>
<polygon class="st0" points="1670.69,251.44 1650.45,262.88 1662.28,208.25 "/>
<polygon class="st0" points="1696.38,232.34 1718.53,220.43 1707.05,274.49 "/>
<polygon class="st0" points="1696.38,232.34 1718.53,220.43 1662.28,208.25 "/>
<polygon class="st0" points="1670.69,251.44 1650.45,262.88 1707.05,274.49 "/>
<polygon class="st0" points="1658.93,305.76 1638.69,317.2 1650.52,262.57 "/>
<polygon class="st0" points="1684.62,286.66 1706.77,274.75 1695.29,328.81 "/>
<polygon class="st0" points="1684.62,286.66 1706.77,274.75 1650.52,262.57 "/>
<polygon class="st0" points="1658.93,305.76 1638.69,317.2 1695.29,328.81 "/>
<polygon class="st0" points="1749.65,268.7 1763.34,287.48 1775.17,232.85 "/>
<polygon class="st0" points="1734.16,240.68 1718.92,220.67 1707.02,274.64 "/>
<polygon class="st0" points="1734.16,240.68 1718.92,220.67 1775.17,232.85 "/>
<polygon class="st0" points="1749.65,268.7 1763.34,287.48 1707.02,274.64 "/>
<polygon class="st0" points="1737.89,323.02 1751.58,341.8 1763.41,287.17 "/>
<polygon class="st0" points="1722.4,295 1707.16,274.99 1695.26,328.96 "/>
<polygon class="st0" points="1722.4,295 1707.16,274.99 1763.41,287.17 "/>
<polygon class="st0" points="1737.89,323.02 1751.58,341.8 1695.26,328.96 "/>
<polygon class="st0" points="1693.44,141.91 1673.21,153.35 1685.04,98.72 "/>
<polygon class="st0" points="1719.14,122.81 1741.29,110.9 1729.81,164.96 "/>
<polygon class="st0" points="1719.14,122.81 1741.29,110.9 1685.04,98.72 "/>
<polygon class="st0" points="1693.44,141.91 1673.21,153.35 1729.81,164.96 "/>
<polygon class="st0" points="1686.87,172.27 1673.18,153.49 1661.35,208.12 "/>
<polygon class="st0" points="1702.37,200.29 1717.6,220.3 1729.51,166.33 "/>
<polygon class="st0" points="1702.37,200.29 1717.6,220.3 1661.35,208.12 "/>
<polygon class="st0" points="1686.87,172.27 1673.18,153.49 1729.51,166.33 "/>
<polygon class="st0" points="1772.41,159.17 1786.1,177.95 1797.93,123.32 "/>
<polygon class="st0" points="1756.92,131.15 1741.68,111.15 1729.77,165.11 "/>
<polygon class="st0" points="1756.92,131.15 1741.68,111.15 1797.93,123.32 "/>
<polygon class="st0" points="1772.41,159.17 1786.1,177.95 1729.77,165.11 "/>
<polygon class="st0" points="1765.91,189.22 1786.14,177.78 1774.31,232.41 "/>
<polygon class="st0" points="1740.21,208.32 1718.06,220.24 1729.54,166.17 "/>
<polygon class="st0" points="1740.21,208.32 1718.06,220.24 1774.31,232.41 "/>
<polygon class="st0" points="1765.91,189.22 1786.14,177.78 1729.54,166.17 "/>
<polygon class="st0" points="1423.95,286.95 1410.26,268.17 1398.44,322.8 "/>
<polygon class="st0" points="1439.45,314.97 1454.69,334.98 1466.59,281.01 "/>
<polygon class="st0" points="1439.45,314.97 1454.69,334.98 1398.44,322.8 "/>
<polygon class="st0" points="1423.95,286.95 1410.26,268.17 1466.59,281.01 "/>
<polygon class="st0" points="1502.99,303.9 1523.22,292.46 1511.4,347.09 "/>
<polygon class="st0" points="1477.29,323.01 1455.15,334.92 1466.63,280.86 "/>
<polygon class="st0" points="1477.29,323.01 1455.15,334.92 1511.4,347.09 "/>
<polygon class="st0" points="1502.99,303.9 1523.22,292.46 1466.63,280.86 "/>
<polygon class="st0" points="1536.94,311.11 1523.25,292.32 1511.43,346.96 "/>
<polygon class="st0" points="1552.44,339.13 1567.67,359.13 1579.58,305.16 "/>
<polygon class="st0" points="1552.44,339.13 1567.67,359.13 1511.43,346.96 "/>
<polygon class="st0" points="1536.94,311.11 1523.25,292.32 1579.58,305.16 "/>
<polygon class="st0" points="1615.98,328.06 1636.21,316.62 1624.38,371.25 "/>
<polygon class="st0" points="1590.28,347.16 1568.13,359.07 1579.61,305.01 "/>
<polygon class="st0" points="1590.28,347.16 1568.13,359.07 1624.38,371.25 "/>
<polygon class="st0" points="1615.98,328.06 1636.21,316.62 1579.61,305.01 "/>
<polygon class="st0" points="1309.95,263.1 1296.26,244.31 1284.43,298.94 "/>
<polygon class="st0" points="1325.44,291.12 1340.68,311.12 1352.59,257.15 "/>
<polygon class="st0" points="1325.44,291.12 1340.68,311.12 1284.43,298.94 "/>
<polygon class="st0" points="1309.95,263.1 1296.26,244.31 1352.59,257.15 "/>
<polygon class="st0" points="1388.98,280.04 1409.22,268.6 1397.39,323.23 "/>
<polygon class="st0" points="1363.29,299.15 1341.14,311.06 1352.62,257 "/>
<polygon class="st0" points="1363.29,299.15 1341.14,311.06 1397.39,323.23 "/>
<polygon class="st0" points="1388.98,280.04 1409.22,268.6 1352.62,257 "/>
<polygon class="st0" points="1650.77,335.78 1637.08,317 1625.25,371.63 "/>
<polygon class="st0" points="1666.26,363.8 1681.5,383.8 1693.41,329.83 "/>
<polygon class="st0" points="1666.26,363.8 1681.5,383.8 1625.25,371.63 "/>
<polygon class="st0" points="1650.77,335.78 1637.08,317 1693.41,329.83 "/>
<polygon class="st0" points="1729.81,352.73 1750.04,341.29 1738.21,395.92 "/>
<polygon class="st0" points="1704.11,371.83 1681.96,383.74 1693.44,329.68 "/>
<polygon class="st0" points="1704.11,371.83 1681.96,383.74 1738.21,395.92 "/>
<polygon class="st0" points="1729.81,352.73 1750.04,341.29 1693.44,329.68 "/>
<polygon class="st0" points="1407.07,365.97 1386.84,377.41 1398.67,322.78 "/>
<polygon class="st0" points="1432.77,346.86 1454.92,334.95 1443.44,389.01 "/>
<polygon class="st0" points="1432.77,346.86 1454.92,334.95 1398.67,322.78 "/>
<polygon class="st0" points="1407.07,365.97 1386.84,377.41 1443.44,389.01 "/>
<polygon class="st0" points="1486.04,383.22 1499.73,402.01 1511.56,347.38 "/>
<polygon class="st0" points="1470.55,355.2 1455.31,335.2 1443.4,389.17 "/>
<polygon class="st0" points="1470.55,355.2 1455.31,335.2 1511.56,347.38 "/>
<polygon class="st0" points="1486.04,383.22 1499.73,402.01 1443.4,389.17 "/>
<polygon class="st0" points="1519.93,390.71 1499.7,402.15 1511.53,347.52 "/>
<polygon class="st0" points="1545.63,371.6 1567.78,359.69 1556.3,413.75 "/>
<polygon class="st0" points="1545.63,371.6 1567.78,359.69 1511.53,347.52 "/>
<polygon class="st0" points="1519.93,390.71 1499.7,402.15 1556.3,413.75 "/>
<polygon class="st0" points="1598.9,407.96 1612.59,426.75 1624.42,372.12 "/>
<polygon class="st0" points="1583.41,379.94 1568.17,359.94 1556.26,413.91 "/>
<polygon class="st0" points="1583.41,379.94 1568.17,359.94 1624.42,372.12 "/>
<polygon class="st0" points="1598.9,407.96 1612.59,426.75 1556.26,413.91 "/>
<polygon class="st0" points="1293.07,342.11 1272.84,353.55 1284.66,298.92 "/>
<polygon class="st0" points="1318.76,323.01 1340.91,311.09 1329.43,365.15 "/>
<polygon class="st0" points="1318.76,323.01 1340.91,311.09 1284.66,298.92 "/>
<polygon class="st0" points="1293.07,342.11 1272.84,353.55 1329.43,365.15 "/>
<polygon class="st0" points="1372.04,359.37 1385.73,378.15 1397.55,323.52 "/>
<polygon class="st0" points="1356.54,331.35 1341.3,311.34 1329.4,365.31 "/>
<polygon class="st0" points="1356.54,331.35 1341.3,311.34 1397.55,323.52 "/>
<polygon class="st0" points="1372.04,359.37 1385.73,378.15 1329.4,365.31 "/>
<polygon class="st0" points="1633.89,414.79 1613.66,426.23 1625.48,371.6 "/>
<polygon class="st0" points="1659.58,395.69 1681.73,383.78 1670.25,437.84 "/>
<polygon class="st0" points="1659.58,395.69 1681.73,383.78 1625.48,371.6 "/>
<polygon class="st0" points="1633.89,414.79 1613.66,426.23 1670.25,437.84 "/>
<polygon class="st0" points="1712.86,432.05 1726.55,450.83 1738.37,396.2 "/>
<polygon class="st0" points="1697.36,404.03 1682.12,384.02 1670.22,437.99 "/>
<polygon class="st0" points="1697.36,404.03 1682.12,384.02 1738.37,396.2 "/>
<polygon class="st0" points="1712.86,432.05 1726.55,450.83 1670.22,437.99 "/>
<polygon class="st0" points="1398.92,395.98 1385.23,377.2 1373.4,431.83 "/>
<polygon class="st0" points="1414.41,424 1429.65,444.01 1441.56,390.04 "/>
<polygon class="st0" points="1398.92,395.98 1385.23,377.2 1441.56,390.04 "/>
<polygon class="st0" points="1477.95,412.93 1498.18,401.49 1486.36,456.12 "/>
<polygon class="st0" points="1452.26,432.04 1430.11,443.95 1441.59,389.89 "/>
<polygon class="st0" points="1477.95,412.93 1498.18,401.49 1441.59,389.89 "/>
<polygon class="st0" points="1511.9,420.14 1498.21,401.36 1486.39,455.99 "/>
<polygon class="st0" points="1527.4,448.16 1542.64,468.16 1554.54,414.19 "/>
<polygon class="st0" points="1511.9,420.14 1498.21,401.36 1554.54,414.19 "/>
<polygon class="st0" points="1590.94,437.09 1611.17,425.65 1599.34,480.28 "/>
<polygon class="st0" points="1565.24,456.19 1543.1,468.1 1554.58,414.04 "/>
<polygon class="st0" points="1590.94,437.09 1611.17,425.65 1554.58,414.04 "/>
<polygon class="st0" points="1300.41,400.15 1315.64,420.15 1327.55,366.18 "/>
<polygon class="st0" points="1284.91,372.13 1271.22,353.34 1327.55,366.18 "/>
<polygon class="st0" points="1363.95,389.07 1384.18,377.63 1372.35,432.26 "/>
<polygon class="st0" points="1338.25,408.18 1316.1,420.09 1327.58,366.03 "/>
<polygon class="st0" points="1363.95,389.07 1384.18,377.63 1327.58,366.03 "/>
<polygon class="st0" points="1625.73,444.81 1612.04,426.03 1600.22,480.66 "/>
<polygon class="st0" points="1641.23,472.83 1656.46,492.83 1668.37,438.86 "/>
<polygon class="st0" points="1625.73,444.81 1612.04,426.03 1668.37,438.86 "/>
<polygon class="st0" points="1704.77,461.76 1725,450.32 1713.17,504.95 "/>
<polygon class="st0" points="1679.07,480.86 1656.92,492.77 1668.4,438.71 "/>
<polygon class="st0" points="1704.77,461.76 1725,450.32 1668.4,438.71 "/>
</svg>
